<svg width="644" height="306" viewBox="0 0 644 306" fill="none" xmlns="http://www.w3.org/2000/svg">
<path fill-rule="evenodd" clip-rule="evenodd" d="M301.108 67.5357C300.941 67.6011 298.465 67.0808 295.606 66.3797C292.471 65.61 290.498 65.2842 290.631 65.5556C290.753 65.8029 290.419 65.696 289.887 65.3182C289.357 64.941 288.763 64.6932 288.57 64.7688C288.377 64.8464 284.365 63.9896 279.654 62.8668C268.308 60.1617 262.408 58.876 261.757 58.9632C261.462 59.002 259.758 58.7049 257.966 58.3007C254.496 57.5192 251.732 56.9972 249.482 56.6978C248.72 56.5959 246.245 56.1753 243.982 55.7627C241.72 55.35 239.368 54.9526 238.755 54.8782C237.655 54.7465 233.911 54.0919 229.145 53.1984C227.788 52.9438 226.673 52.764 226.665 52.7978C226.656 52.8316 226.029 52.7536 225.272 52.6231C224.518 52.4953 223.145 52.3003 222.227 52.192C221.309 52.0836 219.439 51.8226 218.071 51.6117C216.705 51.4015 214.836 51.1404 213.915 51.0314C212.997 50.9211 211.754 50.738 211.152 50.6218C210.55 50.5036 209.789 50.4462 209.463 50.4899C209.134 50.5348 208.211 50.3679 207.405 50.1189C206.602 49.8686 205.902 49.8228 205.853 50.0156C205.804 50.2084 205.568 50.2115 205.326 50.0203C205.087 49.8298 204.18 49.6864 203.31 49.7005C202.442 49.7153 200.109 49.4034 198.13 49.0083C194.13 48.2075 193.257 48.0852 191.988 48.1412C191.078 48.1814 189.321 47.9872 184.121 47.2708C182.418 47.0355 180.316 46.8548 179.452 46.8683C178.59 46.8845 177.212 46.724 176.393 46.5141C175.571 46.3035 174.696 46.2104 174.444 46.3091C174.195 46.4084 173.444 46.3937 172.78 46.2786C172.113 46.1628 168.909 45.8689 165.657 45.6242C162.406 45.3776 159.438 45.1465 159.063 45.1095C158.684 45.0739 158.197 45.1144 157.979 45.2003C157.757 45.2854 157.259 45.1748 156.87 44.95C156.481 44.7273 155.766 44.6606 155.285 44.8044C154.802 44.9474 154.095 44.944 153.716 44.796C153.336 44.6479 152.242 44.5622 151.282 44.6022C150.325 44.643 149.29 44.6593 148.978 44.6366C148.67 44.6146 148.029 44.5923 147.557 44.5878C146.184 44.5771 141.198 44.2078 139.531 43.9943C138.689 43.8865 137.963 43.9547 137.915 44.1435C137.866 44.3343 137.379 44.3749 136.836 44.2356C136.296 44.0971 135.65 44.0607 135.408 44.1555C135.163 44.2516 134.655 44.2972 134.28 44.2562C131.897 43.9947 126.16 43.7212 125.65 43.8445C125.314 43.9259 124.313 43.934 123.423 43.8627C122.536 43.7921 121.376 43.9036 120.847 44.1112C120.318 44.3187 119.569 44.3067 119.179 44.084C118.792 43.862 118.287 43.8869 118.054 44.1388C117.808 44.4105 117.214 44.4022 116.61 44.1203C115.364 43.5381 112.65 43.7871 112.979 44.4519C113.115 44.7327 112.813 44.7421 112.235 44.4753C111.007 43.902 107.671 44.3391 107.723 45.0663C107.752 45.5037 107.624 45.4752 107.066 44.9107C106.24 44.0761 102.35 43.8311 102.367 44.6149C102.371 44.8724 102.007 45.0099 101.558 44.918C101.108 44.828 100.283 44.765 99.7272 44.7792C97.5407 44.8373 96.6598 44.8233 95.6628 44.7118C94.5949 44.5906 91.1277 45.2313 90.3943 45.6852C90.1672 45.8261 89.6513 45.821 89.2512 45.6739C87.618 45.0752 87.0795 45.1469 87.2099 45.9451C87.2943 46.4412 87.0263 46.7644 86.5272 46.7742C85.9453 46.786 85.8449 46.5929 86.1782 46.1064C86.7334 45.2933 85.2712 45.1854 83.2649 45.8935C82.5903 46.1294 81.751 46.251 81.3953 46.1599C81.0423 46.0694 80.2691 46.3118 79.6787 46.7007C78.8586 47.2404 78.2771 47.2735 77.2156 46.8404C76.0136 46.348 75.8476 46.388 75.9744 47.1429C76.1192 48.0338 74.0565 48.3312 73.6376 47.4781C73.2626 46.7168 66.5232 47.2496 66.3158 48.0586C66.2694 48.2395 65.6136 48.3447 64.8608 48.2894C64.1048 48.2354 63.2292 48.5215 62.914 48.9258C62.5173 49.43 62.2489 49.4798 62.054 49.0824C61.8471 48.6629 61.6346 48.655 61.2667 49.0586C60.989 49.3623 60.5729 49.4612 60.3432 49.2794C60.1136 49.0977 59.1268 49.1985 58.1523 49.5037C57.1811 49.8077 56.3013 49.9614 56.2029 49.8408C56.104 49.7222 55.6552 49.7534 55.2112 49.915C54.765 50.0738 53.0845 50.6112 51.4757 51.1097C45.8612 52.8481 41.081 54.6563 40.6495 55.2046C40.4102 55.5076 39.3527 55.8614 38.2996 55.9919C36.3636 56.2307 32.7424 58.0225 31.1382 59.5348C30.6572 59.9898 30.0919 60.3152 29.8795 60.2608C29.6672 60.2064 28.7482 60.9028 27.8376 61.807C26.927 62.7112 25.9781 63.3979 25.7272 63.3336C24.8642 63.1124 22.9229 66.375 23.3771 67.2858C23.6998 67.9299 23.545 68.2356 22.6951 68.6278C21.208 69.3164 19.0575 73.9341 19.6381 75.1887C19.7503 75.4272 19.7974 76.0918 19.7472 76.6657C19.5227 79.2498 19.554 79.8955 20.0231 82.0664C20.2944 83.335 20.8658 84.8203 21.2902 85.3655C21.7147 85.9107 22.037 86.453 22.0074 86.5683C21.9779 86.6836 23.0376 88.0865 24.359 89.6836C25.6826 91.2833 26.6569 92.7787 26.522 93.0068C26.3866 93.2369 26.7272 93.6166 27.275 93.8523C28.5931 94.419 29.6003 95.6601 29.0525 96.043C28.8095 96.2116 29.1396 96.4826 29.7904 96.6494C30.7196 96.8876 30.8102 97.0273 30.2261 97.3225C29.4307 97.7202 29.2403 100.091 29.9582 100.66C30.1901 100.845 30.2011 101.123 29.9792 101.278C29.7573 101.433 29.8643 101.634 30.2145 101.724C30.8349 101.883 30.9247 101.2 30.6387 98.5214L30.5234 97.458L31.6797 98.9196C32.3139 99.724 32.671 100.498 32.4675 100.638C32.2667 100.78 32.3853 101.062 32.73 101.265C33.2019 101.545 33.1904 101.601 32.6907 101.498C32.3116 101.418 32.1019 101.663 32.1982 102.067C32.2926 102.456 32.0595 102.826 31.6789 102.889C31.2119 102.969 31.403 103.564 32.2709 104.729C32.9771 105.677 33.515 106.605 33.4671 106.792C33.4187 106.981 33.6589 107.087 33.9968 107.03C34.3348 106.972 34.5385 107.061 34.4517 107.227C34.0443 107.991 34.2396 108.547 34.9786 108.737C35.4225 108.851 35.7387 109.165 35.6787 109.433C35.6077 109.756 35.8477 109.771 36.3851 109.474C36.8329 109.229 37.5148 109.194 37.9029 109.4C38.3266 109.627 38.4987 109.563 38.3409 109.239C38.1958 108.945 37.6346 108.589 37.0969 108.451C36.5151 108.302 35.9664 107.657 35.7466 106.864C35.5412 106.129 35.1132 105.46 34.7934 105.378C34.3936 105.276 34.4332 105.144 34.9298 104.949C35.3218 104.796 35.5913 104.352 35.5288 103.965C35.429 103.357 35.4719 103.362 35.8448 103.993C36.0826 104.395 36.219 104.964 36.1496 105.258C35.9927 105.904 38.6694 108.84 39.6545 109.101C40.0423 109.204 40.1732 109.416 39.9508 109.573C39.3884 109.967 41.3694 112.097 42.2793 112.078C42.6869 112.071 42.9643 112.284 42.896 112.55C42.8277 112.816 43.2216 113.424 43.7697 113.899C44.3179 114.374 45.0261 115.062 45.3466 115.428C45.6638 115.795 46.3059 116.191 46.7719 116.31C47.2351 116.429 47.5822 116.668 47.5379 116.841C47.4543 117.167 51.5876 119.9 51.754 119.63C51.8083 119.544 52.1906 119.818 52.6038 120.235C53.2431 120.882 53.381 120.917 53.5027 120.465C53.6235 120.028 53.704 120.047 53.9722 120.571C54.147 120.921 54.4527 121.23 54.6475 121.261C55.8484 121.448 56.1356 121.681 55.7226 122.134C55.4003 122.486 55.7922 122.997 56.9785 123.78C58.0953 124.513 58.5492 125.081 58.2673 125.39C57.944 125.745 58.188 125.905 59.2356 126.026C60.1149 126.126 60.592 126.363 60.5156 126.661C60.4483 126.923 61.7312 127.983 63.3674 129.017C65.0009 130.05 66.1553 131.026 65.9301 131.182C65.4933 131.488 66.0779 131.889 68.1499 132.702C68.8649 132.985 69.6851 133.316 69.9712 133.438C71.0674 133.908 71.5581 133.805 70.8805 133.25C70.4873 132.927 70.4374 132.732 70.7638 132.811C71.0924 132.893 71.918 133.581 72.6013 134.343C73.2846 135.105 73.7721 135.427 73.6825 135.055C73.5686 134.593 73.7453 134.512 74.2425 134.796C74.6421 135.025 74.8827 135.543 74.7788 135.948C74.6753 136.352 74.8334 136.744 75.1284 136.819C75.4262 136.896 75.6016 137.22 75.5196 137.54C75.4258 137.906 75.8804 138.254 76.7462 138.476C77.5927 138.693 78.0283 138.633 77.8757 138.322C77.7363 138.041 78.0757 138.172 78.6265 138.614C79.1778 139.054 79.5952 139.547 79.5534 139.71C79.5122 139.871 79.8558 140.101 80.319 140.22C80.8402 140.353 81.0552 140.213 80.8873 139.848C80.7405 139.527 81.0314 139.699 81.5374 140.235C82.044 140.77 82.8936 141.399 83.4299 141.634C85.0461 142.344 89.4183 144.81 89.6398 145.138C89.7556 145.306 91.0272 145.882 92.4704 146.419C93.9109 146.956 95.3087 147.613 95.5751 147.88C95.8443 148.148 96.8251 148.609 97.7549 148.903C98.6847 149.196 99.4051 149.584 99.3592 149.763C99.3128 149.944 99.5453 150.046 99.8767 149.991C100.205 149.936 100.417 150.117 100.346 150.397C100.264 150.717 101.009 151.144 102.354 151.55C103.53 151.904 105.136 152.642 105.924 153.189C106.71 153.736 107.731 154.28 108.194 154.398C108.658 154.517 109.415 154.887 109.879 155.22C110.812 155.889 113.5 157.157 115.488 157.861C115.862 157.993 115.916 158.323 115.621 158.647C115.238 159.064 115.323 159.168 115.956 159.059C116.84 158.911 121.642 159.907 121.087 160.125C120.48 160.361 125.121 162.731 128.474 163.897C129.356 164.204 130.198 164.602 130.346 164.78C130.497 164.958 131.046 164.985 131.569 164.835C132.349 164.613 132.409 164.641 131.915 164.998C131.465 165.321 131.553 165.426 132.255 165.413C132.772 165.404 133.278 165.563 133.381 165.77C133.483 165.978 134.129 166.254 134.818 166.388C135.51 166.521 136.591 166.921 137.228 167.279C137.863 167.635 139.373 168.291 140.583 168.739C141.794 169.185 143.303 169.741 143.937 169.973C144.567 170.207 145.26 170.533 145.47 170.699C145.683 170.864 146.922 171.385 148.22 171.857C152.143 173.28 153.089 173.728 153.368 174.289C153.644 174.851 157.497 175.71 159.581 175.672C160.473 175.655 160.53 175.697 159.841 175.851C158.716 176.103 159.09 176.578 160.908 177.201C162.059 177.595 162.303 177.537 162.24 176.889C162.195 176.412 162.446 176.167 162.87 176.276C163.278 176.38 163.4 176.719 163.159 177.074C162.806 177.594 163.168 177.818 165.466 178.496C167.018 178.953 168.1 179.112 167.978 178.865C167.708 178.314 169.033 178.794 169.866 179.548C170.212 179.861 171.889 180.469 173.592 180.899C175.298 181.33 176.653 181.83 176.609 182.013C176.562 182.198 176.896 182.339 177.351 182.331C177.806 182.322 178.262 182.56 178.365 182.857C178.506 183.269 178.653 183.302 178.988 182.994C179.23 182.772 179.664 182.65 179.953 182.724C180.24 182.798 180.266 183.006 180.011 183.186C179.728 183.385 179.948 183.571 180.572 183.658C181.139 183.738 182.092 184.16 182.691 184.598C183.565 185.233 183.806 185.292 183.914 184.892C184.019 184.517 184.123 184.535 184.342 184.966C184.502 185.28 186.302 186.053 188.341 186.686C190.38 187.319 192.04 187.869 192.029 187.911C192.019 187.951 192.97 188.266 194.144 188.614C195.319 188.96 196.914 189.536 197.689 189.894C198.675 190.347 199.141 190.397 199.235 190.055C199.327 189.716 199.488 189.787 199.752 190.283C200.063 190.869 200.24 190.926 200.729 190.601C201.218 190.275 201.353 190.32 201.482 190.849C201.603 191.35 202.679 191.762 206.196 192.659C208.7 193.297 210.992 194.009 211.287 194.244C211.583 194.478 212.041 194.435 212.305 194.147C212.788 193.616 215.972 194.139 215.822 194.724C215.779 194.891 216.387 195.235 217.175 195.488C218.53 195.922 218.558 195.904 217.706 195.133C216.867 194.371 216.903 194.357 218.257 194.91C219.164 195.282 219.557 195.664 219.307 195.937C219.09 196.178 219.24 196.704 219.645 197.108C220.292 197.759 220.367 197.717 220.288 196.754C220.205 195.737 220.321 195.699 222.033 196.183C224.516 196.883 224.898 197.489 222.705 197.251C219.649 196.921 221.344 197.828 226.302 199.177C227.409 199.478 228.269 199.908 228.211 200.135C228.153 200.359 228.612 200.574 229.234 200.615C229.878 200.657 230.32 200.883 230.265 201.142C230.207 201.415 230.488 201.432 230.975 201.182C231.868 200.725 233.504 200.748 232.846 201.208C232.62 201.369 232.651 201.671 232.917 201.881C233.183 202.093 233.451 202.082 233.509 201.855C233.566 201.63 233.87 201.511 234.182 201.591C234.496 201.672 234.559 201.872 234.322 202.04C233.71 202.47 234.648 202.636 235.662 202.28C236.344 202.041 236.413 202.059 236.01 202.369C235.699 202.607 235.828 202.839 236.343 202.971C236.806 203.09 237.229 203.012 237.284 202.799C237.339 202.585 237.932 202.538 238.601 202.694C239.757 202.963 239.767 202.947 238.821 202.395C238.272 202.074 237.028 201.666 236.057 201.485C235.084 201.305 234.195 200.967 234.079 200.732C233.963 200.497 233.428 200.29 232.892 200.273C232.043 200.248 232.057 200.216 233.003 200.043C233.602 199.932 234.43 200.036 234.845 200.274C235.258 200.511 236.432 200.617 237.451 200.508C238.734 200.373 239.334 200.463 239.397 200.803C239.445 201.074 240.098 201.451 240.845 201.643C241.917 201.917 242.166 201.829 242.02 201.219C241.872 200.605 241.945 200.582 242.385 201.103C243.171 202.037 243.025 203.019 242.174 202.532C241.744 202.286 241.408 202.38 241.307 202.776C241.215 203.131 240.926 203.252 240.664 203.045C240.401 202.836 240.138 202.851 240.08 203.078C239.947 203.596 241.405 203.996 241.78 203.543C241.946 203.342 242.596 203.581 243.396 204.139C244.131 204.652 244.777 204.909 244.828 204.708C244.88 204.507 244.665 204.278 244.351 204.198C244.039 204.118 243.976 203.915 244.214 203.747C244.453 203.582 244.39 203.38 244.076 203.299C243.761 203.218 243.603 202.852 243.723 202.484C243.841 202.116 244.003 202.047 244.077 202.329C244.162 202.631 244.917 202.941 245.911 203.077C247.037 203.234 247.447 203.422 247.139 203.639C246.877 203.822 247.214 204.275 247.901 204.667C248.578 205.053 249.199 205.631 249.285 205.952C249.394 206.363 249.603 206.442 249.993 206.225C251.151 205.572 253.73 206.09 253.817 206.991C253.863 207.452 254.302 207.918 254.797 208.028C255.928 208.282 260.263 209.94 260.703 210.288C260.884 210.431 261.484 210.371 262.039 210.154C262.621 209.926 263.001 209.945 262.936 210.197C262.874 210.438 263.097 210.59 263.432 210.532C263.767 210.476 263.96 210.26 263.859 210.057C263.759 209.851 264.253 209.92 264.958 210.207C265.74 210.528 266.175 210.998 266.069 211.409C265.937 211.924 265.579 211.959 264.595 211.556C263.882 211.266 263.254 211.192 263.202 211.394C263.066 211.927 264.227 212.301 269.566 213.437C271.511 213.851 273.314 214.374 273.574 214.598C274.364 215.287 276.899 216.172 276.997 215.793C277.046 215.598 277.269 215.579 277.486 215.751C278.204 216.32 281.373 217.497 284.986 218.535C286.937 219.097 288.72 219.694 288.947 219.864C289.176 220.036 291.001 220.573 293.007 221.062C295.012 221.548 296.613 222.115 296.561 222.318C296.509 222.521 296.796 222.557 297.201 222.398C297.626 222.231 298.267 222.332 298.719 222.634C299.624 223.241 302.507 223.927 305.114 224.155C306.111 224.243 307.179 224.515 307.486 224.759C307.797 225.004 309.272 225.564 310.769 226.005C319.532 228.586 319.171 229.616 310.346 227.221C304.791 225.712 303.23 225.407 303.128 225.804C303.055 226.087 302.755 226.122 302.453 225.881C301.603 225.208 296.256 223.723 295.809 224.036C295.587 224.191 295.961 224.476 296.64 224.667C297.32 224.858 298.343 225.213 298.912 225.457C300.253 226.027 305.989 227.572 307.772 227.84C308.657 227.974 309.058 228.21 308.893 228.5C308.74 228.764 309.19 229.093 309.982 229.296C310.721 229.486 311.371 229.472 311.424 229.264C311.477 229.057 312.372 229.132 313.415 229.429C314.76 229.812 315.191 230.1 314.901 230.418C314.676 230.665 314.727 230.926 315.014 230.999C315.3 231.073 315.633 230.832 315.748 230.463C315.937 229.863 315.983 229.879 316.171 230.622C316.36 231.376 316.47 231.415 317.385 231.056C317.937 230.84 318.472 230.761 318.571 230.879C318.811 231.17 327.213 233.838 329.733 234.427C330.836 234.685 331.839 235.094 331.959 235.339C332.084 235.593 332.717 235.775 333.451 235.764C334.153 235.755 337.356 236.487 340.565 237.392C344.35 238.46 346.698 238.952 347.238 238.792C347.852 238.61 348.042 238.659 347.96 238.979C347.899 239.217 348.411 239.491 349.097 239.59C349.78 239.687 350.346 239.599 350.348 239.396C350.36 238.891 346.284 236.92 345.851 237.222C345.662 237.354 344.851 237.224 344.051 236.932C342.285 236.287 332.71 233.44 329.907 232.728C328.555 232.384 327.929 232.039 328.02 231.685C328.179 231.065 330.315 231.102 330.624 231.73C331.032 232.557 331.852 232.409 332.093 231.467C332.227 230.944 331.961 230.23 331.498 229.88C331.035 229.529 330.906 229.277 331.21 229.319C333.211 229.595 334.224 229.871 334.159 230.124C334.119 230.283 334.671 230.651 335.386 230.945C336.245 231.296 336.729 231.299 336.817 230.958C336.889 230.675 337.292 230.618 337.71 230.831C340.168 232.088 340.08 231.97 338.954 232.514C338.149 232.901 337.344 232.845 335.561 232.28C334.275 231.872 333.183 231.696 333.134 231.888C333.085 232.079 334.718 232.678 336.766 233.218C338.814 233.757 340.683 234.275 340.92 234.369C341.158 234.462 341.48 234.534 341.64 234.531C342.383 234.509 344.925 235.15 344.875 235.345C344.843 235.468 345.296 235.718 345.881 235.902C346.463 236.085 346.982 236.078 347.031 235.885C347.081 235.69 347.46 235.726 347.872 235.963C348.285 236.2 348.673 236.2 348.733 235.963C348.794 235.727 348.559 235.508 348.212 235.476C347.867 235.445 347.531 235.196 347.471 234.926C347.394 234.586 348.312 234.728 350.436 235.385C352.129 235.91 354.548 236.598 355.807 236.912C357.069 237.227 358.054 237.662 357.999 237.877C357.943 238.093 358.37 238.389 358.946 238.537C359.52 238.684 360.072 238.97 360.17 239.173C360.374 239.583 374.374 243.225 375.311 243.111C375.89 243.041 376.338 243.175 379.58 244.375C380.444 244.696 381.648 244.903 382.257 244.834C383.033 244.75 383.22 244.812 382.887 245.047C382.623 245.229 382.648 245.441 382.934 245.514C383.224 245.589 383.638 245.462 383.858 245.234C384.152 244.926 384.342 244.964 384.585 245.378C385.024 246.12 386.797 246.782 387.849 246.596C388.428 246.495 388.538 246.559 388.194 246.799C387.921 246.992 387.953 247.214 388.267 247.294C388.579 247.374 388.884 247.26 388.941 247.039C389.01 246.769 389.364 246.866 390.028 247.339C390.57 247.724 390.826 248.169 390.6 248.327C390.374 248.485 390.687 248.743 391.299 248.9C391.909 249.056 392.36 249.369 392.302 249.596C392.245 249.82 392.48 249.959 392.827 249.9C393.26 249.824 393.321 249.598 393.019 249.163C392.577 248.524 393.026 248.101 393.903 248.326C394.168 248.394 394.203 248.577 393.981 248.732C393.762 248.887 393.797 249.187 394.066 249.398C394.339 249.616 394.652 249.393 394.788 248.888C394.978 248.167 395.099 248.133 395.398 248.709C395.752 249.389 396.118 249.167 396.112 248.272C396.109 248.042 396.36 248.153 396.669 248.518C396.978 248.881 398.331 249.463 399.678 249.813C402.947 250.657 404.787 251.527 403.715 251.72C403.136 251.824 403.247 251.952 404.106 252.177C404.946 252.396 405.252 252.292 405.139 251.827C405.019 251.332 405.324 251.277 406.361 251.611C407.119 251.854 407.691 252.257 407.627 252.507C407.48 253.08 410.064 254.155 411.251 254.017C412.248 253.897 415.136 254.727 415.935 255.357C416.218 255.582 416.58 255.603 416.743 255.405C417.078 254.993 421.715 255.76 421.6 256.21C421.5 256.599 424.924 257.409 425.431 257.118C426.217 256.665 433.764 258.036 434.739 258.809C435.122 259.113 435.727 259.229 436.194 259.093C436.761 258.922 436.957 258.981 436.878 259.291C436.692 260.017 438.366 260.192 438.6 259.472C438.73 259.069 438.873 259.026 438.963 259.362C439.044 259.669 439.403 259.871 439.76 259.81C440.116 259.749 442.144 260.069 444.264 260.522C448.357 261.395 448.324 261.387 452.301 262.574C453.72 262.999 455.033 263.24 455.217 263.109C455.403 262.981 455.739 263.021 455.963 263.201C456.191 263.38 456.559 263.398 456.782 263.241C457.025 263.073 457.799 263.252 458.676 263.68C459.493 264.08 460.27 264.364 460.404 264.312C460.864 264.131 468.79 265.459 472.082 266.269C472.663 266.412 473.495 266.422 473.933 266.293C474.372 266.164 475.026 266.225 475.385 266.432C475.743 266.638 476.53 266.687 477.133 266.545C477.81 266.382 479.133 266.583 480.601 267.072C482.417 267.677 482.906 267.722 482.688 267.266C482.487 266.844 482.633 266.894 483.179 267.434C483.606 267.857 483.996 268.029 484.05 267.818C484.104 267.608 484.733 267.676 485.449 267.967C486.162 268.26 486.788 268.338 486.838 268.143C486.888 267.948 487.846 267.982 488.969 268.219C490.093 268.455 492.389 268.818 494.073 269.026C497.268 269.421 499.968 269.814 501.126 270.054C501.5 270.131 501.891 269.89 501.99 269.517C502.146 268.941 502.227 268.946 502.533 269.55C502.847 270.171 503.002 270.2 503.756 269.781C504.671 269.272 509.353 269.862 509.198 270.469C509.148 270.663 509.377 270.894 509.705 270.978C510.03 271.061 510.227 270.832 510.138 270.468C510.05 270.102 510.221 269.869 510.516 269.944C510.814 270.021 511.129 270.385 511.219 270.756C511.348 271.285 511.57 271.371 512.272 271.166C512.988 270.951 513.04 270.805 512.544 270.403C512.133 270.071 512.423 270.028 513.408 270.277C514.225 270.484 514.782 270.83 514.646 271.052C514.511 271.271 514.811 271.611 515.314 271.806C515.816 272.002 516.254 272.047 516.291 271.903C516.327 271.762 517.03 271.794 517.852 271.971C520.694 272.587 521.577 272.568 522.487 271.875C522.991 271.492 523.765 271.243 524.206 271.323C524.65 271.402 525.32 271.528 525.695 271.6C526.071 271.673 526.633 271.521 526.941 271.257C527.257 270.988 527.249 271.228 526.922 271.803C526.393 272.733 526.459 272.83 527.645 272.867C529.446 272.926 529.504 272.871 528.7 271.905C527.801 270.827 527.99 270.032 529.153 270.01C529.862 269.997 529.931 270.153 529.477 270.731C529.019 271.313 529.091 271.467 529.809 271.454C530.314 271.443 530.812 271.62 530.925 271.844C531.139 272.282 533.991 272.221 534.114 271.776C534.152 271.626 534.654 271.698 535.225 271.933C535.797 272.167 536.311 272.167 536.371 271.933C536.431 271.698 536.85 271.909 537.3 272.402C538.359 273.557 538.802 273.651 539.027 272.77C539.149 272.295 539.872 272.08 541.2 272.124C543.502 272.201 543.818 272.514 541.632 272.55C540.814 272.563 540.266 272.8 540.405 273.081C540.574 273.421 540.988 273.48 541.683 273.265C542.249 273.088 543.232 272.933 543.867 272.922C544.658 272.907 544.813 272.783 544.359 272.527C543.665 272.137 546.154 271.335 546.883 271.712C547.083 271.817 547.933 271.891 548.778 271.876C549.858 271.858 550.491 272.038 550.937 272.485C551.394 272.949 551.595 273.003 551.676 272.685C551.738 272.444 552.343 272.39 553.021 272.563C553.699 272.737 555.252 272.779 556.474 272.654C558.278 272.471 558.532 272.512 557.831 272.873C557.087 273.254 557.11 273.315 557.974 273.303C558.549 273.296 558.935 273.474 558.873 273.714C558.796 274.016 559.003 274.067 559.598 273.891C560.056 273.755 560.562 273.799 560.721 273.991C560.879 274.179 561.058 274.145 561.119 273.908C561.179 273.674 561.695 273.495 562.267 273.51C562.839 273.525 563.978 273.3 564.796 273.01C565.823 272.646 566.313 272.649 566.385 273.025C566.45 273.39 566.939 273.373 567.875 272.975C569.613 272.237 572.244 271.937 572.84 272.409C573.089 272.607 573.832 272.574 574.491 272.341C575.15 272.108 575.811 271.949 575.96 271.989C577.088 272.299 582.963 270.897 582.83 270.35C582.637 269.553 584.514 269.053 586.138 269.469C587.034 269.699 587.504 269.504 587.992 268.703C588.352 268.111 588.991 267.718 589.413 267.826C589.832 267.933 590.224 267.837 590.282 267.61C590.34 267.383 590.612 267.377 590.886 267.593C591.425 268.022 594.92 266.585 595.707 265.611C595.971 265.281 596.408 265.067 596.676 265.135C596.943 265.204 597.104 265.012 597.032 264.709C596.959 264.407 597.717 263.995 598.715 263.796C599.712 263.598 600.986 263.026 601.546 262.528C602.103 262.031 602.728 261.689 602.929 261.766C604.008 262.189 608.414 258.594 608.152 257.508C608.054 257.112 608.185 256.978 608.456 257.194C608.714 257.4 608.977 257.429 609.041 257.261C609.821 255.191 610.277 254.409 610.762 254.317C611.08 254.257 611.511 253.632 611.718 252.929C611.921 252.227 612.46 251.467 612.914 251.24C613.569 250.912 613.615 250.731 613.146 250.359C612.683 249.99 612.819 249.608 613.771 248.585C614.443 247.868 615.164 246.925 615.373 246.488C615.582 246.052 616.185 245.473 616.713 245.202C617.575 244.762 617.571 244.712 616.659 244.724C615.713 244.736 615.72 244.674 616.768 243.795C617.629 243.075 617.732 242.811 617.209 242.671C616.664 242.527 616.685 242.46 617.307 242.348C617.738 242.27 618.072 242.034 618.05 241.821C618.028 241.609 618.425 240.703 618.93 239.809C619.436 238.913 619.847 237.93 619.846 237.623C619.846 237.315 620.073 237.244 620.354 237.467C620.905 237.905 621.288 235.965 620.834 235.041C620.659 234.692 620.945 234.689 621.68 235.032C622.473 235.402 622.704 235.383 622.497 234.963C622.338 234.643 622.313 233.537 622.439 232.508C622.564 231.479 622.496 230.428 622.282 230.174C622.071 229.918 622.107 229.479 622.368 229.194C622.715 228.815 622.615 228.713 621.99 228.813C621.3 228.924 621.29 228.871 621.941 228.535C622.777 228.104 622.883 226.523 622.149 225.396C621.887 224.995 621.943 224.687 622.292 224.607C622.949 224.453 623.654 222.401 623.097 222.258C622.755 222.171 622.515 221.171 622.632 220.324C622.659 220.127 622.443 219.779 622.152 219.548C621.861 219.319 621.617 218.678 621.612 218.124C621.607 217.572 621.372 216.997 621.093 216.849C620.811 216.7 620.661 216.266 620.759 215.882C620.857 215.498 620.65 214.895 620.301 214.54C619.948 214.185 619.617 213.38 619.564 212.75C619.511 212.12 619.083 211.173 618.613 210.646C618.143 210.117 617.803 209.472 617.858 209.211C618.037 208.388 616.381 206.388 615.629 206.515C615.177 206.592 615.105 206.506 615.428 206.277C615.986 205.888 614.283 203.899 613.12 203.577C612.733 203.472 612.582 203.268 612.786 203.127C612.986 202.986 612.612 202.486 611.957 202.017C611.298 201.547 610.796 201.018 610.842 200.841C610.887 200.664 610.56 200.426 610.116 200.312C609.672 200.198 609.359 199.906 609.421 199.666C609.543 199.191 607.854 197.249 607.167 197.073C606.936 197.014 606.681 196.563 606.599 196.07C606.506 195.514 606.13 195.181 605.608 195.191C605.144 195.199 604.935 195.088 605.142 194.942C605.597 194.624 604.475 193.386 603.926 193.601C603.717 193.683 602.951 192.933 602.219 191.937C601.49 190.94 600.392 189.873 599.78 189.564C599.166 189.256 598.324 188.64 597.906 188.196C597.486 187.751 596.858 187.438 596.507 187.498C596.155 187.556 595.939 187.329 596.025 186.993C596.144 186.532 595.831 186.354 594.775 186.279C593.767 186.207 593.404 186.019 593.505 185.627C593.673 184.969 587.587 180.833 585.542 180.215C584.75 179.978 584.142 179.621 584.192 179.427C584.24 179.229 584.101 179.14 583.882 179.226C583.663 179.312 582.862 178.952 582.107 178.426C581.351 177.902 580.256 177.348 579.674 177.198C579.089 177.049 578.566 176.775 578.507 176.59C578.4 176.241 572.649 172.998 570.821 172.254C568.78 171.425 567.45 170.798 567.04 170.475C566.813 170.294 565.484 169.746 564.087 169.256C562.694 168.766 561.416 168.258 561.248 168.126C560.823 167.788 555.602 165.914 553.509 165.346C552.548 165.084 551.79 164.772 551.822 164.646C551.854 164.521 551.55 164.335 551.147 164.232C550.309 164.017 550.25 165.508 551.064 166.285C551.369 166.575 551.218 166.58 550.681 166.303C550.193 166.049 549.747 166.023 549.691 166.244C549.632 166.474 549.136 166.413 548.526 166.1C547.677 165.662 547.472 165.707 547.498 166.326C547.516 166.75 547.831 167.127 548.197 167.164C548.795 167.226 548.966 167.776 548.614 168.497C548.544 168.642 548.871 168.754 549.344 168.744C549.955 168.733 550.132 168.994 549.961 169.662C549.829 170.175 549.91 170.867 550.142 171.2C550.447 171.64 550.411 171.653 550.015 171.25C549.107 170.333 548.544 170.407 548.944 171.391C549.152 171.9 549.735 172.435 550.239 172.579C550.997 172.796 551.003 172.853 550.279 172.9C549.353 172.96 548.768 173.568 548.553 174.695C548.483 175.071 548.13 175.428 547.77 175.49C547.402 175.552 547.313 175.462 547.564 175.285C547.812 175.111 547.751 174.703 547.432 174.38C547 173.945 546.616 173.953 545.952 174.412C545.458 174.753 545.344 174.982 545.694 174.924C546.09 174.856 546.145 175.02 545.839 175.355C545.569 175.652 545.092 175.748 544.784 175.572C544.475 175.393 543.795 175.431 543.276 175.654C542.447 176.011 542.438 176.057 543.206 176.042C543.79 176.033 544.04 176.286 543.961 176.81C543.865 177.472 543.736 177.483 543.148 176.889C542.557 176.293 542.448 176.308 542.438 176.985C542.425 177.922 543.105 178.98 543.663 178.892C543.874 178.857 544.118 179.112 544.202 179.46C544.287 179.806 544.043 180.102 543.664 180.115C543.136 180.132 543.129 180.185 543.622 180.337C544.7 180.668 543.431 181.563 542.292 181.271C541.33 181.025 541.296 181.073 541.924 181.825C542.681 182.733 542.77 183.233 542.082 182.686C541.325 182.087 540.893 183.141 541.371 184.416C541.625 185.089 541.635 185.666 541.395 185.698C541.154 185.731 541.256 185.783 541.619 185.812C541.984 185.842 542.503 186.191 542.778 186.586C543.049 186.982 543.539 187.26 543.865 187.204C544.215 187.145 544.143 187.358 543.686 187.73C542.893 188.374 543.031 188.911 544.054 189.163C544.377 189.242 544.319 189.044 543.928 188.724C543.294 188.206 543.304 188.166 544.019 188.368C545.37 188.752 546.789 189.714 546.163 189.818C545.346 189.958 542.865 189.066 542.162 188.381C541.53 187.762 539.778 187.319 538.696 187.503C538.321 187.566 537.946 187.322 537.857 186.958C537.771 186.597 537.419 186.227 537.077 186.139C536.655 186.031 536.587 186.181 536.862 186.601C537.624 187.767 537.015 188.479 535.709 187.945C534.381 187.404 533.953 187.872 534.903 188.832C535.645 189.581 539.645 191.094 543.716 192.165C545.39 192.607 546.73 193.052 546.694 193.157C546.448 193.831 546.696 194.02 547.51 193.779C548.022 193.627 548.4 193.667 548.349 193.865C548.271 194.169 552.403 196.37 554.156 196.96C557.235 197.993 559.72 199.199 560.442 200.007C560.926 200.551 561.47 200.936 561.65 200.866C561.83 200.795 562.66 201.213 563.498 201.795C564.334 202.375 565.262 202.811 565.56 202.762C565.858 202.711 566.215 202.9 566.354 203.184C566.493 203.465 566.971 203.689 567.414 203.68C567.857 203.673 568.176 203.837 568.122 204.046C568.038 204.376 572.806 207.634 574.206 208.203C574.478 208.312 575.153 208.924 575.704 209.561C576.255 210.196 577.229 210.981 577.866 211.304C579.064 211.914 579.188 212.026 582.18 215.257C583.17 216.326 584.713 217.859 585.611 218.668C586.509 219.474 587.211 220.256 587.174 220.401C587.088 220.737 590.22 224.175 590.733 224.306C591.469 224.495 592.416 225.984 592.299 226.771C592.233 227.212 592.411 227.632 592.695 227.705C592.976 227.777 593.025 227.908 592.802 227.996C592.58 228.083 592.763 228.712 593.21 229.397C593.655 230.08 593.959 230.877 593.884 231.169C593.809 231.461 593.941 231.749 594.178 231.81C594.639 231.928 595.498 235.042 595.191 235.482C595.089 235.628 595.263 235.81 595.577 235.89C595.892 235.971 595.958 236.172 595.725 236.335C595.492 236.498 595.506 237.107 595.757 237.686C596.008 238.268 596.295 239.532 596.392 240.495L596.569 242.246L592.975 243.496C590.998 244.182 589.222 244.669 589.031 244.578C588.839 244.488 588.114 244.682 587.424 245.009C586.732 245.336 586.194 245.499 586.227 245.371C586.326 244.982 583.08 245.094 581.815 245.524C580.038 246.128 577.483 246.545 576.365 246.415C575.287 246.287 572.061 246.468 571.541 246.685C570.913 246.947 565.336 247.357 564.961 247.169C564.75 247.064 564.52 247.205 564.448 247.485C564.366 247.805 563.48 247.813 562.027 247.506C560.764 247.24 559.386 247.124 558.96 247.25C558.534 247.376 557.958 247.298 557.679 247.078C557.401 246.856 555.631 246.665 553.744 246.654C551.858 246.641 550.011 246.555 549.642 246.46C549.275 246.368 547.433 246.343 545.553 246.41C543.673 246.475 541.873 246.378 541.552 246.196C541.002 245.879 535.084 245.349 534.055 245.524C533.788 245.57 532.963 245.532 532.219 245.443C531.474 245.354 529.85 245.213 528.607 245.134C527.364 245.052 524.986 244.76 523.32 244.484C521.657 244.208 520.139 244.075 519.954 244.189C519.767 244.302 518.419 244.113 516.959 243.768C515.498 243.426 514.114 243.278 513.878 243.442C513.642 243.606 512.463 243.586 511.252 243.392C510.043 243.201 508.421 242.997 507.647 242.94C506.872 242.882 505.133 242.618 503.779 242.351C502.427 242.085 501.315 241.896 501.306 241.931C501.286 242.011 499.041 241.713 496.586 241.304C495.527 241.126 493.789 240.877 492.72 240.749C490.661 240.505 486.352 239.81 484.996 239.505C484.549 239.403 483.973 239.461 483.715 239.63C483.401 239.837 483.044 239.729 482.614 239.296C482.128 238.805 481.702 238.713 480.807 238.905C480.142 239.046 478.414 238.817 476.821 238.373C475.273 237.944 473.983 237.694 473.951 237.819C473.918 237.944 472.619 237.719 471.064 237.319C469.509 236.92 466.985 236.436 465.457 236.243C463.927 236.053 461.941 235.745 461.041 235.563C460.139 235.378 459.153 235.202 458.845 235.167C458.539 235.133 456.589 234.68 454.513 234.158C452.437 233.637 450.507 233.244 450.226 233.286C449.945 233.326 447.361 232.827 444.484 232.174C441.61 231.522 436.328 230.323 432.746 229.509C429.167 228.695 426.112 228.026 425.954 228.024C425.796 228.019 425.491 227.95 425.277 227.867C425.06 227.786 424.849 227.851 424.807 228.014C424.765 228.179 422.117 227.688 418.919 226.924C415.72 226.161 411.863 225.346 410.345 225.109C408.827 224.875 407.336 224.641 407.033 224.593C406.729 224.545 406.097 224.247 405.625 223.931C405.06 223.556 404.727 223.515 404.652 223.809C404.573 224.115 404.35 224.079 403.961 223.704C403.644 223.396 401.324 222.689 398.77 222.119C396.231 221.555 390.499 220.247 386.03 219.211C367.847 215.003 367.601 214.953 367.628 215.49C367.641 215.772 367.43 215.829 367.156 215.612C366.882 215.396 366.84 215.091 367.062 214.936C367.721 214.475 366.764 214.423 365.503 214.852C364.396 215.227 364.357 215.217 364.844 214.683C365.281 214.202 364.983 214.013 362.888 213.45C358.938 212.387 356.139 211.682 355.686 211.638C355.456 211.617 353.986 211.241 352.423 210.804C350.8 210.35 349.179 210.129 348.639 210.287C347.872 210.514 347.63 210.44 347.349 209.885C347.087 209.37 346.969 209.327 346.862 209.709C346.788 209.986 346.512 210.045 346.25 209.838C345.777 209.462 341.184 207.844 339.14 207.333C335.681 206.466 325.964 204.364 325.084 204.291C324.511 204.244 322.565 203.605 320.76 202.874C318.022 201.761 317.503 201.641 317.624 202.142C317.712 202.499 317.411 202.651 316.888 202.517C316.402 202.392 315.943 202.027 315.865 201.704C315.757 201.265 313.369 200.399 313.276 200.764C313.266 200.802 312.455 200.688 311.469 200.511C310.485 200.335 309.825 200.092 310 199.969C310.176 199.845 308.93 199.422 307.232 199.029C305.537 198.637 303.931 198.106 303.662 197.849C303.396 197.59 302.518 197.452 301.705 197.54C300.891 197.628 299.776 197.509 299.219 197.276C298.664 197.044 297.242 196.559 296.062 196.199C294.879 195.839 293.653 195.338 293.333 195.087C293.003 194.824 292.704 194.824 292.636 195.086C292.549 195.428 292.344 195.367 291.835 194.853C291.45 194.464 291.107 194.334 291.051 194.553C290.95 194.948 280.87 192.256 273.862 189.964C271.969 189.345 268.91 188.43 267.066 187.932C265.219 187.431 263.733 186.936 263.76 186.83C263.787 186.723 262.064 186.143 259.93 185.539C250.583 182.901 244.567 180.957 243.749 180.307C243.428 180.055 243.131 179.987 243.087 180.16C243.043 180.333 241.214 180.015 239.019 179.452C236.827 178.89 235.15 178.348 235.294 178.247C235.436 178.148 233.57 177.521 231.146 176.855C223.769 174.829 222.729 174.495 222.811 174.177C222.854 174.008 222.512 173.774 222.048 173.655C221.577 173.534 221.323 173.666 221.467 173.961C221.628 174.287 221.295 174.176 220.577 173.665C219.588 172.959 216.115 171.882 203.495 168.367C202.684 168.14 202.053 167.837 202.092 167.688C202.129 167.54 201.056 167.187 199.71 166.901C198.361 166.617 197.303 166.216 197.356 166.01C197.409 165.803 196.893 165.546 196.21 165.436C195.529 165.33 194.677 165.007 194.321 164.723C193.913 164.398 193.447 164.36 193.066 164.62C192.564 164.963 192.48 164.934 192.59 164.449C192.691 164.009 192.584 163.956 192.174 164.237C191.74 164.532 190.988 164.314 188.599 163.199C186.935 162.423 184.126 161.347 182.356 160.809C180.587 160.271 178.588 159.587 177.913 159.286C177.237 158.988 174.621 158.11 172.097 157.338C166.371 155.582 163.568 154.559 162.594 153.864C162.177 153.566 161.445 153.374 160.962 153.435C160.482 153.496 158.97 153.121 157.604 152.604C155.922 151.967 155.081 151.8 155.002 152.085C154.926 152.356 154.782 152.302 154.593 151.938C154.435 151.624 153.23 151.053 151.915 150.667C150.601 150.279 149.315 149.784 149.056 149.567C148.795 149.348 147.319 148.821 145.776 148.398C144.234 147.973 142.546 147.325 142.032 146.958C141.346 146.468 140.988 146.4 140.699 146.701C140.445 146.968 140.347 146.892 140.421 146.49C140.502 146.038 139.975 145.719 138.518 145.341C136.068 144.704 135.057 144.246 134.668 143.6C134.486 143.301 134.316 143.308 134.231 143.617C134.157 143.895 133.917 143.983 133.702 143.814C132.992 143.248 130.327 142.156 128.286 141.591C127.18 141.286 126.313 140.895 126.358 140.72C126.403 140.547 126.004 140.334 125.474 140.249C124.416 140.078 122.166 139.111 120.101 137.938C119.37 137.524 117.769 136.878 116.54 136.504C115.308 136.127 114.169 135.549 114.007 135.219C113.774 134.742 113.639 134.707 113.364 135.046C113.099 135.368 112.862 135.286 112.371 134.7C112.019 134.275 111.372 133.819 110.936 133.684C104.676 131.762 102.489 130.836 102.658 130.179C102.706 129.988 102.557 129.814 102.327 129.793C102.095 129.77 101.307 129.462 100.573 129.106C99.8388 128.748 98.3535 128.192 97.2701 127.867C96.1899 127.542 95.1657 126.998 94.9949 126.655C94.8269 126.313 93.7535 125.778 92.6088 125.463C91.4636 125.15 90.4325 124.725 90.3148 124.519C90.2005 124.312 89.0958 123.829 87.8653 123.448C86.632 123.067 85.6658 122.594 85.7135 122.397C85.7634 122.202 85.625 122.111 85.4056 122.199C85.184 122.284 84.4007 121.935 83.6625 121.422C82.9243 120.909 81.8131 120.429 81.1933 120.359C80.4652 120.276 80.0421 119.966 79.9931 119.481C79.9451 118.992 79.4669 118.645 78.6149 118.484C77.8973 118.349 76.9595 117.869 76.5337 117.421C76.1084 116.971 75.2412 116.571 74.6083 116.529C73.9782 116.488 73.6365 116.331 73.8514 116.181C74.0695 116.029 73.8106 115.778 73.2802 115.623C70.3493 114.768 67.6572 113.222 67.521 112.321C67.4878 112.083 66.6865 111.713 65.7434 111.494C64.6499 111.244 64.1587 110.959 64.3837 110.712C64.7844 110.272 61.4921 107.949 60.6658 108.089C60.371 108.139 59.7191 107.69 59.2206 107.09C58.7193 106.489 58.1166 106.031 57.8804 106.07C57.6469 106.11 56.7845 105.726 55.969 105.216C55.1534 104.706 54.8279 104.36 55.2455 104.45C56.3188 104.676 54.1612 102.352 52.2083 101.178C51.3472 100.663 50.6774 100.112 50.7171 99.9568C50.7568 99.8018 49.8994 99.1117 48.8153 98.4228C47.7285 97.7333 46.866 97.063 46.8996 96.9319C46.9332 96.8007 46.1035 96.0139 45.0529 95.1832C44.0028 94.3505 43.1829 93.3989 43.2329 93.0664C43.3959 91.9261 43.8478 91.3555 44.6828 91.2391C45.8221 91.082 46.048 90.0172 44.9379 90.0377C43.4197 90.068 44.168 89.4188 46.7828 88.4346C48.1805 87.9116 49.3837 87.2413 49.4586 86.9491C49.5335 86.6569 49.8654 86.4856 50.1935 86.5697C50.5189 86.6532 50.7157 86.424 50.6268 86.0601C50.5407 85.697 50.732 85.4664 51.0546 85.5491C51.4599 85.653 51.49 85.4785 51.1506 84.9911C50.8512 84.5542 50.884 84.2428 51.2401 84.1836C51.5567 84.1292 51.8746 84.3336 51.9464 84.638C52.0298 85.0004 52.5045 84.9484 53.3255 84.4852C54.349 83.9086 58.8572 82.107 63.268 80.5133C63.7273 80.3493 64.7978 79.9332 65.652 79.5929C66.5067 79.2506 67.9761 78.9408 68.9169 78.9045C70.5705 78.839 73.9833 77.7797 73.217 77.5706C72.3002 77.3186 77.1143 76.7308 78.1943 76.9653C78.8545 77.107 80.7245 76.9191 82.3479 76.5472C85.4138 75.8438 87.3362 75.6354 88.0268 75.9332C88.2492 76.0284 88.6375 75.8779 88.891 75.5997C89.1445 75.3215 89.6838 75.178 90.0863 75.2812C90.9687 75.5074 95.696 75.052 96.2868 74.6844C96.5172 74.5422 96.8548 74.4635 97.0372 74.5082C98.0332 74.7614 99.6636 74.6942 99.7396 74.398C99.788 74.2092 100.189 74.1467 100.633 74.2605C101.733 74.5425 106.079 74.2922 106.169 73.9404C106.209 73.7834 106.539 73.8256 106.9 74.0326C107.264 74.2423 108.288 74.1553 109.18 73.8415C110.52 73.3695 114.838 72.9512 115.834 73.1957C115.98 73.2312 116.587 73.3847 117.177 73.536C117.77 73.6879 118.321 73.5559 118.402 73.2399C118.51 72.8184 118.937 72.8282 120.02 73.2796C120.995 73.6841 121.834 73.7573 122.507 73.4934C123.066 73.2744 123.782 73.1615 124.099 73.2428C124.416 73.3241 124.713 73.2434 124.759 73.0645C124.914 72.4622 128.059 72.4359 129.937 73.019C131.417 73.481 131.655 73.468 131.102 72.9554C130.552 72.4436 130.711 72.442 131.869 72.9424C132.761 73.3257 133.246 73.3949 133.109 73.1162C132.779 72.4447 135.016 72.6135 135.997 73.3354C136.972 74.0512 140.036 73.9046 140.249 73.1309C140.334 72.8222 140.525 72.9116 140.8 73.3866C141.121 73.9369 141.319 74.0131 141.623 73.6971C141.841 73.4669 142.219 73.4367 142.461 73.6279C142.702 73.8192 143.696 73.7962 144.666 73.5748C146.641 73.1277 147.389 73.1776 146.63 73.7095C146.286 73.9518 146.446 74.0586 147.131 74.0457C147.687 74.0355 148.302 74.0641 148.501 74.113C148.698 74.1592 148.611 73.9949 148.304 73.7468C147.929 73.4431 148.215 73.2579 149.165 73.1858C149.947 73.1257 150.41 73.1999 150.195 73.3503C149.565 73.7924 150.778 73.9318 151.794 73.5354C152.303 73.3356 152.851 73.3299 153.016 73.5246C153.177 73.7206 153.602 73.6812 153.958 73.4378C154.396 73.1371 154.569 73.1516 154.49 73.4811C154.343 74.0895 154.929 74.246 157.014 74.1597C157.911 74.1227 159.261 74.2103 160.015 74.3527C160.765 74.4965 161.39 74.5804 161.4 74.5426C161.41 74.5029 161.797 74.5067 162.259 74.5509C162.721 74.5932 163.856 74.7041 164.78 74.7926C167.114 75.0181 168.125 75.0885 168.305 75.0374C168.536 74.9717 169.49 75.0573 170.367 75.2249C170.799 75.3059 171.609 75.1937 172.171 74.9734C172.824 74.7172 173.635 74.7747 174.427 75.1385C175.103 75.4474 176.383 75.6909 177.268 75.6763C178.156 75.6625 179.88 75.8036 181.102 75.9897C182.326 76.1784 183.582 76.1382 183.896 75.9028C184.267 75.6231 185.001 75.684 186.001 76.0803C186.87 76.426 187.581 76.5193 187.638 76.2966C187.694 76.0799 188.183 76.0168 188.726 76.1561C189.269 76.2953 189.913 76.329 190.158 76.2349C190.867 75.9569 192.424 76.2884 192.963 76.8334C193.594 77.4695 195.902 77.6354 196.062 77.0558C196.134 76.8008 196.322 76.8914 196.515 77.2735C196.751 77.7387 197.401 77.9899 198.729 78.1291C199.762 78.2371 201.154 78.4584 201.821 78.6168C202.491 78.7779 203.068 78.7966 203.103 78.6595C203.138 78.5223 203.717 78.535 204.386 78.6895C205.776 79.0098 210.343 79.7632 213.617 80.2105C214.831 80.3778 215.865 80.3675 215.911 80.1886C215.958 80.0077 216.328 80.0519 216.736 80.2855C217.143 80.5192 218.92 80.7522 220.685 80.8002C223.215 80.8723 224.082 81.0417 224.787 81.6038C225.897 82.4919 226.739 82.7268 226.877 82.1861C226.935 81.9595 226.731 81.8181 226.423 81.8707C226.116 81.9232 225.768 81.7683 225.65 81.5264C225.397 81.0144 226.464 81.3558 227.362 82.0731C227.713 82.3518 228.37 82.4482 228.883 82.2956C229.381 82.1501 229.755 82.1591 229.714 82.3181C229.673 82.4771 229.988 82.5112 230.412 82.3932C230.836 82.2772 232.805 82.6528 234.791 83.2296C237.208 83.932 238.432 84.1334 238.507 83.8392C238.587 83.5291 238.772 83.5851 239.145 84.0324C239.849 84.8738 240.503 85.0074 240.673 84.3435C240.778 83.932 241.219 83.9792 242.501 84.5387C243.428 84.9458 244.685 85.3254 245.295 85.3865C245.906 85.4456 247.437 85.7447 248.701 86.0499C249.966 86.357 251.049 86.4166 251.115 86.1854C251.18 85.9543 251.404 86.088 251.611 86.4823C251.853 86.9383 252.177 87.0955 252.497 86.9127C252.938 86.6613 254.634 86.969 262.78 88.7796C263.677 88.98 264.591 89.0384 264.812 88.9107C265.033 88.781 265.915 88.8735 266.769 89.1159C269.419 89.863 270.846 90.2351 275.841 91.4733C280.058 92.5181 280.871 92.6035 282.178 92.1357C283.194 91.7713 283.57 91.7703 283.347 92.1348C283.145 92.4643 283.344 92.6974 283.863 92.7372C284.327 92.7735 285.797 93.0803 287.132 93.4205C288.464 93.7599 289.988 93.9918 290.517 93.9346C291.177 93.8621 291.814 94.1823 292.542 94.945L293.604 96.0606L294.309 95.3874C294.695 95.0161 295.396 94.8164 295.868 94.944C296.572 95.1349 296.512 95.2298 295.534 95.4791C294.369 95.7734 294.368 95.788 295.52 96.0835C296.284 96.2793 296.765 96.1462 296.883 95.7083C296.987 95.3261 297.196 95.2441 297.363 95.522C297.713 96.1033 305.43 98.1555 305.547 97.7003C305.591 97.5254 305.889 97.5911 306.207 97.842C306.756 98.2793 308.798 98.7964 311.212 99.1123C311.823 99.1907 312.693 99.5131 313.147 99.8286C313.653 100.181 314.142 100.279 314.421 100.085C314.668 99.9115 315.287 99.9834 315.798 100.248C316.31 100.51 316.893 100.609 317.097 100.468C317.441 100.224 319.137 100.671 321.443 101.612C321.999 101.839 322.498 102.253 322.548 102.531C322.6 102.809 322.857 103.091 323.119 103.158C323.381 103.225 323.527 102.998 323.443 102.65C323.331 102.191 323.576 102.155 324.35 102.516C324.932 102.788 325.26 103.116 325.081 103.242C324.898 103.369 326.027 103.757 327.589 104.107C329.153 104.457 330.698 104.999 331.026 105.312C331.43 105.698 331.843 105.795 332.31 105.612C333.124 105.293 334.429 105.954 335.133 107.039C335.583 107.737 335.649 107.751 335.812 107.185C336.027 106.427 337.61 106.466 338.976 107.257C339.897 107.792 339.88 107.813 338.718 107.542C338.031 107.381 337.567 107.449 337.684 107.69C337.939 108.207 340.828 108.641 341.193 108.215C341.331 108.057 342.065 108.218 342.823 108.576C343.583 108.934 347.264 110.002 351.006 110.949C356.804 112.416 357.753 112.748 357.433 113.196C357.126 113.625 357.202 113.637 357.859 113.267C358.588 112.852 358.818 112.917 360.425 113.995C361.396 114.646 362.295 115.058 362.423 114.915C362.548 114.772 363.202 114.878 363.875 115.154C364.548 115.428 365.591 115.602 366.194 115.541C367.443 115.414 370.671 116.795 370.519 117.389C370.466 117.596 370.665 117.829 370.963 117.905C371.258 117.981 371.565 117.789 371.644 117.481C371.769 116.994 372.031 117.063 373.583 118.001C375.405 119.101 376.733 119.249 375.46 118.209C374.984 117.82 375.342 117.865 376.588 118.349C379.314 119.408 379.792 119.707 379.313 120.042C379.073 120.211 379.119 120.409 379.416 120.485C379.712 120.561 380.108 120.517 380.295 120.384C380.484 120.253 381.565 120.335 382.701 120.567C383.835 120.8 384.542 121.077 384.275 121.182C384.007 121.287 385.015 121.929 386.513 122.607C390.697 124.5 392.105 124.979 392.215 124.55C392.372 123.94 395.598 125.326 395.958 126.158C396.133 126.563 396.536 126.85 396.849 126.797C397.166 126.743 397.303 126.45 397.158 126.143C396.958 125.719 397.052 125.741 397.557 126.235C397.922 126.591 399.094 127.106 400.162 127.377C401.232 127.652 403.479 128.459 405.155 129.174C406.832 129.888 409.036 130.749 410.053 131.091C413.334 132.186 415.06 132.8 415.312 132.964C415.703 133.217 417.522 133.961 418.818 134.397C419.473 134.615 419.974 134.93 419.931 135.097C419.889 135.262 420.368 135.47 420.994 135.56C421.623 135.65 424.062 136.465 426.412 137.373C428.765 138.281 430.987 139.126 431.349 139.253C431.71 139.379 431.975 139.608 431.936 139.759C431.868 140.024 434.525 141.766 435.621 142.176C435.908 142.284 437.433 142.893 439.004 143.528C440.578 144.163 442.819 144.956 443.989 145.289C445.155 145.622 446.215 146.106 446.343 146.365C446.468 146.622 447.26 147.098 448.097 147.421C448.937 147.744 450.197 148.283 450.902 148.618C451.603 148.955 452.415 149.32 452.701 149.427C452.991 149.535 453.562 149.819 453.974 150.058C454.388 150.298 456.009 151.025 457.58 151.673C461.368 153.242 467.405 156.285 468.137 156.996C468.459 157.309 468.896 157.496 469.111 157.413C469.324 157.33 469.92 157.561 470.437 157.929C471.316 158.556 472.592 159.195 474.406 159.914C476.436 160.72 478.358 161.658 479.147 162.227C479.623 162.569 480.249 162.81 480.538 162.761C480.826 162.712 481.098 162.867 481.144 163.103C481.189 163.339 482.022 163.805 482.992 164.136C483.964 164.47 484.871 164.957 485.012 165.22C485.15 165.484 485.623 165.802 486.064 165.928C486.505 166.056 487.547 166.53 488.376 166.986C489.206 167.441 490.521 168.076 491.299 168.399C493.015 169.11 494.558 170.978 493.966 171.625C493.627 171.997 493.826 172.093 494.897 172.075C497.134 172.038 497.617 173.181 495.712 174.008C494.412 174.573 494.119 175.661 495.4 175.157C495.635 175.065 496.257 175.046 496.783 175.115C499.993 175.536 501.295 175.83 500.969 176.061C500.761 176.205 500.977 176.612 501.445 176.967C502.254 177.579 502.246 177.601 501.311 177.374C500.664 177.214 500.33 177.383 500.34 177.86C500.35 178.348 500.803 178.678 501.707 178.856C506.592 179.825 508.172 179.414 509.02 176.958C509.113 176.683 509.406 176.631 509.67 176.839C509.932 177.046 510.194 177.032 510.252 176.806C510.31 176.579 510.671 176.475 511.058 176.574C511.441 176.672 512.529 176.211 513.471 175.548C514.414 174.886 515.597 174.445 516.1 174.568C517.425 174.89 517.794 174.449 517.441 172.958C517.171 171.813 517.312 171.572 518.508 171.101C519.265 170.806 519.979 170.2 520.092 169.759C520.205 169.318 520.657 168.667 521.094 168.313C521.736 167.793 521.727 167.394 521.044 166.275C520.142 164.796 520.299 162.807 521.297 163.062C521.625 163.147 521.823 162.926 521.736 162.576C521.634 162.149 521.824 162.075 522.308 162.351C522.764 162.614 523.095 162.526 523.2 162.116C523.292 161.758 523.798 161.297 524.324 161.089C525.847 160.492 526.166 156.909 524.76 156.167C524.256 155.9 524.117 156.028 524.263 156.629C524.412 157.249 524.335 157.31 523.959 156.862C523.583 156.416 523.685 156.108 524.369 155.632C525.544 154.819 524.788 153.594 523.369 154.016C522.651 154.228 522.586 154.116 522.997 153.381C523.745 152.047 523.675 151.989 512.739 144.714C510.746 143.387 508.249 142.169 507.255 142.035C506.874 141.986 506.616 141.731 506.682 141.472C506.748 141.214 506.62 141.073 506.401 141.161C506.178 141.248 505.568 141.015 505.047 140.642C504.525 140.271 503.49 139.722 502.749 139.426C502.006 139.128 501.171 138.704 500.89 138.482C500.609 138.259 499.671 137.951 498.805 137.799C497.943 137.645 497.414 137.393 497.632 137.24C497.85 137.088 497.741 136.873 497.389 136.766C494.254 135.814 489.516 133.57 488.016 132.328C486.92 131.42 485.343 130.706 482.415 129.793C481.536 129.521 480.605 129.129 480.34 128.926C479.756 128.475 477.207 127.277 475.608 126.703C474.594 126.339 473.097 125.61 469.862 123.901C468.899 123.394 468.06 123.043 465.456 122.06C464.307 121.626 463.026 121.073 462.615 120.832C460.902 119.831 458.663 118.859 456.088 118C453.119 117.008 451.294 116.263 450.715 115.805C450.129 115.341 448.666 114.72 445.557 113.62C444.271 113.166 443.013 112.629 442.759 112.429C442.507 112.231 441.806 111.881 441.203 111.655C440.6 111.43 439.759 111.088 439.335 110.894C438.277 110.413 434.203 108.859 432.277 108.2C431.407 107.902 430.703 107.622 430.714 107.581C430.725 107.537 430.022 107.263 429.148 106.97C428.278 106.674 426.027 105.881 424.15 105.205C422.272 104.529 419.341 103.619 417.636 103.182C415.935 102.746 414.563 102.297 414.592 102.183C414.622 102.07 413.306 101.608 411.67 101.157C410.034 100.706 408.436 100.076 408.121 99.7555C407.148 98.7729 398.848 96.7365 397.057 97.042C396.658 97.1092 396.43 96.9195 396.513 96.5935C396.593 96.2834 396.121 95.8678 395.458 95.6683C394.8 95.4721 393.057 94.9575 391.588 94.5302C390.12 94.103 388.806 93.565 388.668 93.3347C388.531 93.1045 387.851 92.9831 387.159 93.0665C386.148 93.1842 385.927 93.1044 386.041 92.6591C386.225 91.9415 384.998 91.2392 384.145 91.5735C383.769 91.7209 383.212 91.614 382.848 91.3238C381.915 90.576 380.961 90.2849 380.506 90.6046C380.284 90.7596 379.904 90.7259 379.66 90.534C379.416 90.34 379.154 90.4086 379.077 90.6875C378.966 91.0955 378.88 91.0756 378.63 90.5836C378.338 90.0151 373.109 88.1428 369.411 87.2861C368.554 87.0876 366.457 86.279 364.75 85.4876C362.257 84.3338 361.535 84.1273 361.083 84.4331C360.683 84.7078 360.554 84.6852 360.63 84.3531C360.704 84.0436 359.579 83.5922 357.241 82.9928C355.317 82.4995 353.702 82.2403 353.657 82.4152C353.613 82.5901 352.68 82.2495 351.585 81.6595C348.709 80.1108 302.215 67.1015 301.108 67.5357ZM310.439 92.9425C310.239 93.0818 309.31 92.9793 308.37 92.715C306.769 92.2664 306.752 92.2409 308.079 92.3035C309.983 92.3954 310.876 92.6371 310.439 92.9425ZM316.104 94.5832C315.972 95.1 315.819 95.0884 315.259 94.5232C314.883 94.143 314.592 93.7675 314.612 93.686C314.633 93.6045 315.014 93.6322 315.458 93.746C315.902 93.8598 316.193 94.2373 316.104 94.5832ZM321.685 97.4373C321.633 97.6381 321.106 97.6766 320.513 97.5247C319.923 97.3734 319.473 97.1118 319.517 96.9429C319.559 96.7759 320.087 96.7353 320.685 96.8548C321.286 96.9749 321.736 97.2365 321.685 97.4373ZM192.782 65.1822C192.73 65.3869 192.156 65.6191 191.505 65.6957C190.083 65.8631 190.046 65.6185 191.415 65.0817C192.572 64.6283 192.918 64.6534 192.782 65.1822ZM197.604 66.5262C197.543 66.7627 197.372 66.81 197.222 66.6295C197.073 66.4516 196.512 66.4751 195.976 66.6852C195.195 66.9913 194.943 66.9456 194.701 66.4537C194.532 66.1159 194.643 65.797 194.941 65.7463C195.946 65.5759 197.715 66.0928 197.604 66.5262ZM318.73 98.2328C318.899 98.4349 317.966 98.3356 316.654 98.0118C314.819 97.5584 314.424 97.3449 314.94 97.0853C315.607 96.7521 318.121 97.5132 318.73 98.2328ZM272.462 86.6137C271.833 87.302 272.827 87.8957 275.803 88.6078C277.78 89.0806 278.408 89.3815 278.301 89.8009C278.213 90.1428 277.862 90.1947 277.406 89.9337C276.967 89.6837 276.596 89.722 276.512 90.0287C276.396 90.4566 276.308 90.432 276.031 89.8864C275.769 89.3702 274.861 89.0632 272.014 88.5346C269.882 88.1385 267.954 87.5786 267.425 87.2014C266.801 86.7577 266.478 86.677 266.407 86.9513C266.351 87.1719 265.88 87.2419 265.363 87.1051C264.559 86.8927 264.554 86.8321 265.326 86.6888C266.138 86.5348 265.86 86.2326 264.764 86.081C264.534 86.0496 264.392 85.8479 264.447 85.6352C264.501 85.4225 263.942 85.0928 263.2 84.9026C261.549 84.4793 261.235 85.1171 262.807 85.7042C264.932 86.4946 264.185 87.0448 261.978 86.3136C260.198 85.726 259.88 85.7272 260.022 86.3187C260.212 87.0918 259.215 87.0395 258.83 86.2568C258.699 85.992 258.343 85.8184 258.042 85.8704C257.738 85.9217 257.702 85.7302 257.963 85.4435C258.384 84.9836 259.434 84.9795 260.625 85.4351C260.839 85.5155 261.117 85.1905 261.24 84.7094C261.449 83.8924 261.707 83.895 265.25 84.748C268.234 85.4663 269.003 85.7779 268.889 86.2212C268.81 86.5313 269.018 86.7393 269.353 86.6811C269.688 86.625 269.873 86.397 269.765 86.1745C269.655 85.9513 270.012 85.7971 270.558 85.8333C272.428 85.9547 272.891 86.1453 272.462 86.6137ZM280.675 89.1025C280.682 89.8522 281.359 90.1019 284.562 90.5268C285.698 90.6783 286.54 90.6165 286.427 90.3906C286.124 89.7728 287.07 90.119 287.677 90.8465C288.086 91.337 288.238 91.3526 288.355 90.9167C288.487 90.4397 288.566 90.4622 288.889 91.0724C289.202 91.6611 289.378 91.719 289.867 91.3931C290.353 91.0686 290.493 91.1172 290.625 91.6593C290.726 92.0773 291.217 92.3514 291.949 92.3971C292.61 92.4416 293.066 92.66 293.002 92.9065C292.941 93.1451 292.285 93.1844 291.546 92.9949C289.602 92.4966 289.455 92.4844 288.583 92.744C287.989 92.9199 287.91 92.8489 288.266 92.4592C288.657 92.032 288.368 91.8773 286.638 91.5885C282.886 90.9637 278.048 89.6408 279.358 89.5974C281.026 89.5441 280.073 88.8466 277.677 88.37C275.063 87.8483 273.77 87.3346 273.89 86.8654C274.054 86.2254 280.668 88.4079 280.675 89.1025ZM189.139 65.3753C188.592 65.3411 188.241 65.5074 188.361 65.75C188.479 65.9899 188.333 66.1241 188.038 66.0484C187.332 65.8675 186.984 65.1385 187.506 64.9356C187.729 64.8465 188.414 64.9246 189.025 65.1088C189.934 65.38 189.954 65.4295 189.139 65.3753ZM284.049 89.7747C284.002 89.9596 283.378 89.8716 282.663 89.5781C281.95 89.2873 281.382 88.9808 281.403 88.8993C281.424 88.8178 282.048 88.9057 282.787 89.0951C283.528 89.2852 284.096 89.5918 284.049 89.7747ZM176.118 62.5797C175.848 63.324 176.123 63.4538 176.959 62.9776C177.896 62.4403 177.917 62.4499 177.61 63.3054C177.435 63.7923 176.783 64.2481 176.165 64.3225C175.362 64.4155 175.177 64.3575 175.514 64.1198C176.216 63.6302 175.297 63.5112 173.638 63.8759C172.837 64.0521 172.412 64.0364 172.691 63.841C172.971 63.6457 172.94 63.4197 172.629 63.3399C172.315 63.2593 171.988 63.4659 171.903 63.7979C171.818 64.1318 171.523 64.2258 171.247 64.0088C170.974 63.7905 170.304 63.6294 169.761 63.6511C169.217 63.6728 168.152 63.5969 167.392 63.4783C164.573 63.0459 163.159 62.8762 159.879 62.5712C158.028 62.3976 156.341 62.1792 156.128 62.0822C155.918 61.9859 155.697 62.0923 155.638 62.3189C155.58 62.5455 155.308 62.5521 155.032 62.3331C154.759 62.1167 154.087 61.9616 153.543 61.9893C152.235 62.0586 151.143 61.9397 151.196 61.733C151.293 61.3533 155.038 60.9829 155.589 61.2978C155.919 61.4884 156.558 61.3111 157.012 60.9043C157.463 60.4987 157.803 60.3508 157.767 60.5744C157.687 61.0814 162.049 61.9329 162.177 61.4359C162.227 61.2411 162.846 61.3469 163.551 61.6695C164.342 62.0333 164.879 62.0947 164.947 61.8283C165.008 61.5918 165.234 61.4655 165.448 61.5479C166.562 61.9731 167.234 61.8848 167.448 61.2874C167.663 60.6794 167.691 60.6844 167.757 61.3453C167.816 61.9495 168.06 62.0523 169.268 61.9721C170.338 61.9011 170.553 61.742 170.105 61.3541C169.733 61.0319 170.126 61.0904 171.144 61.5102C172.044 61.883 172.938 62.0761 173.131 61.9413C173.504 61.6789 176.232 62.2615 176.118 62.5797ZM186.386 65.5126C186.288 65.8943 185.789 65.8787 184.679 65.4542C183.816 65.1272 183.067 65.0241 183.015 65.2269C182.963 65.4296 182.639 65.285 182.296 64.9027C181.772 64.3214 181.956 64.2457 183.42 64.4368C186.145 64.7899 186.534 64.9322 186.386 65.5126ZM220.991 74.358C220.591 74.3699 220.359 74.5753 220.477 74.8132C220.593 75.0504 220.419 75.1775 220.089 75.0927C219.758 75.0078 219.589 75.149 219.717 75.4063C219.847 75.6684 219.625 75.6876 219.209 75.4499C218.369 74.9696 220.111 73.8252 221.171 74.1605C221.472 74.2568 221.388 74.3434 220.991 74.358ZM179.942 64.5938C180.033 64.973 179.804 65.179 179.401 65.0758C179.015 64.9769 178.768 64.6339 178.85 64.3139C178.932 63.9938 179.176 63.7767 179.391 63.8318C179.606 63.887 179.853 64.2299 179.942 64.5938ZM200.878 70.7296C200.829 71.7107 198.721 71.7613 198.625 70.7854C198.556 70.0899 198.66 70.0529 199.189 70.589C199.719 71.1232 199.88 71.0797 200.066 70.3542C200.297 69.4557 200.927 69.7486 200.878 70.7296ZM330.735 103.411C330.849 103.644 330.581 103.842 330.137 103.851C329.293 103.868 328.751 103.46 328.891 102.913C329.002 102.48 330.469 102.877 330.735 103.411ZM234.389 79.0296C234.157 79.1206 234.178 79.4987 234.435 79.8698C234.789 80.382 234.707 80.4945 234.089 80.3362C233.643 80.2217 233.242 79.746 233.197 79.279C233.14 78.6968 233.379 78.4995 233.961 78.6487C234.427 78.7681 234.618 78.94 234.389 79.0296ZM206.746 72.4499C206.223 72.8158 204.072 72.6457 204.174 72.2461C204.22 72.0672 204.7 71.9507 205.243 71.9862C206.888 72.0922 207.144 72.1706 206.746 72.4499ZM226.548 77.6467C226.204 77.887 226.359 77.9944 227.03 77.9799C227.62 77.9702 227.847 78.0834 227.592 78.2618C227.076 78.6252 225.58 78.2926 225.696 77.8394C225.782 77.5054 226.472 77.142 226.841 77.2367C226.957 77.2664 226.825 77.4507 226.548 77.6467ZM197.627 70.9173C197.48 71.4918 197.131 71.5105 195.798 71.0141C194.658 70.5884 194.235 70.5667 194.416 70.9373C194.563 71.2335 194.424 71.4097 194.11 71.3291C193.798 71.2492 193.612 70.8753 193.697 70.4987C193.837 69.8929 193.762 69.8651 193.045 70.2428C192.6 70.4782 191.83 70.5012 191.332 70.2907C190.833 70.0823 190.376 70.0967 190.318 70.3233C190.26 70.5519 189.685 70.5253 189.04 70.2648C188.399 70.005 187.693 69.7309 187.474 69.6578C187.257 69.5853 187.128 69.3339 187.189 69.0973C187.249 68.8608 187.609 68.845 187.988 69.0629C188.367 69.2808 189.66 69.5318 190.86 69.6211C192.057 69.7097 193.711 69.905 194.531 70.0537C195.353 70.2032 196.223 70.2482 196.468 70.1521C197.269 69.8383 197.812 70.1957 197.627 70.9173ZM237.397 81.6373C236.47 81.6646 235.844 81.4935 235.545 81.1351C235.235 80.7632 235.673 80.7506 236.943 81.093C238.685 81.565 238.712 81.5973 237.397 81.6373ZM185.437 69.7414C185.165 70.2268 184.75 70.472 184.513 70.2842C184.276 70.0963 184.266 69.8161 184.485 69.6605C185.212 69.152 184.157 69.174 183.259 69.6852C182.45 70.1472 182.407 70.1213 182.681 69.3592C182.845 68.9053 183.152 68.6685 183.362 68.8347C183.569 69.0021 183.948 68.9107 184.201 68.6345C184.944 67.8229 185.988 68.7599 185.437 69.7414ZM181.783 69.0337C181.923 69.3151 181.743 69.663 181.386 69.8026C180.942 69.9768 180.607 69.7469 180.336 69.0843C179.905 68.0268 181.263 67.9788 181.783 69.0337ZM149.443 61.7604C148.482 62.2427 147.693 62.0552 146.676 61.104C146.017 60.4881 146.213 60.4557 148.074 60.8756C149.908 61.2905 150.114 61.424 149.443 61.7604ZM145.213 61.9619C145.03 62.0356 144.487 61.778 144.011 61.389C143.238 60.7607 143.242 60.7341 144.031 61.1379C144.536 61.3942 144.992 61.3905 145.083 61.1278C145.199 60.7996 145.293 60.8363 145.399 61.247C145.485 61.5676 145.399 61.8889 145.213 61.9619ZM174.635 68.8113C174.511 69.2943 172.105 69.1329 170.871 68.5602C170.341 68.312 170.696 68.2994 171.696 68.5281C172.665 68.7489 173.5 68.7555 173.555 68.5428C173.61 68.3281 173.897 68.2154 174.195 68.2918C174.49 68.3674 174.689 68.6025 174.635 68.8113ZM452.444 140.207C452.841 140.779 452.757 140.853 452.019 140.579C451.515 140.391 451.06 140.01 451.008 139.733C450.88 139.027 451.85 139.348 452.444 140.207ZM141.576 61.2032C141.535 61.3602 142.073 61.532 142.768 61.585C144.299 61.7 144.057 61.8074 141.26 62.2514C139.547 62.5242 139.145 62.4762 139.263 62.019C139.344 61.7029 139.603 61.494 139.84 61.5548C140.08 61.6163 140.208 61.4014 140.13 61.0782C140.048 60.7438 140.348 60.5813 140.82 60.7022C141.275 60.8188 141.616 61.0441 141.576 61.2032ZM427.962 135.65C429.071 135.917 430.034 136.357 430.101 136.624C430.219 137.116 428.273 136.579 424.603 135.111C423.436 134.642 423.118 134.368 423.637 134.281C424.068 134.207 424.759 134.375 425.178 134.654C425.597 134.933 426.849 135.381 427.962 135.65ZM434.132 137.221C434.505 137.67 435.483 138.315 436.306 138.657C437.126 138.999 437.734 139.53 437.655 139.836C437.573 140.156 437.281 140.208 436.966 139.958C436.663 139.719 435.796 139.329 435.034 139.09C431.648 138.027 431.722 138.073 432.486 137.453C432.886 137.132 433.086 136.717 432.933 136.534C432.78 136.351 432.836 136.249 433.054 136.305C433.271 136.36 433.756 136.773 434.132 137.221ZM187.6 74.2107C188.124 74.6417 187.743 74.6499 186.157 74.2435C184.569 73.8363 184.239 73.6458 184.906 73.5202C185.403 73.4272 186.053 73.4138 186.351 73.4901C186.646 73.5657 187.209 73.8902 187.6 74.2107ZM550.936 167.805C550.148 168.003 549.429 168.079 549.341 167.974C549.049 167.626 550.85 167.052 551.62 167.249C552.074 167.365 551.803 167.586 550.936 167.805ZM468.295 147.54C468.736 147.966 469.08 148.01 469.536 147.699C469.885 147.46 470.123 147.459 470.068 147.695C470.014 147.929 470.468 148.442 471.076 148.833C472.116 149.498 472.086 149.511 470.588 149.064C469.708 148.802 468.528 148.249 467.963 147.838C467.402 147.425 466.788 147.149 466.602 147.222C466.416 147.295 466.168 147.162 466.051 146.928C465.757 146.332 467.554 146.822 468.295 147.54ZM130.279 61.4236C130.715 61.673 131.032 62.0297 130.984 62.2145C130.937 62.4014 130.36 62.245 129.698 61.8678C129.039 61.4914 128.283 61.2551 128.019 61.3443C127.755 61.4334 127.77 61.3312 128.05 61.1192C128.623 60.6875 129.116 60.7569 130.279 61.4236ZM494.784 155.423C495.696 155.968 495.695 156.021 494.766 156.054C493.325 156.104 493.382 156.604 494.896 157.223C495.79 157.587 496.241 157.582 496.338 157.202C496.415 156.9 496.696 156.824 496.963 157.034C497.229 157.246 497.288 157.533 497.091 157.669C496.894 157.807 497.084 158.12 497.514 158.368C498.104 158.706 498.259 158.614 498.156 157.986C498.034 157.235 498.138 157.232 499.272 157.963C499.963 158.409 500.357 158.961 500.15 159.192C499.941 159.425 500.142 159.707 500.594 159.823C501.049 159.94 501.208 160.181 500.946 160.364C500.609 160.602 500.344 160.534 500 160.122C499.241 159.211 497.44 158.9 497.637 159.713C497.767 160.248 497.57 160.283 496.771 159.87C496.199 159.578 495.322 159.459 494.819 159.609C494.071 159.831 493.989 159.786 494.366 159.37C494.683 159.026 494.429 158.677 493.58 158.288C492.251 157.68 491.707 156.054 492.823 156.036C493.23 156.031 493.13 155.687 492.563 155.135L491.642 154.245L492.716 154.537C493.304 154.696 494.236 155.096 494.784 155.423ZM479.352 152.541C480.634 153.054 481.124 153.423 480.726 153.579C480.327 153.736 479.758 153.573 479.124 153.12C478.389 152.597 478.054 152.526 477.797 152.842C477.553 153.141 477.222 152.986 476.665 152.318C476.229 151.795 475.504 151.377 475.052 151.386C474.565 151.394 474.421 151.271 474.696 151.079C474.951 150.9 475.654 150.977 476.26 151.248C476.866 151.52 478.257 152.101 479.352 152.541ZM124.958 63.3368C124.913 63.5117 122.549 63.7108 121.291 63.6446C121.059 63.6317 120.798 63.6411 120.713 63.6657C120.627 63.6884 120.059 63.6486 119.446 63.5741C118.341 63.437 118.342 63.435 119.539 63.1425C120.204 62.9802 121.036 63.0134 121.386 63.2156C121.737 63.4178 122.067 63.4261 122.116 63.2353C122.165 63.0445 122.647 62.916 123.191 62.9515C124.714 63.0497 125.014 63.1161 124.958 63.3368ZM551.347 174.5C552.09 174.926 552.502 175.349 552.263 175.445C551.617 175.696 549.149 175.098 548.922 174.631C548.811 174.409 548.995 174.3 549.326 174.385C549.657 174.469 549.823 174.326 549.693 174.066C549.402 173.47 549.658 173.538 551.347 174.5ZM148.011 71.9218C147.974 72.0649 147.638 72.1144 147.266 72.0296C146.047 71.7551 143.55 71.5451 142.782 71.6532C142.364 71.7114 142.604 71.5208 143.31 71.2315C144.512 70.7388 148.176 71.2777 148.011 71.9218ZM136.462 69.9507C136.441 70.0342 135.69 69.9943 134.795 69.8623C133.897 69.7317 133.325 69.5129 133.518 69.3761C133.866 69.1326 136.538 69.6565 136.462 69.9507ZM111.299 71.3619C110.847 71.5552 110.195 71.5534 109.85 71.3546C108.814 70.7629 109.261 70.4517 110.739 70.7395C111.887 70.9617 111.983 71.0669 111.299 71.3619ZM95.9806 71.7291C95.7551 71.9785 95.2424 71.9953 94.8451 71.7685C94.4483 71.5397 93.5485 71.4044 92.8452 71.4656C91.7508 71.5621 91.7861 71.5161 93.0941 71.148C94.814 70.6632 96.622 71.0271 95.9806 71.7291ZM91.2059 71.8652C91.1667 72.0182 90.5066 72.0714 89.7356 71.984C88.6968 71.8638 88.5055 71.7386 88.9907 71.4964C89.6987 71.142 91.3221 71.4119 91.2059 71.8652ZM534.94 186.28C533.74 186.318 533.951 186.997 535.256 187.295C535.924 187.45 536.193 187.408 535.849 187.206C535.504 187.001 535.4 186.709 535.618 186.558C536.048 186.257 536.018 186.245 534.94 186.28ZM494.183 176.798C494.128 177.013 494.447 177.281 494.891 177.395C495.335 177.509 495.743 177.427 495.799 177.212C495.853 177 495.534 176.732 495.09 176.618C494.646 176.504 494.237 176.586 494.183 176.798ZM553.25 193.444C552.641 195.065 552.12 195.374 551.63 194.41C551.333 193.825 551.252 193.8 551.126 194.257C551.045 194.561 550.862 194.668 550.723 194.499C550.581 194.329 550.501 194.046 550.547 193.867C550.592 193.69 550.434 193.262 550.194 192.917C549.957 192.57 549.972 192.339 550.232 192.401C550.492 192.466 550.384 192.254 549.993 191.933C549.374 191.425 549.395 191.377 550.163 191.57C550.647 191.69 551.083 192.189 551.13 192.68C551.232 193.74 552.414 193.679 552.69 192.601C552.797 192.186 553.082 191.897 553.325 191.959C553.568 192.021 553.532 192.69 553.25 193.444ZM555.935 195.615C555.827 196.034 554.662 195.685 553.803 194.977C553.26 194.529 553.435 194.5 554.552 194.852C555.357 195.105 555.978 195.448 555.935 195.615ZM571.368 202.584C571.792 203.199 571.737 203.299 571.073 203.128C570.623 203.013 570.183 202.623 570.094 202.257C570.008 201.894 570.138 201.65 570.389 201.714C570.64 201.778 571.081 202.169 571.368 202.584ZM578.606 208.004C578.766 208.378 578.502 208.778 577.979 208.962C577.22 209.227 577.038 209.066 576.81 207.938C576.63 207.057 576.178 206.507 575.483 206.329C574.901 206.18 574.61 205.929 574.835 205.773C575.348 205.413 578.23 207.12 578.606 208.004ZM582.813 211.504C583.84 212.21 584.83 212.728 585.013 212.657C585.198 212.586 585.476 212.786 585.633 213.104C585.814 213.474 585.719 213.524 585.367 213.245C585.039 212.988 584.752 213.056 584.659 213.416C584.415 214.37 583.176 213.792 581.609 211.994C580.817 211.085 579.784 210.183 579.314 209.989C578.841 209.795 578.339 209.586 578.196 209.526C578.056 209.465 578.479 209.279 579.137 209.11C580.199 208.84 580.372 208.887 580.644 209.512C580.812 209.9 581.79 210.797 582.813 211.504ZM587.413 215.799C589.191 218.056 587.792 218.515 585.933 216.287C585.309 215.535 584.534 214.856 584.217 214.775C583.842 214.678 583.928 214.48 584.455 214.215C585.598 213.641 585.799 213.75 587.413 215.799ZM23.7989 73.6878C23.197 74.1097 22.5719 73.2928 23.0741 72.7436C23.4458 72.3368 23.6141 72.3566 23.8506 72.8325C24.0147 73.1669 23.9921 73.553 23.7989 73.6878ZM590.516 219.215C589.414 219.263 589.973 220.004 591.141 220.043C591.888 220.067 592.164 220.169 591.802 220.286C591.462 220.398 590.994 220.596 590.766 220.728C590.536 220.858 589.798 220.353 589.129 219.605C588.13 218.492 588.06 218.183 588.734 217.892C589.43 217.596 589.669 217.67 590.266 218.367C590.655 218.823 590.768 219.206 590.516 219.215ZM24.0978 75.3299C24.7403 75.4946 24.7259 75.6541 24.0065 76.2365C23.5275 76.6264 23.1312 77.0374 23.129 77.1492C23.1291 77.2636 22.9684 77.4088 22.7727 77.473C22.5775 77.5353 22.6527 77.2304 22.9414 76.7918C23.2274 76.3525 23.2456 75.9377 22.9754 75.8684C22.7079 75.7998 22.607 75.3566 22.7552 74.882C22.9005 74.4066 23.086 74.2677 23.1661 74.5742C23.2495 74.8795 23.6677 75.2197 24.0978 75.3299ZM594.886 223.606C596.044 225.015 596.746 226.288 596.506 226.549C596.227 226.857 596.377 227.005 596.956 226.995C597.49 226.983 597.773 227.2 597.683 227.548C597.603 227.862 597.777 228.18 598.075 228.256C598.37 228.332 598.518 228.762 598.403 229.213C598.251 229.805 598.45 230.026 599.124 230.012C599.788 230 599.919 230.14 599.589 230.502C599.335 230.78 599.361 231.069 599.648 231.142C599.935 231.216 600.116 231.48 600.052 231.731C599.988 231.981 600.271 232.643 600.68 233.203C601.121 233.81 601.148 234.012 600.748 233.706C600.052 233.176 599.993 233.646 600.494 235.704C600.611 236.189 600.029 235.388 599.199 233.923C597.653 231.198 596.511 229.531 595.128 227.99C594.699 227.509 594.387 226.974 594.432 226.799C594.476 226.624 594.124 225.983 593.648 225.372C593.173 224.76 592.835 224.062 592.899 223.815C592.962 223.569 592.408 222.965 591.665 222.471C590.575 221.747 590.506 221.592 591.305 221.661C591.851 221.71 592.198 221.551 592.08 221.309C591.487 220.106 593.075 221.407 594.886 223.606ZM24.7571 79.6362C24.6241 80.2694 24.5257 80.3438 24.4775 79.8442C24.4373 79.4165 24.063 79.077 23.6374 79.0865C23.2155 79.0928 22.805 78.8371 22.729 78.5147C22.6341 78.1281 22.9887 78.0517 23.7737 78.291C24.6486 78.5577 24.9052 78.9094 24.7571 79.6362ZM38.363 112.396C38.286 112.663 37.8196 112.774 37.3315 112.649C36.5154 112.44 36.4973 112.499 37.1186 113.319C37.7525 114.159 37.8134 114.357 37.6665 115.114C37.6362 115.278 38.0509 115.161 38.5926 114.86C39.5668 114.315 39.575 114.317 39.4005 115.067C39.2265 115.814 39.2375 115.817 40.2154 115.269C41.1006 114.774 41.1151 114.648 40.3552 114.093C39.8871 113.753 39.2788 113.123 39.0037 112.694C38.672 112.177 38.4566 112.077 38.363 112.396ZM40.8499 116.061C40.7919 116.288 40.3275 116.334 39.8193 116.161C37.9982 115.55 38.0599 115.757 40.421 118.216C43.5904 121.511 43.8643 121.772 44.2724 121.877C44.4655 121.926 45.5032 122.715 46.5796 123.629L48.5393 125.292L49.9934 124.709C51.2695 124.202 51.2733 124.004 50.0175 123.79C49.843 123.76 49.3175 123.208 48.8505 122.565C48.0501 121.457 47.9644 121.425 47.2711 121.963C46.5853 122.495 46.4535 122.436 45.2505 121.053C44.5448 120.241 43.9247 119.737 43.8743 119.934C43.8233 120.132 43.3069 119.682 42.7264 118.932C42.1455 118.183 41.3774 117.408 41.0168 117.21C40.6563 117.011 40.5815 116.753 40.8552 116.637C41.1262 116.52 41.5841 116.705 41.8696 117.047C42.7592 118.116 43.459 117.988 42.64 116.908C41.7909 115.783 41.0155 115.415 40.8499 116.061ZM46.2316 119.69C46.1495 120.011 45.8258 120.207 45.5115 120.127C45.1999 120.047 45.051 120.203 45.187 120.476C45.3555 120.815 45.7093 120.891 46.3076 120.712C47.3157 120.413 47.7182 119.451 46.9213 119.247C46.6235 119.17 46.3141 119.368 46.2316 119.69ZM50.9163 126.05C50.8633 126.256 50.482 126.231 50.0692 125.996C49.6569 125.759 49.273 125.743 49.217 125.962C49.057 126.586 50.2854 127.055 51.1707 126.708C52.141 126.328 52.2783 125.998 51.5503 125.812C51.2553 125.736 50.9693 125.843 50.9163 126.05ZM59.9393 128.244C59.7456 128.381 60.0916 128.957 60.7019 129.522C61.315 130.088 61.8538 130.394 61.9027 130.203C62.0397 129.668 60.3311 127.965 59.9393 128.244ZM54.0455 127.278C53.9905 127.492 54.1855 127.729 54.4833 127.805C54.7784 127.881 54.9329 128.287 54.8254 128.706C54.6919 129.227 54.3883 129.334 53.8789 129.04C52.6108 128.312 52.8616 129.294 54.1542 130.121C54.9171 130.607 55.5258 130.788 55.7873 130.605C56.0162 130.446 55.941 130.246 55.6211 130.164C55.2709 130.075 55.4607 129.736 56.0934 129.319C57.0933 128.663 57.0796 128.579 55.8904 127.818C54.3551 126.838 54.1719 126.785 54.0455 127.278ZM63.9773 134.272C63.9587 134.666 64.348 135.153 64.8447 135.359C65.6103 135.674 65.6865 135.583 65.3527 134.765C64.8747 133.591 64.027 133.287 63.9773 134.272ZM67.2898 138.293C67.1222 138.947 68.6184 139.862 69.3697 139.567C69.6768 139.447 69.3684 138.999 68.6739 138.556C67.6714 137.916 67.3999 137.863 67.2898 138.293ZM552.332 268.349C551.594 268.41 551.051 268.718 551.128 269.034C551.203 269.348 550.966 269.656 550.6 269.719C550.216 269.785 550.13 269.695 550.399 269.506C550.653 269.328 550.562 268.823 550.199 268.385C549.605 267.673 549.697 267.612 551.058 267.806C553.584 268.168 553.735 268.232 552.332 268.349ZM547.485 268.115C547.318 268.18 546.85 268.185 546.439 268.126C546.031 268.068 545.379 268.077 544.988 268.144C544.598 268.212 544.179 268.068 544.062 267.826C543.822 267.341 546.765 267.231 547.394 267.702C547.611 267.863 547.652 268.05 547.485 268.115ZM98.0579 153.12C98.1766 153.769 99.3193 154.401 99.4498 153.892C99.5033 153.683 99.1909 153.309 98.7557 153.057C98.2663 152.777 97.9985 152.802 98.0579 153.12ZM100.105 154.395C100.062 155.091 100.378 155.498 101.109 155.686C101.696 155.836 102.519 156.304 102.935 156.722C103.853 157.645 103.941 157.462 103.333 155.904C102.981 155.007 102.69 154.79 102.129 155.009C101.567 155.229 101.241 155.067 100.781 154.339C100.193 153.413 100.169 153.415 100.105 154.395ZM104.549 156.788C104.604 157.079 105.535 157.837 106.622 158.467C107.709 159.1 108.713 159.825 108.854 160.08C108.991 160.335 109.64 160.578 110.293 160.62C111.059 160.67 111.316 160.815 111.015 161.024C110.733 161.22 110.884 161.344 111.394 161.335C111.858 161.324 112.771 161.707 113.425 162.183C114.821 163.202 116.107 163.631 115.78 162.967C115.65 162.705 115.873 162.686 116.288 162.924C116.692 163.157 117.089 163.606 117.164 163.919C117.3 164.478 119.656 165.077 121.951 165.136C122.502 165.15 123.22 165.377 123.552 165.642C124.532 166.427 125.451 166.645 125.584 166.129C125.658 165.838 124.92 165.418 123.742 165.082C122.661 164.773 121.574 164.279 121.327 163.982C121.079 163.686 120.441 163.332 119.906 163.195C119.374 163.058 119 162.706 119.076 162.412C119.214 161.871 117.509 161.002 113.815 159.733C112.191 159.177 111.81 159.164 111.937 159.677C112.041 160.109 111.854 160.183 111.367 159.906C110.967 159.677 110.704 159.245 110.78 158.949C110.857 158.651 110.541 158.311 110.078 158.192C109.618 158.074 109.335 158.169 109.45 158.406C109.566 158.642 109.196 158.619 108.629 158.353C108.06 158.086 107.502 157.683 107.391 157.453C107.276 157.224 106.944 156.974 106.646 156.897C106.351 156.822 106.224 156.995 106.365 157.281C106.535 157.627 106.255 157.541 105.537 157.028C104.684 156.422 104.471 156.37 104.549 156.788ZM124.872 164.423C124.762 164.852 126.294 165.764 126.797 165.569C127 165.488 126.852 165.17 126.467 164.86C125.576 164.142 124.986 163.98 124.872 164.423ZM213.736 187.19C213.689 187.373 213.065 187.285 212.353 186.992C211.637 186.701 211.069 186.394 211.09 186.313C211.111 186.231 211.735 186.319 212.477 186.509C213.216 186.699 213.783 187.005 213.736 187.19ZM546.976 272.541C546.433 272.506 545.949 272.64 545.898 272.837C545.774 273.32 546.707 273.534 547.258 273.149C547.498 272.98 547.896 272.999 548.14 273.193C548.385 273.385 548.632 273.36 548.69 273.133C548.799 272.708 548.633 272.648 546.976 272.541ZM216.868 188.406C216.821 188.589 216.198 188.501 215.482 188.209C214.769 187.917 214.201 187.612 214.222 187.531C214.243 187.447 214.867 187.537 215.606 187.726C216.347 187.917 216.916 188.221 216.868 188.406ZM221.97 189.771C222.109 190.052 221.488 190.044 220.432 189.75C218.765 189.282 218.743 189.255 220.086 189.288C220.869 189.306 221.563 189.317 221.624 189.309C221.687 189.302 221.842 189.511 221.97 189.771ZM224.788 190.926C223.9 191.077 222.554 190.391 223.051 190.044C223.241 189.91 223.879 190.025 224.467 190.301C225.217 190.652 225.313 190.838 224.788 190.926ZM134.371 167.672C134.324 167.856 133.7 167.767 132.987 167.476C132.242 167.172 131.64 167.126 131.578 167.369C131.433 167.933 133.745 169.829 134.307 169.608C134.548 169.513 134.467 169.213 134.125 168.943C133.624 168.548 133.668 168.445 134.343 168.433C134.807 168.423 135.411 168.684 135.68 169.007C136.044 169.444 136.208 169.458 136.309 169.064C136.402 168.701 136.777 168.903 137.476 169.694C138.043 170.335 138.971 170.99 139.541 171.153C140.541 171.437 140.535 171.448 139.421 171.485C138.333 171.52 138.345 171.576 139.615 172.399C140.361 172.883 140.93 173.425 140.885 173.604C140.839 173.782 141.179 174.026 141.642 174.145C142.102 174.263 142.376 174.147 142.249 173.886C142.119 173.625 142.271 173.478 142.586 173.559C142.897 173.639 143.089 173.967 143.007 174.287C142.925 174.607 143.098 174.931 143.396 175.008C143.691 175.083 143.985 174.943 144.048 174.696C144.121 174.414 144.457 174.559 144.953 175.089C145.447 175.614 147.372 176.449 150.113 177.325C152.516 178.093 154.977 178.926 155.578 179.173C156.511 179.554 156.662 179.47 156.588 178.591C156.52 177.802 156.671 177.659 157.227 177.977C157.624 178.206 157.756 178.608 157.516 178.869C156.928 179.512 158.459 179.867 159.525 179.331C160.162 179.011 160.244 178.761 159.859 178.3C159.475 177.839 159.318 177.822 159.212 178.234C159.104 178.657 158.956 178.638 158.547 178.146C157.798 177.251 156.109 176.907 155.928 177.61C155.793 178.137 155.622 178.095 154.387 177.236C153.592 176.683 152.754 176.362 152.429 176.486C152.101 176.608 150.455 175.955 148.575 174.956C146.767 173.995 144.739 173.092 144.068 172.947C142.7 172.654 142.599 172.316 143.741 171.87C144.16 171.704 144.399 171.528 144.27 171.48C144.142 171.432 143.208 171.098 142.195 170.738C141.182 170.379 140.017 169.879 139.608 169.628C139.2 169.378 138.217 168.982 137.427 168.749C136.635 168.517 135.846 168.155 135.67 167.947C135.236 167.427 134.475 167.266 134.371 167.672ZM536.565 270.995C536.418 271.051 535.8 271.032 535.188 270.954C534.577 270.875 533.532 270.995 532.866 271.221C531.496 271.683 531.125 271.512 531.828 270.741C532.093 270.455 533.238 270.286 534.377 270.371C536.309 270.512 537.182 270.764 536.565 270.995ZM147.848 173.31C147.724 173.793 148.063 174.145 148.866 174.37C149.53 174.555 150.724 174.941 151.517 175.227C152.311 175.514 153.003 175.585 153.054 175.386C153.147 175.025 152.427 174.683 151.136 174.479C150.755 174.418 150.489 174.208 150.54 174.009C150.59 173.812 150.047 173.41 149.331 173.118C148.323 172.705 147.992 172.748 147.848 173.31ZM524.599 269.93C524.91 269.84 524.931 269.883 524.651 270.026C523.735 270.49 521.939 270.036 522.456 269.472C522.783 269.115 523.084 269.131 523.476 269.528C523.785 269.838 524.29 270.02 524.599 269.93ZM517.585 269.1C517.424 269.73 515.303 269.394 515.239 268.729C515.179 268.114 515.41 268.061 516.391 268.463C517.067 268.738 517.604 269.026 517.585 269.1ZM520.388 269.357C520.362 269.456 519.808 269.6 519.16 269.677C518.214 269.789 518.006 269.695 518.128 269.22C518.214 268.882 518.749 268.744 519.359 268.9C519.949 269.051 520.413 269.257 520.388 269.357ZM449.967 252.419C449.899 252.893 450.09 253.478 450.392 253.719C450.732 253.988 450.72 254.195 450.361 254.255C450.038 254.31 449.426 253.89 448.995 253.322C448.568 252.753 447.874 252.296 447.458 252.303C447.042 252.311 446.746 252.148 446.799 251.942C446.852 251.735 447.364 251.686 447.94 251.834C448.513 251.981 449.179 251.965 449.418 251.8C450.034 251.366 450.112 251.452 449.967 252.419ZM425.905 247.117C425.133 248.125 425.142 248.123 424.184 247.572C423.733 247.315 423.543 246.978 423.761 246.826C423.976 246.674 424.355 246.71 424.602 246.906C424.849 247.101 425.265 247.023 425.527 246.735C426.266 245.926 426.577 246.239 425.905 247.117ZM416.459 244.878C416.509 244.707 416.765 244.736 417.029 244.946C417.329 245.184 417.167 245.462 416.593 245.686C415.279 246.203 415.024 246.027 415.344 244.823C415.563 243.992 415.707 243.914 415.998 244.474C416.203 244.868 416.412 245.05 416.459 244.878ZM160.044 179.631C159.147 180.359 159.494 180.861 160.789 180.714C161.325 180.652 162.245 180.617 162.84 180.634C164.133 180.669 164.01 180.495 162.168 179.667C161.109 179.192 160.597 179.182 160.044 179.631ZM176.638 183.391C175.903 183.68 176.014 184.198 176.855 184.413C177.299 184.527 177.73 184.358 177.812 184.038C177.968 183.432 177.373 183.103 176.638 183.391ZM410.836 243.517C411.622 243.753 411.869 244.096 411.682 244.702C411.444 245.469 411.642 245.601 413.601 245.984C414.804 246.219 415.625 246.478 415.426 246.558C414.155 247.067 410.561 245.843 410.477 244.872C410.431 244.318 409.978 243.736 409.472 243.579C408.394 243.245 408.588 243.288 405.864 242.764C404.684 242.538 403.686 242.159 403.64 241.923C403.571 241.549 406.199 242.132 410.836 243.517ZM456.196 255.31C455.374 255.663 453.391 255.328 453.512 254.857C453.573 254.619 454.298 254.635 456.532 254.92C456.773 254.952 456.622 255.127 456.196 255.31ZM399.334 241.067C399.603 240.879 400.024 240.888 400.273 241.085C400.519 241.282 400.543 241.569 400.321 241.724C400.099 241.879 400.176 242.073 400.49 242.153C400.801 242.233 401.156 241.998 401.271 241.629C401.452 241.061 401.52 241.093 401.717 241.847C402.038 243.05 400.919 243.608 399.796 242.808C399.326 242.473 398.759 242.269 398.537 242.356C398.315 242.443 398.18 242.338 398.235 242.122C398.291 241.905 397.612 241.526 396.729 241.28C395.846 241.035 395.077 241.005 395.023 241.218C394.969 241.428 394.707 241.429 394.441 241.219C393.608 240.558 394.686 240.252 396.343 240.677C397.247 240.909 397.985 240.875 398.061 240.598C398.158 240.244 398.28 240.286 398.522 240.761C398.752 241.218 398.991 241.307 399.334 241.067ZM495.455 266.215C495.044 266.419 494.837 266.743 494.997 266.934C495.154 267.125 495.028 267.215 494.713 267.135C494.399 267.054 494.069 266.679 493.978 266.302C493.882 265.907 494.012 265.777 494.285 265.996C494.547 266.202 494.983 266.128 495.253 265.833C495.523 265.535 495.847 265.417 495.973 265.568C496.099 265.717 495.866 266.009 495.455 266.215ZM500.296 267.138C500.278 267.206 499.526 267.055 498.624 266.805C497.713 266.55 497.297 266.295 497.687 266.228C498.32 266.121 500.373 266.836 500.296 267.138ZM423.38 247.798C423.852 248.237 424.659 248.607 425.179 248.622C425.964 248.641 425.973 248.677 425.233 248.843C424.597 248.987 423.962 248.748 422.974 247.993C421.679 247.004 421.56 246.976 420.897 247.488C419.893 248.264 418.935 247.919 419.907 247.131C420.808 246.402 422.161 246.662 423.38 247.798ZM432.469 250.376C434.561 250.343 435.908 251.531 434.201 251.907C433.488 252.063 432.591 252.011 432.204 251.789C431.743 251.525 431.554 251.606 431.658 252.026C431.755 252.426 431.478 252.579 430.916 252.435C430.422 252.309 430.195 252.081 430.411 251.929C430.918 251.576 430.611 250.288 429.982 250.126C429.72 250.059 429.433 250.276 429.347 250.61C429.262 250.942 429.438 251.173 429.736 251.122C430.037 251.072 430.071 251.338 429.813 251.714C429.446 252.251 429.223 252.262 428.778 251.762C428.466 251.411 428.393 250.927 428.614 250.684C428.847 250.43 428.553 250.027 427.924 249.732C427.325 249.454 426.877 249.057 426.929 248.854C426.981 248.652 427.46 248.711 427.994 248.985C428.527 249.26 429.169 249.344 429.417 249.168C429.714 248.96 430.094 249.119 430.517 249.624C430.97 250.17 431.548 250.392 432.469 250.376ZM439.161 251.782C439.672 251.773 439.885 252.042 439.758 252.537C439.483 253.608 440.829 254.974 441.178 253.979C441.4 253.341 441.434 253.346 441.499 254.011C441.558 254.638 442.485 255.335 442.61 254.846C442.766 254.238 442.195 253.257 441.594 253.103C441.199 253.002 440.779 252.727 440.664 252.489C440.271 251.692 442.755 253.112 444.072 254.437C444.894 255.269 445.774 255.765 446.452 255.782C447.047 255.797 447.481 255.995 447.423 256.224C447.364 256.453 448.041 256.825 448.932 257.054C449.82 257.281 450.589 257.309 450.638 257.116C450.689 256.919 451.53 257.169 452.541 257.682C453.785 258.31 454.505 258.503 454.826 258.295C455.081 258.126 456.487 258.359 457.949 258.814C461.789 260.008 461.857 260.041 461.444 260.494C461.236 260.722 461.273 261.071 461.524 261.271C462.061 261.697 463.056 260.776 462.742 260.142C462.626 259.905 462.786 259.777 463.1 259.857C463.414 259.938 463.626 260.178 463.571 260.393C463.516 260.606 463.957 260.905 464.55 261.057C465.143 261.209 465.576 261.526 465.515 261.762C465.445 262.034 464.905 261.964 464.056 261.574C462.888 261.04 462.716 261.07 462.785 261.795C462.844 262.382 462.603 262.564 461.987 262.4C461.066 262.153 459.293 261.972 457.323 261.92C456.543 261.901 456.316 261.779 456.635 261.555C456.899 261.371 456.858 261.153 456.544 261.073C456.23 260.992 455.921 261.131 455.857 261.379C455.793 261.63 455.651 261.725 455.539 261.59C454.987 260.932 456.427 259.799 457.036 260.415C457.522 260.904 457.698 260.917 457.811 260.476C457.925 260.03 457.229 259.721 454.72 259.099C452.941 258.655 451.447 258.431 451.404 258.6C451.36 258.769 450.718 258.753 449.979 258.563C449.237 258.373 448.589 258.393 448.534 258.606C448.48 258.819 448.043 258.893 447.563 258.77C446.957 258.615 446.838 258.332 447.172 257.844C447.436 257.456 447.435 257.083 447.164 257.014C446.897 256.945 446.584 257.191 446.469 257.56C446.311 258.074 446.198 257.997 445.998 257.232C445.734 256.232 444.709 255.609 444.523 256.337C444.468 256.551 444.666 256.786 444.961 256.862C445.259 256.938 445.457 257.175 445.402 257.39C445.347 257.603 445.01 257.656 444.655 257.508C444.296 257.359 444.009 257.472 444.014 257.759C444.021 258.044 443.758 258.21 443.43 258.126C443.101 258.042 443.039 257.746 443.292 257.47C443.852 256.857 443.23 256.647 442.074 257.054C441.395 257.293 441.326 257.275 441.729 256.965C442.409 256.443 441.919 256.36 440.782 256.805C439.972 257.125 439.62 257.007 437.986 255.883C435.726 254.327 435.857 254.365 435.586 255.183C435.465 255.55 435.285 255.288 435.186 254.598C435.042 253.588 435.245 253.268 436.23 252.955C437.679 252.496 437.954 251.986 436.746 252.009C436.032 252.022 436.03 251.927 436.733 251.44C437.231 251.093 437.739 251.047 437.971 251.325C438.189 251.586 438.724 251.791 439.161 251.782ZM492.852 265.385C493.071 265.458 493.13 265.905 492.985 266.38C492.837 266.855 492.652 267.003 492.574 266.709C492.478 266.352 492.007 266.183 491.142 266.198C490.369 266.21 489.497 265.956 488.963 265.563C488.253 265.04 487.818 265.043 486.804 265.569L485.536 266.229L486.665 265.229C487.59 264.408 488.034 264.325 489.114 264.767C489.84 265.064 490.48 265.126 490.536 264.907C490.592 264.687 491.048 264.674 491.548 264.879C492.048 265.083 492.636 265.31 492.852 265.385ZM170.563 183.213C170.508 183.426 170.949 183.725 171.539 183.876C172.132 184.028 172.662 183.978 172.716 183.765C172.771 183.553 172.33 183.253 171.738 183.101C171.148 182.95 170.617 183 170.563 183.213ZM183.485 186.532C183.431 186.743 183.574 186.94 183.804 186.972C185.053 187.146 186.732 187.816 186.321 187.977C185.671 188.23 181.591 187.205 181.691 186.814C181.825 186.291 180.3 186.084 179.862 186.565C179.275 187.207 179.78 187.883 181.165 188.304C181.961 188.546 182.423 188.45 182.54 188.016C182.642 187.644 182.845 187.573 183.011 187.853C183.334 188.383 184.204 188.83 186 189.386C186.63 189.579 186.968 189.863 186.754 190.014C186.538 190.166 186.909 190.325 187.58 190.367C188.25 190.412 188.635 190.562 188.435 190.699C187.843 191.115 190.144 192.01 195.228 193.339C196.115 193.57 196.973 194.006 197.134 194.308C197.343 194.707 197.588 194.746 198.029 194.45C198.436 194.178 198.716 194.211 198.884 194.553C199.045 194.876 201.047 195.504 204.398 196.278C207.292 196.946 209.915 197.739 210.229 198.04C210.994 198.77 212.013 197.682 211.333 196.863C211.014 196.48 210.799 196.413 210.733 196.671C210.664 196.939 209.796 196.749 208.152 196.101C206.791 195.565 204.612 194.746 203.309 194.279C202.009 193.814 200.116 193.138 199.104 192.777C198.092 192.414 196.355 191.876 195.25 191.579C193.943 191.232 193.281 190.859 193.366 190.525C193.495 190.024 192.198 188.973 191.347 188.888C191.118 188.866 190.959 188.715 190.997 188.555C191.036 188.394 189.384 187.788 187.326 187.205C185.14 186.588 183.543 186.307 183.485 186.532ZM408.691 244.815C408.388 245.146 407.415 244.954 403.681 243.829C402.393 243.44 403.218 242.905 404.713 243.159C407.087 243.562 409.076 244.39 408.691 244.815ZM417.704 246.773C417.622 247.093 417.312 247.294 417.017 247.218C416.719 247.142 416.546 246.818 416.628 246.498C416.711 246.176 417.017 245.977 417.315 246.053C417.61 246.129 417.786 246.451 417.704 246.773ZM175.352 184.75C175.249 185.279 176.36 186.769 176.972 186.926C177.309 187.012 177.492 186.756 177.392 186.343C177.271 185.85 177.396 185.755 177.772 186.053C178.08 186.295 178.262 186.756 178.18 187.076C178.097 187.397 178.279 187.617 178.577 187.566C179.591 187.394 179.204 186.07 177.965 185.471C176.226 184.631 175.419 184.409 175.352 184.75ZM480.216 263.495C479.983 263.658 479.22 263.528 478.521 263.206C477.616 262.792 477.33 262.785 477.527 263.185C477.725 263.583 477.402 263.583 476.428 263.185C475.67 262.876 475.009 262.794 474.956 263C474.903 263.209 474.157 263.117 473.298 262.8C472.442 262.481 471.643 262.318 471.526 262.443C470.866 263.127 466.767 261.933 467.266 261.201C467.545 260.791 467.819 260.696 467.871 260.987C468.005 261.712 470.055 262.187 471.587 261.851C472.275 261.699 474.145 261.811 475.739 262.104C477.334 262.394 478.776 262.579 478.939 262.515C479.485 262.301 480.646 263.192 480.216 263.495ZM482.461 263.414C482.776 263.791 482.018 264.707 481.5 264.574C481.299 264.522 481.225 264.131 481.335 263.705C481.533 262.93 481.965 262.818 482.461 263.414ZM437.914 253.011C437.801 253.453 437.98 253.765 438.308 253.71C438.64 253.653 438.975 253.355 439.054 253.049C439.133 252.741 438.955 252.426 438.657 252.35C438.362 252.274 438.027 252.572 437.914 253.011ZM504.7 270.108C504.203 270.201 503.913 270.324 504.057 270.382C504.199 270.437 504.843 270.697 505.487 270.958C506.129 271.218 506.703 271.248 506.761 271.022C506.819 270.797 507.066 270.772 507.31 270.966C507.554 271.16 507.952 271.179 508.192 271.009C508.758 270.614 505.914 269.879 504.7 270.108ZM208.047 194.917C208.32 195.47 210.166 195.969 210.661 195.623C210.861 195.482 210.307 195.166 209.427 194.921C208.549 194.677 207.927 194.674 208.047 194.917ZM222.738 199.085C222.602 199.614 223.352 200.027 224.187 199.885C224.752 199.79 224.67 199.619 223.893 199.257C223.305 198.981 222.784 198.905 222.738 199.085ZM434.011 254.241C433.793 255.094 433.701 255.109 433.094 254.381C432.502 253.675 433.076 253.097 434.187 253.28C434.224 253.285 434.145 253.719 434.011 254.241ZM227.408 201.02C227.286 201.495 228.727 202.339 229.449 202.217C229.75 202.165 229.952 202.295 229.898 202.505C229.737 203.132 227.996 202.77 225.401 201.571C224.061 200.952 222.931 200.578 222.89 200.739C222.849 200.9 221.918 200.748 220.822 200.401C219.727 200.055 218.839 199.749 218.847 199.717C218.854 199.687 217.73 199.282 216.35 198.819C214.854 198.316 213.799 198.133 213.739 198.365C213.638 198.759 215.351 199.439 221.416 201.42C223.236 202.014 225.008 202.654 225.357 202.843C227.674 204.109 235.722 206.655 235.848 206.164C235.886 206.015 235.339 205.523 234.635 205.073C233.832 204.56 233.519 204.073 233.797 203.77C234.376 203.137 234.113 202.97 230.531 201.71C228.684 201.061 227.466 200.791 227.408 201.02ZM234.595 203.544C234.349 203.816 234.326 204.181 234.548 204.356C234.768 204.531 235.165 204.36 235.428 203.974C235.978 203.168 235.272 202.805 234.595 203.544ZM308.992 222.611C309.122 222.767 309.001 222.861 308.724 222.82C306.512 222.484 305.784 222.39 304.186 222.239C302.673 222.097 302.394 221.951 302.537 221.391C302.658 220.92 303.002 220.851 303.679 221.169C304.211 221.417 305.016 221.558 305.465 221.48C306.277 221.339 308.536 222.064 308.992 222.611ZM312.981 223.189C312.897 223.519 310.115 222.988 309.925 222.607C309.815 222.381 310.466 222.385 311.371 222.617C312.278 222.85 313.002 223.107 312.981 223.189ZM328.265 227.359C328.411 227.65 327.641 227.616 326.284 227.268C325.063 226.955 324.218 226.593 324.405 226.462C324.92 226.101 327.999 226.816 328.265 227.359ZM238.495 204.79C238.438 205.014 238.175 205.03 237.911 204.822C237.65 204.613 237.388 204.629 237.33 204.855C237.2 205.362 238.093 205.627 238.64 205.246C238.862 205.089 239.657 205.266 240.436 205.643C241.205 206.016 242.19 206.324 242.629 206.328C243.066 206.332 243.231 206.47 242.994 206.636C242.518 206.967 246.53 208.021 247.229 207.747C247.458 207.655 248.024 207.773 248.488 208.006C249.198 208.366 249.218 208.342 248.617 207.846C247.563 206.981 238.626 204.281 238.495 204.79ZM344.344 233.186C344.748 233.317 344.077 233.31 342.849 233.173C340.146 232.872 339.978 232.736 341.502 232.089C342.478 231.674 342.761 231.704 343.145 232.268C343.399 232.643 343.939 233.057 344.344 233.186ZM427.377 253.814C427.271 254.225 423.901 253.836 423.681 253.388C423.528 253.077 423.645 253.044 423.975 253.306C424.278 253.545 424.569 253.579 424.62 253.38C424.671 253.18 425.32 253.172 426.059 253.362C426.8 253.552 427.392 253.756 427.377 253.814ZM320.909 227.901C320.78 228.3 320.65 228.326 320.557 227.969C320.477 227.663 320.162 227.455 319.862 227.505C319.558 227.557 319.38 227.331 319.464 227.005C319.558 226.637 319.9 226.577 320.367 226.842C320.779 227.079 321.024 227.555 320.909 227.901ZM423.447 254.643C423.207 254.811 422.557 254.777 422.006 254.568C420.347 253.944 420.461 253.658 422.228 254.009C423.227 254.208 423.712 254.459 423.447 254.643ZM323.849 229.387C323.627 229.475 323.584 229.892 323.758 230.313C324.002 230.912 323.812 231.031 322.89 230.845C321.929 230.654 321.878 230.575 322.615 230.416C323.297 230.269 323.365 230.13 322.895 229.851C321.99 229.313 322.304 228.731 323.352 228.999C323.845 229.126 324.068 229.3 323.849 229.387ZM349.266 236.119C349.107 236.739 351.017 237.566 354.434 238.359C358.819 239.375 358.698 239.369 357.588 238.528C356.529 237.729 349.384 235.66 349.266 236.119ZM415.26 252.911C415.032 253.001 414.617 253.038 414.34 252.995C413.116 252.806 413.047 252.901 413.971 253.506C414.728 254.003 414.544 253.997 413.16 253.472C410.138 252.329 410.572 251.44 413.754 252.256C414.81 252.527 415.489 252.821 415.26 252.911ZM274.226 217.648C274.171 217.861 274.477 218.125 274.901 218.234C275.329 218.344 275.873 218.297 276.112 218.131C276.349 217.963 276.043 217.701 275.434 217.544C274.824 217.388 274.281 217.433 274.226 217.648ZM281.392 219.362C279.913 219.377 280.579 220.02 282.541 220.472C283.659 220.731 285.661 221.359 286.988 221.866C288.787 222.552 289.598 222.69 290.165 222.405C290.785 222.096 290.65 221.956 289.43 221.647C288.605 221.44 286.622 220.84 285.021 220.313C283.419 219.786 281.786 219.359 281.392 219.362ZM291.339 222.537C291.296 222.704 291.745 222.967 292.338 223.119C292.928 223.27 293.449 223.256 293.492 223.089C293.535 222.922 293.085 222.66 292.495 222.509C291.902 222.357 291.381 222.37 291.339 222.537ZM326.905 231.565C326.85 231.779 326.455 231.865 326.028 231.755C325.6 231.646 325.146 231.343 325.019 231.081C324.891 230.822 325.284 230.736 325.893 230.892C326.505 231.049 326.96 231.352 326.905 231.565ZM350.968 238.447C350.82 239.023 352.569 240.006 354.731 240.56C355.914 240.863 357.022 241.333 357.188 241.603C357.381 241.915 357.72 241.943 358.115 241.677C358.473 241.437 359.098 241.465 359.582 241.744C360.117 242.051 360.391 242.038 360.328 241.709C360.266 241.368 358.962 240.882 356.509 240.285C354.459 239.785 352.393 239.098 351.914 238.757C351.437 238.417 351.011 238.278 350.968 238.447ZM371.405 243.8C371.351 244.013 371.788 244.312 372.381 244.464C372.974 244.616 373.504 244.565 373.559 244.352C373.614 244.138 373.173 243.84 372.58 243.688C371.987 243.536 371.46 243.586 371.405 243.8ZM384.389 246.877C384.368 246.96 385.182 247.317 386.196 247.67C387.21 248.023 388.075 248.171 388.118 248.002C388.162 247.831 387.351 247.475 386.314 247.209C385.277 246.943 384.411 246.793 384.389 246.877ZM398.883 250.795C398.781 251.191 400.837 252.103 401.864 252.119C403.298 252.141 402.668 251.401 400.854 250.936C399.817 250.67 398.931 250.606 398.883 250.795Z" fill="#99C079"/>
<path fill-rule="evenodd" clip-rule="evenodd" d="M195.715 65.8365C195.856 66.0062 195.634 66.3115 195.226 66.5182C194.636 66.812 194.678 66.8884 195.426 66.8724C195.945 66.8636 196.416 66.6898 196.468 66.4851C196.52 66.2823 196.831 66.3196 197.164 66.5681C197.494 66.8159 197.613 66.821 197.431 66.5795C197.247 66.3372 196.727 66.0027 196.277 65.8343C195.826 65.6678 195.573 65.6687 195.715 65.8365ZM180.317 69.0348C180.773 70.1538 181.23 70.3663 180.984 69.3435C180.853 68.8101 180.978 68.7468 181.438 69.1103C181.857 69.4445 181.979 69.4291 181.799 69.0652C181.289 68.0278 179.894 68.0007 180.317 69.0348ZM550.69 167.377C549.966 167.439 549.333 167.641 549.285 167.826C549.237 168.013 549.879 168.033 550.707 167.873C552.92 167.447 552.913 167.19 550.69 167.377ZM492.631 154.881C492.384 155.053 492.586 155.173 493.105 155.164C493.784 155.152 493.88 155.305 493.495 155.785C493.088 156.295 493.124 156.338 493.683 156.003C494.414 155.561 494.339 154.911 493.534 154.704C493.272 154.637 492.867 154.717 492.631 154.881ZM541.072 180.929C540.85 181.084 540.897 181.393 541.179 181.613C541.53 181.894 541.451 182.134 540.915 182.401C540.359 182.68 540.314 182.832 540.747 182.943C541.08 183.028 541.401 182.913 541.459 182.687C541.517 182.46 541.777 182.444 542.035 182.65C542.304 182.863 542.435 182.732 542.339 182.338C542.247 181.961 541.942 181.595 541.66 181.522C541.379 181.45 541.344 181.255 541.58 181.089C541.817 180.921 541.893 180.754 541.744 180.716C541.595 180.677 541.294 180.774 541.072 180.929ZM540.368 184.695C540.192 185.383 540.364 185.65 540.979 185.638C541.625 185.625 541.746 185.408 541.472 184.743C540.991 183.56 540.663 183.546 540.368 184.695ZM534.684 185.545C534.456 185.703 534.647 185.932 535.11 186.05C535.852 186.241 536.064 186.755 535.715 187.51C535.654 187.643 535.89 187.915 536.236 188.114C536.599 188.324 536.982 188.17 537.136 187.756C537.285 187.358 537.151 187.076 536.841 187.13C536.531 187.181 536.34 186.972 536.42 186.662C536.593 185.986 535.269 185.134 534.684 185.545ZM542.373 188.073C542.2 188.747 542.248 188.778 544.495 189.458C546.398 190.035 546.987 189.675 545.359 188.93C544.681 188.618 543.768 188.157 543.329 187.907C542.804 187.605 542.478 187.662 542.373 188.073ZM551.873 194.139C551.731 194.52 551.883 194.9 552.211 194.985C552.537 195.068 552.677 194.981 552.517 194.79C552.357 194.6 552.516 194.3 552.87 194.122C553.305 193.905 553.29 193.744 552.822 193.624C552.441 193.527 552.014 193.758 551.873 194.139ZM419.874 247.226C419.173 247.849 419.182 247.885 419.939 247.497C420.423 247.25 421.321 247.082 421.933 247.125C422.943 247.197 422.935 247.172 421.865 246.853C421.127 246.634 420.377 246.774 419.874 247.226Z" fill="#042CD4"/>
</svg>
