<svg width="67" height="48" viewBox="0 0 67 48" fill="none" xmlns="http://www.w3.org/2000/svg">
<path d="M67 3.71784V48H38.273L34.8848 44.6826H32.1157L28.7275 48H0V3.71784H4.87435V41.2505V45.224L8.61212 43.8964C14.8941 41.6648 21.015 40.5801 27.3241 40.5801C28.578 40.5801 29.9115 40.6302 31.287 40.7291L32.7109 40.8317V40.9455L33.5003 40.8885L34.2896 40.9455V40.8317L35.7136 40.7291C37.089 40.6302 38.4225 40.5801 39.6764 40.5801C45.9856 40.5801 52.1064 41.6648 58.3884 43.8964L62.1262 45.224V41.2505V3.71784H67ZM35.5124 3.8586V37.9291C36.9121 37.8283 38.3057 37.7726 39.6759 37.7726C46.2796 37.7726 52.7444 38.9131 59.3241 41.2505V0.165018C57.9247 0.054917 56.5324 0.000266442 55.1655 0.000266442C48.5889 0.000266442 42.1422 1.26629 35.5124 3.8586ZM7.67588 41.2505C14.2556 38.9131 20.7202 37.7726 27.3241 37.7726C28.6943 37.7726 30.0881 37.8283 31.4876 37.9291V3.8586C24.8575 1.26603 18.4111 0 11.8345 0C10.4676 0 9.07532 0.0546506 7.67588 0.164752V41.2505Z" fill="#FECF5A"/>
<path d="M19.5858 19.3137C18.8047 20.0947 18.8047 21.3611 19.5858 22.1421L32.3137 34.87C33.0948 35.6511 34.3611 35.6511 35.1421 34.87C35.9232 34.089 35.9232 32.8227 35.1421 32.0416L23.8284 20.7279L35.1421 9.41421C35.9232 8.63316 35.9232 7.36683 35.1421 6.58579C34.3611 5.80474 33.0948 5.80474 32.3137 6.58579L19.5858 19.3137ZM49 18.7279H21V22.7279H49V18.7279Z" fill="#768BB8"/>
</svg>
