<svg width="350" height="265" viewBox="0 0 350 265" fill="none" xmlns="http://www.w3.org/2000/svg">
<path d="M347.483 22.6931V22.6887L347.478 22.6733L347.483 22.6931Z" fill="#CC0404"/>
<path d="M349.527 27.6006L349.496 27.5633C349.494 27.5613 349.494 27.5613 349.494 27.5613L349.527 27.6006Z" fill="#CC0404"/>
<path d="M349.527 4.92095L349.496 4.88367C349.494 4.88367 349.494 4.88367 349.494 4.88367L349.527 4.92095Z" fill="#CC0404"/>
<path d="M347.483 0.0174256C347.483 0.0174256 347.483 0.0108897 347.48 0.00653407L347.478 0L347.483 0.0174256Z" fill="#CC0404"/>
<path d="M105 212.48C105.001 212.075 104.922 211.683 104.795 211.311C104.92 210.967 104.985 210.621 104.987 210.286C104.99 209.759 104.844 209.25 104.622 208.84L104.615 208.827C104.548 208.704 104.457 208.574 104.355 208.444V198.607C104.758 198.028 104.998 197.331 105 196.582C105 195.134 104.128 193.833 102.794 193.285L69.8498 179.501H69.754C69.0622 179.258 68.3449 179.112 67.6173 179.112C66.907 179.112 66.1952 179.251 65.5108 179.487H65.4251L17.14 198.971L17.0199 199.038L17.0227 199.042C16.4067 199.367 15.9508 199.818 15.6364 200.254C15.0863 201.02 14.8048 201.827 14.6002 202.56L14.5988 202.57C14.2917 203.708 14.163 204.863 14.0844 205.84L14.083 205.849C14.0101 206.831 14.0059 207.661 14.0002 208.002V208.01V208.192C14.0016 209.384 14.0674 210.934 14.3389 212.425L14.3432 212.441C14.4863 213.191 14.6877 213.952 15.0309 214.694L15.0365 214.705L15.0378 214.708C15.2123 215.073 15.4395 215.464 15.7539 215.836L15.761 215.845C15.7837 215.872 15.8168 215.896 15.8426 215.922C15.7768 215.999 15.691 216.074 15.6366 216.152C15.0849 216.917 14.805 217.724 14.6004 218.455L14.599 218.462V218.465C14.2918 219.603 14.1632 220.759 14.0846 221.737L14.0832 221.744C14.01 222.727 14.0057 223.556 14 223.898V223.905V224.088C14.0014 225.282 14.0672 226.832 14.3402 228.324L14.343 228.336C14.4861 229.087 14.6875 229.85 15.0307 230.591L15.0376 230.604C15.2107 230.966 15.4379 231.357 15.7537 231.733L15.7608 231.742C15.818 231.811 15.9023 231.872 15.9695 231.941C15.8564 232.065 15.7265 232.188 15.6364 232.313C15.0847 233.079 14.8048 233.886 14.6002 234.616L14.5959 234.636L14.5988 234.627C14.2917 235.765 14.163 236.921 14.0844 237.899L14.083 237.907C14.0101 238.889 14.0059 239.719 14.0002 240.063V240.071V240.249C14.0016 241.444 14.0674 242.995 14.3404 244.488L14.3432 244.499C14.4863 245.249 14.6877 246.012 15.0309 246.752L15.0378 246.766C15.2109 247.13 15.438 247.519 15.7539 247.895L15.7311 247.87L15.7612 247.905C16.0626 248.256 16.4771 248.595 16.9946 248.849L16.9889 248.857L16.9989 248.863L17.0718 248.904L52.6093 263.591L52.6907 263.625C53.4782 263.947 54.3157 264.112 55.1574 264.112C55.9835 264.112 56.8111 263.953 57.5913 263.634L103.075 245.126V245.124C103.599 244.913 104.094 244.568 104.472 244.014L104.474 244.015C104.474 244.015 104.475 244.011 104.477 244.008C104.478 244.007 104.48 244.007 104.481 244.004H104.48C104.838 243.46 104.984 242.888 104.987 242.344C104.99 241.817 104.844 241.308 104.623 240.898L104.616 240.885V240.887C104.548 240.764 104.457 240.632 104.355 240.502V230.667C104.758 230.087 104.999 229.387 105 228.64C105.001 228.188 104.906 227.749 104.744 227.338C104.907 226.951 104.986 226.558 104.987 226.181C104.99 225.653 104.844 225.147 104.623 224.734L104.616 224.722C104.548 224.6 104.457 224.468 104.355 224.338V214.504C104.758 213.924 104.998 213.225 105 212.48ZM52.4388 259.546L18.5948 245.557L18.4675 245.408C18.3618 245.244 18.2262 244.93 18.1174 244.541C17.9489 243.959 17.833 243.2 17.763 242.433C17.6929 241.667 17.6686 240.896 17.6686 240.249V240.096C17.6743 239.596 17.6928 238.151 17.8986 236.791C17.9958 236.113 18.146 235.459 18.3315 234.995L18.3703 234.911L52.4385 248.75V259.546H52.4388ZM52.4388 243.383L21.6434 230.651L18.5949 229.395L18.4677 229.246C18.3619 229.08 18.2263 228.768 18.1176 228.38C17.9491 227.795 17.8332 227.038 17.7632 226.271C17.6931 225.505 17.6688 224.734 17.6688 224.088V223.933C17.6745 223.433 17.6929 221.989 17.8988 220.627C17.996 219.95 18.1462 219.295 18.3317 218.833L18.3705 218.748L52.4386 232.588V243.383H52.4388ZM52.4388 217.57V218.226V227.487L21.3162 214.619L18.5949 213.498L18.4677 213.348C18.3619 213.184 18.2263 212.87 18.1176 212.484C17.9491 211.9 17.8332 211.143 17.7632 210.374C17.6931 209.607 17.6688 208.837 17.6688 208.192V208.037C17.6745 207.538 17.6929 206.092 17.8988 204.732C17.996 204.054 18.1462 203.4 18.3317 202.936L18.3705 202.853L52.4386 216.692V217.57H52.4388ZM100.686 242.135L56.329 260.181L56.2117 260.234C55.8701 260.369 55.5143 260.439 55.1571 260.439C55.0298 260.439 54.8999 260.42 54.7741 260.4V249.47C54.9413 249.489 55.1142 249.499 55.2815 249.499C55.9491 249.499 56.6179 249.367 57.2424 249.109L57.2853 249.091L100.686 231.353V242.135H100.686ZM100.686 225.911V225.972L56.329 244.019L56.2117 244.07C55.8701 244.206 55.5143 244.275 55.1571 244.275C55.0298 244.275 54.8999 244.256 54.7741 244.239V233.308C54.9413 233.326 55.1142 233.336 55.2815 233.336C55.9491 233.336 56.6179 233.205 57.2424 232.948L57.2853 232.929L87.7261 220.489L100.686 215.19V225.911ZM100.686 209.749V210.077L56.329 228.123L56.2117 228.174C55.8701 228.31 55.5143 228.38 55.1571 228.38C55.0298 228.38 54.8999 228.361 54.7741 228.343V218.35V217.41C54.9413 217.43 55.1142 217.439 55.2815 217.439C55.9491 217.439 56.6179 217.309 57.2424 217.052L57.2853 217.034L100.686 199.294V209.749H100.686Z" fill="#CC0404"/>
<path d="M347.483 45.7526V45.7482L347.478 45.7349L347.483 45.7526Z" fill="#CC0404"/>
<rect x="14.5" y="215.5" width="90" height="23" rx="11.5" fill="white" stroke="#CC0404"/>
<path d="M31.3773 222.843C31.3302 223.626 31.2883 224.592 31.2515 225.742C31.2149 226.875 31.1832 228.207 31.1563 229.741C31.104 232.723 30.9976 234.514 30.8372 235.111C30.5884 235.99 30.0512 236.681 29.2256 237.183C28.383 237.702 27.4535 237.952 26.437 237.934C25.2705 237.914 24.2657 237.704 23.4225 237.306C23.3071 237.237 23.1501 237.16 22.9515 237.073C22.7527 237.003 22.5126 236.915 22.231 236.81L23.1826 235.302C23.9202 236.015 24.8463 236.439 25.9607 236.576C26.0438 236.594 26.1186 236.603 26.1853 236.605C26.2519 236.606 26.3269 236.607 26.4102 236.608C26.8102 236.615 27.1946 236.556 27.5635 236.429C27.9325 236.302 28.2523 236.124 28.523 235.895C28.8101 235.684 29.0398 235.421 29.212 235.107C29.3842 234.794 29.4901 234.454 29.5299 234.088C29.5556 233.571 29.5992 232.514 29.6605 230.915C28.8563 232.101 27.6876 232.68 26.1545 232.653C24.6214 232.626 23.3804 232.105 22.4314 231.088C21.5148 230.122 21.086 228.914 21.1447 227.465C21.1862 226.049 21.6817 224.882 22.6313 223.965C23.5978 223.032 24.8309 222.579 26.3307 222.605C27.9138 222.633 29.0373 223.202 29.7012 224.314C29.705 224.098 29.7091 223.864 29.7135 223.614C29.7179 223.364 29.7142 223.098 29.7025 222.814L31.3773 222.843ZM26.3575 223.931C25.3076 223.912 24.4266 224.247 23.7145 224.934C23.0187 225.639 22.6617 226.508 22.6436 227.541C22.6258 228.558 22.9605 229.43 23.6479 230.159C24.3518 230.888 25.2121 231.262 26.2286 231.279C27.1785 231.296 27.9585 231.018 28.5686 230.445C29.1957 229.856 29.5759 229.088 29.7092 228.14L29.7289 227.015C29.6114 226.113 29.2491 225.381 28.6422 224.821C28.0356 224.243 27.274 223.947 26.3575 223.931ZM37.6715 222.804C39.1716 222.813 40.3049 223.3 41.0715 224.264C41.7559 225.159 42.0769 226.34 42.0345 227.806L34.4607 227.673L34.4589 227.773C34.4236 228.839 34.7829 229.738 35.5369 230.467C36.2253 231.13 37.0692 231.486 38.0685 231.537C39.068 231.571 39.9663 231.204 40.7632 230.434L41.4649 231.772C40.1525 232.465 38.971 232.828 37.9203 232.86C36.3694 232.899 35.1195 232.402 34.1708 231.369C33.2882 230.37 32.8679 229.146 32.91 227.696C32.9512 226.297 33.4218 225.13 34.3216 224.195C35.2045 223.277 36.3211 222.813 37.6715 222.804ZM40.233 226.449C40.076 224.946 39.206 224.181 37.6229 224.153C37.0063 224.142 36.4362 224.332 35.9126 224.723C35.389 225.114 34.9961 225.657 34.7339 226.353L40.233 226.449ZM52.6608 232.918L50.961 232.888C50.9695 232.405 50.9778 231.93 50.986 231.463C50.9942 230.997 51.0107 230.53 51.0356 230.064C51.0639 229.398 51.0749 228.773 51.0684 228.189C51.062 227.606 51.0374 227.105 50.9947 226.688C50.969 226.254 50.9168 225.903 50.8382 225.635C50.5537 224.747 50.0033 224.287 49.1871 224.256C48.3375 224.224 47.5922 224.428 46.951 224.867L46.113 225.602L45.9868 232.801L44.3621 232.773C44.4421 231.057 44.517 228.216 44.5865 224.25C44.5882 224.15 44.5909 224 44.5944 223.8C44.5979 223.6 44.5938 223.359 44.5821 223.075L46.1073 223.077L46.0617 224.251C47.0937 223.386 48.2179 222.964 49.4344 222.985C50.5842 223.005 51.4112 223.378 51.9152 224.104C52.468 224.897 52.7272 226.277 52.6927 228.243C52.684 228.743 52.6749 229.259 52.6656 229.793C52.6562 230.326 52.6548 230.884 52.6612 231.468C52.6679 232.035 52.6691 232.443 52.6647 232.693C52.6606 232.926 52.6593 233.001 52.6608 232.918ZM59.8117 223.192C61.3117 223.202 62.445 223.688 63.2116 224.652C63.896 225.547 64.217 226.728 64.1747 228.194L56.6008 228.061L56.5991 228.161C56.5637 229.228 56.923 230.126 57.677 230.856C58.3655 231.518 59.2094 231.874 60.2086 231.925C61.2082 231.959 62.1064 231.592 62.9034 230.822L63.6051 232.16C62.2927 232.854 61.1112 233.216 60.0604 233.248C58.5095 233.287 57.2597 232.79 56.311 231.757C55.4284 230.758 55.0081 229.534 55.0502 228.084C55.0914 226.685 55.5619 225.518 56.4618 224.583C57.3447 223.665 58.4613 223.202 59.8117 223.192ZM62.3732 226.837C62.2162 225.334 61.3461 224.569 59.763 224.541C59.1464 224.53 58.5764 224.72 58.0528 225.111C57.5292 225.502 57.1362 226.045 56.874 226.741L62.3732 226.837ZM71.0703 225.04C70.7908 224.818 70.5427 224.705 70.3261 224.701C69.3596 224.685 68.6269 225.113 68.1282 225.988C67.7835 226.632 67.6217 227.304 67.6428 228.005C67.6355 228.422 67.6271 228.896 67.6178 229.43C67.6084 229.963 67.6061 230.571 67.6108 231.255C67.6155 231.938 67.615 232.438 67.6095 232.755C67.6206 233.072 67.6265 233.214 67.627 233.18L66.0268 233.177C66.1052 231.562 66.1548 228.729 66.1758 224.679C66.1466 224.445 66.1288 224.036 66.1223 223.453L67.6971 223.48L67.6419 225.204C68.0307 223.944 68.8835 223.318 70.2002 223.324C70.5502 223.33 70.8491 223.394 71.097 223.515L71.0703 225.04ZM78.3963 226.168C78.3993 225.051 77.7919 224.516 76.5742 224.561C76.274 224.572 75.9479 224.633 75.5959 224.744C75.2608 224.838 74.9336 224.966 74.614 225.127C74.3111 225.288 74.0162 225.475 73.7291 225.686C73.4586 225.898 73.2381 226.119 73.0673 226.35L73.0936 224.85C73.978 223.849 75.162 223.344 76.6457 223.337C77.5958 223.337 78.3586 223.567 78.934 224.027C79.6078 224.572 79.9356 225.37 79.9172 226.42L79.8269 231.569C79.8202 231.952 79.9585 232.146 80.2417 232.151C80.3417 232.153 80.7377 231.91 81.4297 231.422L81.406 232.772C80.8459 233.346 80.3575 233.629 79.9409 233.621C79.0744 233.606 78.5483 233.189 78.3626 232.369C77.5821 233.155 76.5333 233.553 75.2162 233.564C74.8163 233.557 74.451 233.475 74.1203 233.319C73.7894 233.18 73.5011 232.983 73.2555 232.729C73.01 232.475 72.8234 232.18 72.696 231.844C72.5685 231.508 72.5081 231.149 72.5148 230.766C72.5295 229.933 72.8249 229.246 73.4011 228.706C73.9431 228.215 74.6569 227.911 75.5424 227.793C75.8763 227.766 76.2771 227.723 76.7449 227.664C77.2129 227.589 77.7561 227.507 78.3744 227.418L78.3963 226.168ZM78.3846 231.119L78.4266 228.719C78.1761 228.748 77.8336 228.792 77.3992 228.851C76.9817 228.894 76.4806 228.952 75.8959 229.025C75.3445 229.098 74.8829 229.282 74.511 229.576C74.1558 229.869 73.9748 230.208 73.9681 230.591C73.9599 231.058 74.0947 231.452 74.3725 231.773C74.6672 232.079 75.0478 232.235 75.5144 232.244C75.8643 232.25 76.3581 232.133 76.9957 231.894C77.6506 231.623 78.1136 231.364 78.3846 231.119ZM88.733 223.824L88.7141 224.899L86.2645 224.856L86.09 229.103C86.0582 229.97 86.0314 230.544 86.0098 230.827C86.0051 231.094 86.0053 231.086 86.0102 230.802C85.9942 231.719 86.0861 232.179 86.2861 232.182C86.3861 232.184 86.5289 232.12 86.7145 231.99C86.9171 231.843 87.0436 231.762 87.0938 231.746C87.1263 231.797 87.1742 231.915 87.2377 232.099C87.3014 232.267 87.389 232.502 87.5004 232.804C86.5058 233.436 85.6754 233.739 85.0091 233.71C84.6264 233.67 84.4475 232.942 84.4723 231.525C84.4744 231.409 84.5134 230.609 84.5894 229.127C84.6151 228.611 84.6651 227.187 84.7393 224.854L83.2895 224.829C83.3065 224.812 83.318 224.629 83.3242 224.279L83.3334 223.754L84.7831 223.78L84.8287 221.18L86.3399 220.557L86.2829 223.806C87.8993 223.834 88.716 223.84 88.733 223.824ZM94.7672 223.805C96.2673 223.814 97.4006 224.301 98.1672 225.265C98.8516 226.16 99.1726 227.341 99.1302 228.807L91.5564 228.674L91.5546 228.774C91.5193 229.84 91.8786 230.739 92.6326 231.469C93.3211 232.131 94.1649 232.487 95.1642 232.538C96.1638 232.572 97.062 232.205 97.859 231.435L98.5606 232.773C97.2483 233.466 96.0667 233.829 95.016 233.861C93.4651 233.9 92.2153 233.403 91.2666 232.37C90.3839 231.371 89.9637 230.147 90.0057 228.697C90.047 227.298 90.5175 226.131 91.4173 225.196C92.3002 224.278 93.4169 223.814 94.7672 223.805ZM97.3287 227.45C97.1717 225.947 96.3017 225.182 94.7186 225.154C94.102 225.143 93.5319 225.333 93.0083 225.724C92.4847 226.115 92.0918 226.658 91.8296 227.354L97.3287 227.45Z" fill="#CC0404"/>
</svg>
