<svg width="129" height="122" viewBox="0 0 129 122" fill="none" xmlns="http://www.w3.org/2000/svg">
<path d="M0.482498 70.5811V70.5767L0.477905 70.5614L0.482498 70.5811Z" fill="#CC0404"/>
<path d="M2.52706 75.4886L2.4962 75.4514C2.49414 75.4493 2.49414 75.4493 2.49414 75.4493L2.52706 75.4886Z" fill="#CC0404"/>
<path d="M2.52706 52.809L2.4962 52.7717C2.49414 52.7717 2.49414 52.7717 2.49414 52.7717L2.52706 52.809Z" fill="#CC0404"/>
<path d="M0.482505 47.9055C0.482505 47.9055 0.482505 47.8989 0.480327 47.8946L0.478149 47.888L0.482505 47.9055Z" fill="#CC0404"/>
<path d="M129 47.9716C129.002 47.3939 128.89 46.8343 128.71 46.3037C128.887 45.8136 128.98 45.3195 128.982 44.8417C128.986 44.0901 128.779 43.3634 128.465 42.7794L128.455 42.7612C128.36 42.5857 128.23 42.3999 128.086 42.214V28.1811C128.658 27.3541 128.998 26.3598 129 25.2922C129 23.2259 127.764 21.3698 125.874 20.588L79.172 0.924006H79.0362C78.0556 0.576917 77.0387 0.368713 76.0072 0.368713C75.0004 0.368713 73.9913 0.566761 73.0211 0.90344H72.8996L4.45126 28.6996L4.28094 28.7956L4.28497 28.8016C3.4117 29.265 2.76544 29.9082 2.31973 30.5307C1.53994 31.6231 1.14084 32.7748 0.850846 33.8201L0.84883 33.8343C0.413455 35.4575 0.231041 37.1051 0.119678 38.4999L0.117662 38.512C0.0143613 39.9126 0.00831445 41.0968 0.000251953 41.583V41.5952V41.8547C0.00226758 43.5554 0.0954902 45.7664 0.480475 47.8941L0.486521 47.9167C0.689344 48.9864 0.974807 50.0726 1.46133 51.1304L1.46939 51.1467L1.47115 51.1507C1.71857 51.6715 2.04057 52.2288 2.48627 52.7597L2.49635 52.7719C2.5286 52.8108 2.57546 52.8456 2.612 52.8824C2.51878 52.9926 2.39708 53.0987 2.31998 53.2109C1.53792 54.3012 1.1411 55.4529 0.851098 56.496L0.849082 56.5061V56.5102C0.413707 58.1334 0.231293 59.783 0.11993 61.1775L0.117914 61.1877C0.0141094 62.5905 0.0080625 63.7727 0 64.2607V64.2708V64.5321C0.00201563 66.2351 0.0952383 68.4463 0.482238 70.5758L0.48627 70.5921C0.689092 71.6641 0.974555 72.7523 1.46108 73.8098L1.4709 73.8281C1.7163 74.3448 2.0383 74.9021 2.48602 75.4389L2.4961 75.4513C2.57723 75.5493 2.69665 75.6372 2.79189 75.735C2.63165 75.9127 2.44747 76.0884 2.31973 76.2659C1.53767 77.3582 1.14084 78.5099 0.850846 79.5509L0.844799 79.5796L0.84883 79.5672C0.413455 81.1904 0.231041 82.8403 0.119678 84.2347L0.117662 84.2469C0.0143613 85.6475 0.00831445 86.8317 0.000251953 87.3217V87.3339V87.587C0.00226758 89.2918 0.0954902 91.5051 0.48249 93.6348L0.486521 93.6511C0.689344 94.7211 0.974807 95.8093 1.46133 96.8648L1.47115 96.8851C1.71656 97.4038 2.03855 97.9591 2.48627 98.4961L2.45402 98.4593L2.4966 98.5103C2.92392 99.0105 3.51147 99.4945 4.24516 99.8558L4.2371 99.868L4.2512 99.8761L4.35451 99.9353L54.732 120.888L54.8474 120.937C55.9638 121.396 57.151 121.631 58.3443 121.631C59.5154 121.631 60.6885 121.404 61.7945 120.949L126.271 94.5451V94.5431C127.015 94.2409 127.716 93.7488 128.253 92.9587L128.255 92.9607C128.255 92.9607 128.257 92.9546 128.259 92.9506C128.261 92.9485 128.263 92.9485 128.265 92.9445H128.263C128.771 92.1685 128.978 91.352 128.982 90.576C128.986 89.8245 128.779 89.0978 128.466 88.5138L128.456 88.4955V88.4976C128.36 88.3219 128.231 88.1342 128.087 87.9484V73.9175C128.658 73.0905 128.998 72.0922 129.001 71.0265C129.003 70.3813 128.867 69.7544 128.638 69.1684C128.869 68.6172 128.98 68.0558 128.982 67.5185C128.986 66.7652 128.779 66.0426 128.466 65.4543L128.456 65.436C128.36 65.2623 128.231 65.0744 128.087 64.8886V50.8598C128.657 50.0318 128.998 49.0352 129 47.9716ZM54.4904 115.117L6.51349 95.1603L6.33309 94.948C6.18318 94.7132 5.99094 94.266 5.83675 93.7108C5.59789 92.8797 5.43362 91.7976 5.33435 90.7032C5.23508 89.6109 5.20056 88.5105 5.20056 87.5876V87.3692C5.20863 86.6567 5.23483 84.5945 5.52659 82.6547C5.66441 81.6868 5.87731 80.7537 6.14035 80.0922L6.19528 79.9719L54.4899 99.7156V115.117H54.4904ZM54.4904 92.0588L10.8352 73.8957L6.51374 72.1031L6.33335 71.8908C6.18343 71.6539 5.99119 71.2088 5.837 70.6553C5.59815 69.8202 5.43387 68.7401 5.3346 67.646C5.23533 66.5537 5.20082 65.4533 5.20082 64.5321V64.3117C5.20888 63.5972 5.23508 61.537 5.52684 59.5951C5.66466 58.6293 5.87756 57.6942 6.1406 57.0348L6.19553 56.9144L54.4902 76.6579V92.0588H54.4904ZM54.4904 55.2341V56.1689V69.3812L10.3714 51.0238L6.51374 49.4249L6.33335 49.2106C6.18343 48.9758 5.99119 48.5286 5.837 47.9777C5.59815 47.1443 5.43387 46.0645 5.3346 44.9679C5.23533 43.8735 5.20082 42.7751 5.20082 41.8545V41.6338C5.20888 40.9214 5.23508 38.8591 5.52684 36.9193C5.66466 35.9514 5.87756 35.0185 6.1406 34.3569L6.19553 34.2385L54.4902 53.9803V55.2341H54.4904ZM122.885 90.2787L60.0052 116.023L59.8389 116.098C59.3546 116.29 58.8502 116.39 58.3438 116.39C58.1634 116.39 57.9792 116.364 57.8008 116.335V100.742C58.0379 100.769 58.2831 100.783 58.5201 100.783C59.4665 100.783 60.4146 100.595 61.2999 100.228L61.3607 100.202L122.886 74.8963V90.2787H122.885ZM122.885 67.1334V67.2192L60.0052 92.9655L59.8389 93.0392C59.3546 93.2332 58.8502 93.3312 58.3438 93.3312C58.1634 93.3312 57.9792 93.3048 57.8008 93.2801V77.6852C58.0379 77.7116 58.2831 77.7261 58.5201 77.7261C59.4665 77.7261 60.4146 77.5382 61.2999 77.1726L61.3607 77.1441L104.513 59.3971L122.885 51.8383V67.1334ZM122.885 44.0759V44.5433L60.0052 70.2879L59.8389 70.3613C59.3546 70.5553 58.8502 70.6553 58.3438 70.6553C58.1634 70.6553 57.9792 70.6286 57.8008 70.6025V56.3469V55.0055C58.0379 55.0342 58.2831 55.0462 58.5201 55.0462C59.4665 55.0462 60.4146 54.8606 61.2999 54.4952L61.3607 54.4685L122.886 29.1612V44.0759H122.885Z" fill="#CC0404"/>
<path d="M0.482533 93.6406V93.6362L0.477905 93.6229L0.482533 93.6406Z" fill="#CC0404"/>
</svg>
