<svg width="643" height="280" viewBox="0 0 643 280" fill="none" xmlns="http://www.w3.org/2000/svg">
<path fill-rule="evenodd" clip-rule="evenodd" d="M265.385 72.5802C265.265 72.7124 262.813 73.339 259.939 73.9723C256.786 74.6661 254.872 75.2452 255.111 75.4299C255.33 75.598 254.983 75.6497 254.338 75.5456C253.697 75.4409 253.054 75.4812 252.914 75.6341C252.775 75.7891 248.797 76.7919 244.075 77.8647C232.701 80.4478 226.84 81.8996 226.294 82.2655C226.046 82.4305 224.386 82.9167 222.6 83.3452C219.141 84.1763 216.431 84.9284 214.28 85.6535C213.552 85.8983 211.145 86.614 208.933 87.2429C206.72 87.8718 204.435 88.5538 203.852 88.7576C202.807 89.1254 199.159 90.1912 194.488 91.4943C193.158 91.8651 192.079 92.196 192.086 92.2301C192.093 92.2643 191.496 92.4709 190.759 92.6881C190.026 92.9068 188.709 93.3378 187.837 93.6462C186.965 93.9545 185.172 94.5459 183.851 94.9608C182.533 95.3752 180.741 95.9666 179.866 96.2755C178.994 96.5819 177.798 96.9666 177.206 97.1281C176.614 97.2877 175.906 97.5723 175.633 97.7552C175.358 97.9408 174.455 98.199 173.622 98.3315C172.791 98.4615 172.144 98.7292 172.185 98.924C172.225 99.1189 172.015 99.2258 171.714 99.161C171.415 99.0957 170.538 99.3673 169.763 99.7644C168.991 100.161 166.761 100.911 164.811 101.431C160.868 102.478 160.03 102.754 158.917 103.365C158.118 103.803 156.456 104.405 151.474 106.058C149.842 106.599 147.877 107.365 147.107 107.759C146.341 108.154 145.033 108.618 144.206 108.792C143.376 108.966 142.549 109.269 142.367 109.468C142.188 109.667 141.507 109.986 140.86 110.176C140.211 110.366 137.207 111.518 134.181 112.734C131.155 113.949 128.39 115.052 128.037 115.184C127.681 115.32 127.263 115.571 127.104 115.744C126.943 115.919 126.448 116.039 125.999 116.009C125.552 115.981 124.881 116.237 124.513 116.578C124.143 116.92 123.507 117.229 123.101 117.264C122.695 117.299 121.675 117.705 120.832 118.165C119.992 118.624 119.07 119.096 118.78 119.213C118.494 119.33 117.909 119.593 117.483 119.797C116.247 120.393 111.61 122.264 110.02 122.809C109.217 123.084 108.596 123.465 108.636 123.656C108.676 123.849 108.258 124.1 107.709 124.215C107.163 124.329 106.567 124.582 106.392 124.774C106.215 124.968 105.779 125.234 105.425 125.362C103.171 126.18 97.9031 128.468 97.4995 128.804C97.2346 129.025 96.3399 129.474 95.5102 129.803C94.6832 130.132 93.6917 130.744 93.3085 131.164C92.9253 131.584 92.2478 131.904 91.7999 131.876C91.3549 131.848 90.9119 132.093 90.8149 132.422C90.7142 132.774 90.1773 133.029 89.5112 133.043C88.1357 133.071 85.8102 134.493 86.3991 134.944C86.6457 135.136 86.3788 135.278 85.7423 135.294C84.3871 135.322 81.5874 137.187 81.9548 137.816C82.1739 138.196 82.0466 138.227 81.297 137.967C80.1871 137.583 76.5891 139.081 76.9501 139.776C77.0678 140.006 76.8016 140.29 76.3577 140.406C75.9142 140.524 75.1468 140.831 74.6542 141.09C72.7181 142.107 71.9216 142.484 70.9778 142.824C69.9661 143.187 67.1383 145.293 66.6806 146.024C66.5391 146.251 66.074 146.474 65.65 146.518C63.9203 146.702 63.4688 147.005 63.9383 147.663C64.2331 148.071 64.1354 148.479 63.6919 148.709C63.175 148.976 62.9997 148.847 63.0839 148.263C63.223 147.289 61.8634 147.838 60.376 149.359C59.8749 149.868 59.1756 150.348 58.8162 150.424C58.4595 150.498 57.8728 151.057 57.5148 151.667C57.0173 152.513 56.5102 152.8 55.3666 152.88C54.0707 152.969 53.9395 153.078 54.3866 153.699C54.9099 154.435 53.1905 155.612 52.4379 155.032C51.7653 154.514 45.9538 157.969 46.125 158.786C46.1633 158.969 45.6213 159.353 44.9215 159.636C44.2193 159.921 43.5601 160.564 43.4558 161.066C43.3226 161.694 43.1037 161.857 42.7534 161.587C42.3825 161.302 42.1884 161.388 42.0365 161.913C41.9214 162.308 41.5917 162.58 41.3054 162.519C41.0191 162.457 40.1783 162.983 39.4388 163.687C38.7016 164.389 37.9801 164.915 37.8386 164.851C37.6975 164.788 37.3086 165.014 36.9816 165.355C36.6513 165.695 35.3809 166.919 34.1575 168.077C29.8878 172.116 26.3973 175.849 26.2523 176.531C26.1714 176.909 25.3789 177.693 24.4916 178.275C22.8601 179.345 20.4023 182.551 19.6308 184.617C19.4001 185.237 19.0366 185.779 18.8221 185.824C18.6075 185.869 18.0905 186.899 17.6728 188.113C17.2551 189.326 16.707 190.361 16.4535 190.414C15.5814 190.597 15.2804 194.382 16.0901 194.998C16.6641 195.434 16.6602 195.776 16.0709 196.503C15.0407 197.778 15.1503 202.871 16.2252 203.74C16.4312 203.904 16.767 204.48 16.9754 205.017C17.915 207.435 18.2283 208 19.6078 209.741C20.4114 210.759 21.5799 211.839 22.2015 212.141C22.8231 212.443 23.3517 212.787 23.3761 212.904C23.4005 213.02 24.9708 213.811 26.8616 214.66C28.7557 215.511 30.2902 216.423 30.2699 216.687C30.25 216.953 30.7232 217.143 31.3188 217.113C32.7517 217.039 34.2034 217.708 33.881 218.293C33.7374 218.552 34.1533 218.649 34.8108 218.512C35.7497 218.315 35.8927 218.401 35.499 218.923C34.961 219.631 35.8369 221.842 36.7326 222.036C37.022 222.099 37.1547 222.344 37.0241 222.581C36.8934 222.818 37.0783 222.951 37.4322 222.877C38.059 222.746 37.8382 222.094 36.3986 219.817L35.8256 218.914L37.5085 219.714C38.4327 220.156 39.0948 220.692 38.9742 220.908C38.8565 221.124 39.0876 221.325 39.4865 221.355C40.0334 221.397 40.048 221.453 39.5543 221.582C39.1788 221.677 39.0988 221.989 39.3635 222.309C39.6198 222.616 39.5742 223.051 39.2607 223.276C38.8767 223.554 39.3112 224.004 40.6045 224.666C41.6566 225.205 42.549 225.8 42.5886 225.988C42.6285 226.179 42.8909 226.168 43.1688 225.968C43.4466 225.767 43.6683 225.756 43.6639 225.944C43.6358 226.809 44.0567 227.222 44.8034 227.066C45.2519 226.972 45.6743 227.114 45.739 227.381C45.8179 227.702 46.0399 227.61 46.3911 227.106C46.6846 226.689 47.2809 226.356 47.7199 226.369C48.2003 226.386 48.3265 226.252 48.0417 226.031C47.7819 225.832 47.1213 225.761 46.578 225.874C45.9902 225.997 45.213 225.661 44.6655 225.046C44.1567 224.478 43.4773 224.066 43.1541 224.134C42.7501 224.219 42.7275 224.083 43.0871 223.689C43.371 223.378 43.4168 222.861 43.19 222.542C42.8319 222.04 42.8725 222.025 43.4859 222.427C43.8768 222.683 44.2503 223.133 44.3177 223.427C44.4623 224.076 48.1604 225.528 49.1595 225.327C49.5531 225.249 49.764 225.381 49.6337 225.62C49.3031 226.222 52.0213 227.259 52.8294 226.84C53.1916 226.653 53.5346 226.722 53.591 226.991C53.6473 227.26 54.2688 227.631 54.9705 227.815C55.6722 228 56.6113 228.304 57.0605 228.491C57.5074 228.68 58.2581 228.752 58.7289 228.653C59.197 228.555 59.6141 228.616 59.6507 228.791C59.7197 229.121 64.635 229.748 64.6647 229.431C64.6756 229.33 65.1396 229.407 65.6945 229.599C66.5538 229.897 66.6931 229.868 66.6028 229.409C66.5182 228.963 66.5986 228.944 67.0707 229.296C67.382 229.533 67.7928 229.675 67.9813 229.617C69.1414 229.255 69.5017 229.336 69.3313 229.926C69.1974 230.383 69.775 230.669 71.185 230.848C72.5108 231.013 73.1688 231.321 73.0522 231.723C72.9192 232.185 73.2088 232.221 74.2018 231.866C75.0351 231.568 75.5677 231.57 75.6308 231.871C75.6863 232.136 77.3052 232.52 79.2298 232.725C81.1516 232.931 82.6183 233.297 82.4853 233.536C82.2282 234.003 82.9302 234.106 85.1482 233.92C85.9146 233.858 86.7967 233.793 87.1072 233.776C88.2981 233.713 88.6929 233.404 87.8399 233.205C87.3444 233.089 87.2135 232.936 87.5414 232.863C87.8725 232.792 88.9172 233.045 89.8667 233.427C90.8163 233.809 91.3959 233.882 91.151 233.588C90.8451 233.224 90.9675 233.072 91.5391 233.108C91.999 233.137 92.4432 233.495 92.529 233.905C92.6144 234.313 92.9294 234.595 93.2275 234.532C93.5284 234.469 93.8291 234.683 93.8968 235.006C93.9742 235.376 94.5355 235.487 95.4103 235.304C96.2656 235.125 96.63 234.879 96.356 234.668C96.1067 234.477 96.4693 234.445 97.1587 234.598C97.8477 234.749 98.4396 235.007 98.4741 235.172C98.5082 235.334 98.9181 235.389 99.3861 235.291C99.9127 235.181 100.044 234.96 99.732 234.707C99.4584 234.483 99.7953 234.509 100.486 234.767C101.177 235.023 102.217 235.212 102.802 235.186C104.566 235.11 109.577 235.392 109.921 235.588C110.099 235.687 111.494 235.642 113.026 235.487C114.556 235.333 116.1 235.305 116.457 235.427C116.817 235.549 117.9 235.529 118.864 235.382C119.828 235.235 120.646 235.265 120.684 235.446C120.722 235.628 120.975 235.617 121.249 235.422C121.519 235.227 121.789 235.296 121.849 235.579C121.916 235.902 122.774 235.956 124.16 235.726C125.371 235.525 127.138 235.478 128.087 235.621C129.033 235.764 130.189 235.801 130.658 235.703C131.126 235.605 131.968 235.603 132.532 235.696C133.665 235.885 136.635 235.835 138.73 235.589C139.125 235.542 139.318 235.814 139.197 236.236C139.037 236.779 139.16 236.835 139.68 236.457C140.408 235.934 145.156 234.707 144.754 235.148C144.313 235.628 149.524 235.704 153.048 235.27C153.975 235.156 154.905 235.141 155.117 235.235C155.331 235.329 155.835 235.11 156.238 234.745C156.84 234.202 156.907 234.2 156.621 234.738C156.36 235.227 156.485 235.282 157.11 234.961C157.569 234.724 158.093 234.644 158.276 234.783C158.46 234.925 159.162 234.887 159.839 234.704C160.518 234.517 161.665 234.399 162.395 234.439C163.122 234.477 164.766 234.399 166.05 234.267C167.333 234.132 168.933 233.965 169.604 233.894C170.273 233.825 171.038 233.811 171.3 233.868C171.564 233.921 172.906 233.842 174.279 233.692C178.427 233.237 179.473 233.221 179.972 233.601C180.468 233.984 184.303 233.052 186.157 232.098C186.949 231.689 187.019 231.702 186.469 232.144C185.57 232.867 186.116 233.128 188.023 232.884C189.229 232.73 189.423 232.57 189.08 232.017C188.829 231.608 188.946 231.277 189.375 231.187C189.787 231.101 190.046 231.351 189.986 231.776C189.899 232.399 190.323 232.44 192.684 232.033C194.278 231.758 195.319 231.423 195.1 231.255C194.615 230.88 196.016 230.725 197.096 231.034C197.544 231.162 199.318 230.967 201.036 230.601C202.756 230.234 204.194 230.084 204.235 230.269C204.274 230.455 204.636 230.434 205.041 230.226C205.445 230.017 205.959 230.029 206.183 230.251C206.491 230.557 206.638 230.522 206.802 230.098C206.921 229.792 207.257 229.491 207.549 229.43C207.839 229.369 207.954 229.544 207.805 229.819C207.639 230.122 207.918 230.191 208.517 229.995C209.061 229.816 210.102 229.774 210.833 229.902C211.898 230.085 212.14 230.033 212.06 229.626C211.989 229.242 212.09 229.213 212.477 229.503C212.76 229.714 214.716 229.613 216.825 229.28C218.933 228.948 220.666 228.708 220.675 228.751C220.683 228.791 221.675 228.654 222.883 228.448C224.089 228.239 225.775 228.052 226.628 228.03C227.713 228.002 228.153 227.841 228.086 227.492C228.02 227.147 228.195 227.14 228.651 227.468C229.189 227.857 229.373 227.831 229.667 227.322C229.962 226.814 230.104 226.795 230.453 227.212C230.783 227.609 231.93 227.503 235.481 226.755C238.01 226.221 240.381 225.848 240.75 225.928C241.118 226.008 241.51 225.767 241.62 225.392C241.819 224.702 244.906 223.766 245.03 224.357C245.065 224.526 245.763 224.566 246.581 224.445C247.989 224.236 248.006 224.207 246.902 223.892C245.812 223.579 245.838 223.55 247.297 223.448C248.275 223.382 248.796 223.551 248.693 223.906C248.604 224.218 248.971 224.624 249.513 224.808C250.381 225.106 250.43 225.035 249.934 224.206C249.41 223.331 249.497 223.245 251.247 222.923C253.784 222.454 254.395 222.83 252.322 223.585C249.434 224.638 251.355 224.703 256.4 223.724C257.526 223.505 258.487 223.512 258.535 223.741C258.582 223.968 259.089 223.958 259.665 223.72C260.262 223.473 260.758 223.481 260.823 223.737C260.891 224.008 261.151 223.899 261.477 223.46C262.077 222.655 263.555 221.953 263.168 222.657C263.036 222.901 263.197 223.158 263.529 223.229C263.861 223.302 264.096 223.174 264.048 222.945C264.001 222.718 264.22 222.477 264.535 222.411C264.853 222.344 264.998 222.496 264.86 222.752C264.5 223.408 265.416 223.143 266.168 222.375C266.674 221.86 266.744 221.846 266.519 222.301C266.345 222.652 266.563 222.804 267.084 222.695C267.552 222.597 267.897 222.34 267.852 222.125C267.807 221.908 268.319 221.604 268.987 221.449C270.143 221.18 270.145 221.16 269.053 221.083C268.418 221.038 267.122 221.221 266.171 221.487C265.218 221.756 264.272 221.845 264.064 221.686C263.856 221.526 263.284 221.576 262.796 221.798C262.023 222.151 262.022 222.115 262.795 221.542C263.283 221.178 264.072 220.906 264.549 220.936C265.024 220.967 266.125 220.543 266.99 219.995C268.082 219.307 268.66 219.123 268.866 219.401C269.029 219.623 269.781 219.673 270.536 219.515C271.62 219.288 271.804 219.098 271.404 218.616C271 218.13 271.055 218.077 271.68 218.35C272.798 218.842 273.1 219.787 272.122 219.725C271.627 219.695 271.367 219.928 271.451 220.327C271.526 220.687 271.32 220.923 270.994 220.853C270.665 220.781 270.436 220.911 270.484 221.14C270.594 221.664 272.078 221.378 272.215 220.807C272.275 220.553 272.963 220.48 273.928 220.628C274.814 220.763 275.507 220.709 275.464 220.506C275.422 220.303 275.128 220.193 274.81 220.259C274.496 220.325 274.35 220.171 274.488 219.916C274.63 219.662 274.484 219.508 274.167 219.574C273.849 219.641 273.545 219.381 273.491 218.999C273.434 218.616 273.549 218.483 273.74 218.703C273.949 218.936 274.763 218.881 275.715 218.564C276.795 218.208 277.246 218.195 277.065 218.527C276.911 218.806 277.413 219.064 278.203 219.113C278.98 219.159 279.793 219.404 280.012 219.654C280.291 219.975 280.513 219.954 280.768 219.586C281.518 218.489 284.061 217.814 284.537 218.585C284.782 218.978 285.382 219.203 285.874 219.083C287.001 218.811 291.623 218.384 292.171 218.502C292.397 218.551 292.909 218.232 293.311 217.792C293.732 217.33 294.081 217.18 294.135 217.435C294.185 217.678 294.452 217.716 294.727 217.516C295.003 217.318 295.081 217.039 294.901 216.901C294.72 216.761 295.194 216.605 295.953 216.551C296.796 216.494 297.394 216.723 297.481 217.138C297.59 217.659 297.284 217.849 296.223 217.922C295.455 217.976 294.859 218.187 294.902 218.391C295.015 218.93 296.222 218.752 301.514 217.413C303.442 216.926 305.29 216.6 305.622 216.685C306.636 216.955 309.301 216.63 309.221 216.246C309.18 216.049 309.371 215.934 309.642 215.992C310.537 216.186 313.9 215.843 317.6 215.179C319.599 214.821 321.462 214.569 321.741 214.622C322.022 214.674 323.897 214.351 325.912 213.904C327.927 213.455 329.613 213.257 329.656 213.462C329.699 213.667 329.972 213.572 330.266 213.25C330.573 212.913 331.193 212.72 331.732 212.792C332.812 212.937 335.701 212.28 338.141 211.333C339.075 210.971 340.152 210.744 340.536 210.827C340.923 210.909 342.494 210.761 344.032 210.495C353.034 208.941 353.165 210.025 344.189 211.773C338.539 212.872 337.003 213.288 337.087 213.69C337.147 213.975 336.894 214.139 336.516 214.057C335.456 213.828 330.003 214.857 329.74 215.335C329.609 215.572 330.07 215.662 330.764 215.534C331.459 215.405 332.533 215.272 333.151 215.239C334.606 215.159 340.435 214.012 342.153 213.465C343.007 213.194 343.471 213.229 343.45 213.563C343.43 213.867 343.979 213.964 344.779 213.796C345.525 213.64 346.103 213.341 346.058 213.13C346.015 212.921 346.85 212.593 347.918 212.399C349.293 212.148 349.808 212.217 349.688 212.63C349.595 212.951 349.756 213.163 350.046 213.102C350.335 213.041 350.527 212.678 350.467 212.297C350.372 211.675 350.42 211.669 350.918 212.253C351.42 212.846 351.536 212.832 352.199 212.106C352.598 211.668 353.043 211.361 353.184 211.424C353.528 211.578 362.244 210.262 364.765 209.678C365.869 209.421 366.95 209.346 367.165 209.513C367.39 209.686 368.038 209.569 368.692 209.235C369.318 208.917 372.515 208.16 375.794 207.555C379.661 206.842 381.985 206.246 382.399 205.863C382.87 205.429 383.062 205.389 383.13 205.713C383.18 205.954 383.76 205.973 384.419 205.759C385.075 205.544 385.544 205.215 385.456 205.032C385.244 204.574 380.717 204.606 380.461 205.068C380.35 205.27 379.566 205.511 378.718 205.603C376.849 205.803 367.001 207.478 364.171 208.077C362.807 208.365 362.093 208.332 362.018 207.974C361.887 207.347 363.819 206.437 364.374 206.864C365.105 207.426 365.775 206.931 365.576 205.979C365.465 205.451 364.911 204.928 364.341 204.819C363.771 204.707 363.544 204.539 363.835 204.442C365.752 203.806 366.783 203.607 366.837 203.862C366.87 204.023 367.528 204.109 368.3 204.057C369.226 203.993 369.661 203.782 369.589 203.437C369.529 203.151 369.865 202.922 370.335 202.928C373.095 202.971 372.965 202.904 372.194 203.889C371.643 204.592 370.895 204.897 369.046 205.177C367.713 205.379 366.655 205.703 366.696 205.898C366.736 206.091 368.466 205.907 370.542 205.487C372.618 205.067 374.523 204.706 374.777 204.686C375.032 204.664 375.353 204.586 375.494 204.513C376.151 204.165 378.715 203.618 378.757 203.815C378.783 203.939 379.3 203.963 379.905 203.87C380.508 203.777 380.971 203.542 380.93 203.347C380.889 203.15 381.244 203.015 381.719 203.046C382.194 203.076 382.542 202.905 382.492 202.666C382.441 202.427 382.134 202.334 381.808 202.459C381.485 202.583 381.074 202.508 380.901 202.292C380.681 202.022 381.568 201.744 383.764 201.395C385.515 201.118 387.988 200.668 389.257 200.393C390.529 200.119 391.604 200.074 391.65 200.291C391.695 200.51 392.209 200.587 392.791 200.465C393.371 200.343 393.993 200.356 394.17 200.495C394.534 200.773 408.703 197.858 409.494 197.342C409.982 197.024 410.443 196.946 413.882 196.591C414.799 196.498 415.971 196.152 416.486 195.821C417.146 195.402 417.341 195.376 417.146 195.734C416.989 196.014 417.105 196.193 417.395 196.132C417.688 196.071 418.003 195.774 418.1 195.473C418.228 195.067 418.415 195.017 418.816 195.281C419.537 195.753 421.42 195.564 422.283 194.933C422.757 194.586 422.884 194.595 422.681 194.962C422.522 195.256 422.648 195.441 422.966 195.375C423.28 195.309 423.504 195.071 423.457 194.848C423.4 194.575 423.761 194.506 424.565 194.637C425.221 194.743 425.647 195.029 425.515 195.271C425.382 195.512 425.777 195.606 426.395 195.476C427.011 195.347 427.554 195.428 427.602 195.657C427.65 195.884 427.922 195.905 428.207 195.698C428.563 195.439 428.518 195.21 428.054 194.953C427.376 194.575 427.592 193.997 428.478 193.811C428.745 193.755 428.858 193.904 428.727 194.141C428.599 194.377 428.763 194.63 429.097 194.701C429.439 194.776 429.621 194.438 429.52 193.924C429.372 193.194 429.465 193.11 429.988 193.495C430.606 193.948 430.836 193.588 430.436 192.787C430.332 192.582 430.606 192.571 431.044 192.762C431.482 192.952 432.953 192.876 434.316 192.595C437.622 191.909 439.656 191.877 438.78 192.524C438.306 192.873 438.462 192.939 439.333 192.761C440.183 192.587 440.412 192.358 440.105 191.991C439.779 191.6 440.028 191.416 441.106 191.257C441.893 191.14 442.584 191.249 442.637 191.502C442.759 192.081 445.551 191.905 446.556 191.256C447.398 190.709 450.355 190.178 451.35 190.391C451.704 190.468 452.038 190.326 452.096 190.077C452.215 189.56 456.714 188.2 456.809 188.654C456.892 189.048 460.322 188.262 460.647 187.777C461.153 187.023 468.53 184.921 469.745 185.184C470.224 185.287 470.818 185.125 471.176 184.796C471.61 184.393 471.812 184.359 471.878 184.673C472.031 185.406 473.61 184.823 473.503 184.074C473.441 183.655 473.551 183.553 473.78 183.815C473.988 184.055 474.399 184.077 474.692 183.865C474.985 183.653 476.946 183.045 479.048 182.515C483.106 181.491 483.073 181.498 487.165 180.807C488.626 180.561 489.911 180.198 490.018 180C490.128 179.803 490.447 179.69 490.728 179.752C491.011 179.813 491.35 179.666 491.48 179.427C491.624 179.169 492.397 178.988 493.374 178.984C494.284 178.983 495.105 178.894 495.202 178.788C495.536 178.423 503.234 176.115 506.545 175.388C507.129 175.259 507.88 174.9 508.216 174.591C508.553 174.282 509.167 174.048 509.58 174.075C509.993 174.102 510.72 173.798 511.199 173.405C511.734 172.959 513.01 172.556 514.543 172.346C516.44 172.087 516.898 171.911 516.5 171.598C516.134 171.308 516.287 171.289 517.016 171.532C517.585 171.723 518.012 171.705 517.967 171.492C517.923 171.279 518.517 171.063 519.288 171.008C520.057 170.956 520.653 170.75 520.612 170.553C520.571 170.356 521.445 169.963 522.558 169.68C523.67 169.394 525.891 168.707 527.493 168.15C530.534 167.093 533.13 166.254 534.275 165.958C534.645 165.861 534.889 165.473 534.813 165.094C534.699 164.508 534.774 164.478 535.315 164.884C535.871 165.303 536.022 165.261 536.514 164.552C537.11 163.691 541.572 162.153 541.7 162.765C541.742 162.962 542.049 163.068 542.38 162.998C542.709 162.929 542.784 162.637 542.544 162.35C542.303 162.06 542.354 161.775 542.652 161.713C542.953 161.65 543.396 161.838 543.641 162.13C543.99 162.548 544.227 162.528 544.766 162.033C545.314 161.524 545.297 161.371 544.674 161.229C544.158 161.112 544.399 160.946 545.393 160.734C546.217 160.559 546.871 160.624 546.846 160.883C546.821 161.139 547.241 161.311 547.778 161.264C548.315 161.219 548.728 161.065 548.698 160.92C548.668 160.778 549.313 160.496 550.128 160.292C552.95 159.59 553.735 159.182 554.245 158.159C554.527 157.593 555.113 157.028 555.543 156.904C555.977 156.78 556.633 156.596 557.002 156.496C557.371 156.395 557.808 156.01 557.968 155.637C558.133 155.257 558.231 155.475 558.192 156.135C558.128 157.204 558.23 157.262 559.311 156.771C560.953 156.029 560.981 155.954 559.832 155.442C558.55 154.872 558.368 154.075 559.402 153.542C560.032 153.217 560.163 153.326 560.011 154.046C559.857 154.77 559.99 154.876 560.628 154.548C561.077 154.315 561.602 154.254 561.802 154.405C562.187 154.703 564.719 153.389 564.632 152.935C564.601 152.785 565.083 152.627 565.699 152.586C566.315 152.543 566.777 152.317 566.727 152.08C566.678 151.843 567.147 151.847 567.768 152.09C569.228 152.659 569.667 152.548 569.48 151.658C569.38 151.178 569.933 150.666 571.144 150.119C573.244 149.172 573.666 149.312 571.72 150.311C570.992 150.683 570.605 151.138 570.854 151.329C571.155 151.559 571.553 151.43 572.082 150.929C572.511 150.52 573.325 149.947 573.889 149.657C574.592 149.294 574.677 149.115 574.156 149.086C573.362 149.042 575.241 147.223 576.061 147.24C576.286 147.245 577.083 146.936 577.833 146.55C578.795 146.057 579.442 145.939 580.04 146.143C580.655 146.358 580.859 146.317 580.791 145.996C580.741 145.753 581.259 145.437 581.944 145.293C582.63 145.15 584.041 144.502 585.082 143.85C586.62 142.888 586.866 142.814 586.397 143.447C585.897 144.117 585.945 144.162 586.715 143.77C587.227 143.51 587.652 143.498 587.703 143.741C587.767 144.046 587.976 144.001 588.432 143.58C588.782 143.255 589.256 143.072 589.484 143.173C589.708 143.273 589.854 143.163 589.804 142.924C589.754 142.687 590.138 142.298 590.658 142.059C591.178 141.821 592.1 141.116 592.706 140.494C593.468 139.714 593.908 139.5 594.138 139.806C594.358 140.104 594.789 139.873 595.454 139.103C596.687 137.673 598.915 136.242 599.658 136.403C599.969 136.47 600.621 136.113 601.109 135.613C601.598 135.112 602.121 134.678 602.271 134.648C603.421 134.428 608.073 130.576 607.712 130.144C607.187 129.513 608.65 128.236 610.291 127.893C611.197 127.703 611.532 127.32 611.616 126.387C611.678 125.697 612.077 125.062 612.503 124.972C612.927 124.884 613.236 124.624 613.188 124.395C613.14 124.166 613.381 124.04 613.722 124.113C614.396 124.259 616.897 121.427 617.173 120.206C617.264 119.793 617.562 119.407 617.832 119.351C618.102 119.294 618.162 119.051 617.963 118.812C617.765 118.572 618.263 117.868 619.07 117.249C619.877 116.631 620.768 115.555 621.051 114.861C621.33 114.169 621.741 113.586 621.955 113.567C623.109 113.47 625.475 108.299 624.761 107.44C624.497 107.128 624.556 106.95 624.894 107.024C625.217 107.095 625.466 107.005 625.449 106.826C625.235 104.623 625.299 103.721 625.694 103.425C625.952 103.23 626.063 102.479 625.938 101.757C625.81 101.037 625.958 100.118 626.266 99.7134C626.708 99.1302 626.67 98.9474 626.085 98.8204C625.506 98.6943 625.459 98.291 625.862 96.9528C626.148 96.0124 626.378 94.8488 626.373 94.3635C626.368 93.8803 626.654 93.0949 627.008 92.6182C627.587 91.8428 627.561 91.8001 626.749 92.2134C625.905 92.6417 625.884 92.5832 626.436 91.3312C626.89 90.3053 626.866 90.0231 626.335 90.1279C625.783 90.2394 625.771 90.1705 626.28 89.7956C626.633 89.5352 626.828 89.1756 626.714 88.9939C626.601 88.8143 626.557 87.8256 626.615 86.8006C626.674 85.7737 626.608 84.7098 626.472 84.4343C626.336 84.1588 626.508 83.9949 626.858 84.0704C627.547 84.2197 627.033 82.3103 626.218 81.6821C625.907 81.4454 626.162 81.3165 626.973 81.2998C627.847 81.2823 628.046 81.163 627.676 80.878C627.392 80.6607 626.881 79.6795 626.539 78.7007C626.197 77.7218 625.672 76.8088 625.368 76.6754C625.066 76.5395 624.904 76.1288 625.013 75.7581C625.156 75.2646 625.022 75.2174 624.505 75.5834C623.935 75.9879 623.903 75.9443 624.338 75.3563C624.898 74.5996 624.295 73.1347 623.139 72.4479C622.727 72.2029 622.641 71.9023 622.919 71.6763C623.44 71.2485 623.167 69.0959 622.604 69.2137C622.258 69.2861 621.601 68.4949 621.332 67.6832C621.27 67.4951 620.922 67.2786 620.559 67.1994C620.197 67.1222 619.695 66.655 619.446 66.1599C619.197 65.6669 618.733 65.2547 618.417 65.2454C618.098 65.2367 617.771 64.913 617.69 64.5253C617.609 64.1377 617.157 63.6873 616.686 63.5237C616.213 63.3607 615.56 62.7846 615.235 62.2427C614.909 61.7009 614.107 61.0405 613.453 60.7751C612.798 60.5076 612.208 60.0797 612.142 59.8209C611.939 59.0039 609.57 57.9401 608.951 58.3863C608.579 58.6549 608.477 58.6093 608.666 58.2615C608.995 57.6664 606.589 56.6335 605.403 56.8587C605.009 56.935 604.784 56.8186 604.904 56.6026C605.022 56.3871 604.465 56.1032 603.67 55.972C602.872 55.8414 602.188 55.5884 602.15 55.4097C602.113 55.2309 601.714 55.1613 601.266 55.2552C600.817 55.3492 600.407 55.2254 600.357 54.9823C600.256 54.5023 597.884 53.5063 597.19 53.6516C596.956 53.7006 596.528 53.4085 596.237 53.0021C595.908 52.5446 595.424 52.4113 594.959 52.6511C594.547 52.8632 594.31 52.8562 594.432 52.6336C594.7 52.1478 593.146 51.5318 592.748 51.9673C592.597 52.1332 591.579 51.7991 590.482 51.2279C589.388 50.6561 587.931 50.1834 587.246 50.1759C586.559 50.171 585.532 49.9898 584.961 49.776C584.387 49.5629 583.685 49.5588 583.397 49.768C583.106 49.9756 582.813 49.8672 582.742 49.5278C582.644 49.0618 582.285 49.0406 581.304 49.4389C580.369 49.8193 579.96 49.8106 579.877 49.4149C579.738 48.7501 572.451 47.7266 570.343 48.0758C569.528 48.2129 568.825 48.161 568.784 47.9641C568.739 47.7659 568.575 47.7477 568.417 47.9214C568.258 48.0951 567.381 48.1258 566.471 47.9872C565.561 47.8507 564.334 47.8372 563.746 47.9604C563.155 48.084 562.565 48.0693 562.431 47.9296C562.18 47.6634 555.588 47.2932 553.619 47.4329C551.422 47.5912 549.953 47.6159 549.441 47.507C549.158 47.4448 547.723 47.5396 546.254 47.7173C544.787 47.8924 543.417 48.0012 543.207 47.9571C542.677 47.8417 537.165 48.4654 535.036 48.8798C534.058 49.07 533.241 49.1238 533.214 48.9972C533.188 48.8707 532.832 48.8383 532.425 48.9235C531.578 49.1008 532.184 50.4647 533.257 50.8017C533.659 50.9273 533.526 50.9992 532.921 50.9874C532.372 50.9746 531.96 51.1488 532.007 51.3718C532.056 51.6048 531.584 51.7685 530.898 51.757C529.943 51.7389 529.779 51.8698 530.076 52.4135C530.279 52.7861 530.728 52.9856 531.073 52.8567C531.637 52.6484 532.033 53.0666 532.036 53.8691C532.037 54.0302 532.38 53.9857 532.8 53.7678C533.343 53.4884 533.617 53.6448 533.759 54.3197C533.867 54.8379 534.246 55.4232 534.601 55.6193C535.068 55.8799 535.042 55.9064 534.508 55.7204C533.289 55.2986 532.817 55.6134 533.61 56.3194C534.021 56.6841 534.78 56.9068 535.296 56.8135C536.072 56.674 536.103 56.7221 535.475 57.0842C534.67 57.5463 534.414 58.3505 534.718 59.4567C534.821 59.825 534.662 60.3007 534.367 60.5156C534.064 60.7343 533.944 60.6921 534.091 60.4223C534.237 60.1571 534.003 59.8182 533.573 59.6692C532.993 59.4698 532.652 59.6461 532.259 60.3511C531.967 60.8755 531.966 61.1317 532.254 60.9245C532.58 60.6886 532.701 60.812 532.574 61.2474C532.463 61.6334 532.078 61.9301 531.724 61.9077C531.367 61.8839 530.774 62.2178 530.407 62.6468C529.821 63.3335 529.833 63.3791 530.516 63.0266C531.036 62.7604 531.371 62.8768 531.532 63.3819C531.738 64.018 531.627 64.0853 530.837 63.8126C530.044 63.5384 529.952 63.5996 530.243 64.2116C530.645 65.0585 531.723 65.707 532.184 65.3819C532.358 65.2573 532.689 65.3788 532.918 65.6537C533.147 65.9265 533.059 66.2992 532.725 66.4784C532.259 66.7268 532.276 66.7779 532.785 66.6964C533.899 66.5175 533.155 67.881 532.004 68.122C531.032 68.3256 531.024 68.3839 531.919 68.7815C532.999 69.2617 533.3 69.6705 532.441 69.4835C531.497 69.2807 531.575 70.4175 532.567 71.3503C533.092 71.8421 533.356 72.3549 533.155 72.4894C532.953 72.6259 533.067 72.6272 533.406 72.4934C533.747 72.3591 534.366 72.4432 534.787 72.6758C535.206 72.911 535.768 72.9442 536.036 72.7498C536.324 72.5427 536.353 72.7651 536.108 73.3008C535.68 74.2291 536.041 74.6503 537.07 74.4244C537.395 74.3521 537.256 74.2009 536.764 74.086C535.966 73.9008 535.957 73.8607 536.688 73.7265C538.069 73.475 539.768 73.7106 539.252 74.0807C538.58 74.5673 535.961 74.8622 535.028 74.5586C534.187 74.2817 532.419 74.6582 531.53 75.3014C531.222 75.5232 530.777 75.4696 530.537 75.1824C530.3 74.8966 529.821 74.7202 529.475 74.7925C529.049 74.8818 529.054 75.0463 529.486 75.3018C530.684 76.0111 530.453 76.9192 529.045 77.0169C527.615 77.1172 527.437 77.7268 528.714 78.1682C529.711 78.5129 533.967 78.1038 538.093 77.267C539.789 76.9244 541.189 76.732 541.203 76.8422C541.28 77.5557 541.586 77.6153 542.21 77.0401C542.602 76.677 542.959 76.5458 543.001 76.7466C543.065 77.0539 547.744 77.2042 549.577 76.9587C552.796 76.5257 555.559 76.5112 556.563 76.9173C557.237 77.1913 557.895 77.2965 558.026 77.154C558.156 77.0114 559.085 77.0201 560.094 77.1716C561.1 77.3236 562.126 77.3038 562.371 77.1287C562.616 76.9516 563.02 76.9635 563.27 77.1565C563.519 77.3475 564.046 77.3377 564.44 77.1337C564.834 76.9317 565.193 76.9383 565.237 77.1492C565.307 77.4826 571.024 78.3002 572.531 78.1921C572.823 78.1708 573.699 78.4214 574.474 78.7496C575.249 79.0758 576.47 79.3506 577.184 79.3583C578.529 79.3766 578.69 79.4226 582.801 81C584.161 81.5224 586.223 82.2165 587.385 82.5454C588.547 82.8724 589.522 83.2637 589.552 83.4103C589.624 83.7497 593.953 85.4513 594.471 85.3428C595.215 85.1871 596.721 86.1044 596.964 86.8627C597.1 87.2872 597.444 87.5861 597.731 87.526C598.016 87.4665 598.117 87.5627 597.956 87.7389C597.796 87.9152 598.237 88.3992 598.941 88.8158C599.642 89.233 600.266 89.813 600.328 90.1082C600.39 90.4035 600.636 90.6037 600.875 90.5535C601.341 90.4561 603.486 92.8706 603.406 93.4012C603.378 93.5767 603.615 93.6635 603.932 93.597C604.25 93.5305 604.398 93.6819 604.261 93.9307C604.124 94.1795 604.406 94.7201 604.887 95.1289C605.369 95.5396 606.184 96.547 606.697 97.3685L607.629 98.8611L604.956 101.57C603.485 103.058 602.107 104.28 601.895 104.282C601.683 104.287 601.118 104.78 600.644 105.379C600.167 105.977 599.756 106.361 599.729 106.233C599.647 105.839 596.784 107.374 595.839 108.318C594.511 109.644 592.403 111.147 591.342 111.524C590.318 111.885 587.504 113.472 587.133 113.896C586.685 114.409 581.863 117.239 581.443 117.237C581.208 117.236 581.063 117.463 581.123 117.746C581.19 118.069 580.398 118.468 578.96 118.834C577.709 119.153 576.422 119.657 576.095 119.958C575.768 120.259 575.217 120.444 574.87 120.37C574.522 120.294 572.85 120.904 571.152 121.727C569.454 122.548 567.759 123.287 567.386 123.365C567.016 123.445 565.352 124.236 563.694 125.126C562.037 126.014 560.379 126.721 560.011 126.7C559.377 126.659 553.834 128.797 552.987 129.408C552.768 129.567 552.011 129.897 551.304 130.146C550.597 130.395 549.078 130.986 547.927 131.463C546.776 131.939 544.513 132.728 542.896 133.215C541.282 133.702 539.862 134.253 539.746 134.437C539.628 134.621 538.336 135.046 536.873 135.382C535.411 135.72 534.104 136.199 533.965 136.45C533.825 136.702 532.759 137.204 531.587 137.565C530.418 137.927 528.872 138.46 528.153 138.751C527.431 139.041 525.754 139.572 524.422 139.931C523.092 140.289 522.01 140.61 522.018 140.646C522.035 140.726 519.889 141.45 517.506 142.167C516.477 142.475 514.808 143.02 513.793 143.377C511.837 144.067 507.664 145.346 506.313 145.671C505.867 145.777 505.376 146.083 505.219 146.349C505.028 146.674 504.66 146.734 504.083 146.536C503.431 146.31 503.008 146.415 502.289 146.983C501.755 147.403 500.104 147.961 498.478 148.266C496.9 148.565 495.632 148.91 495.658 149.036C495.685 149.163 494.419 149.535 492.847 149.862C491.276 150.191 488.798 150.871 487.341 151.373C485.885 151.878 483.967 152.478 483.079 152.713C482.189 152.945 481.226 153.222 480.934 153.327C480.644 153.432 478.695 153.886 476.602 154.335C474.509 154.784 472.604 155.284 472.37 155.446C472.136 155.606 469.597 156.299 466.728 156.984C463.861 157.668 458.593 158.924 455.019 159.775C451.449 160.626 448.412 161.375 448.269 161.443C448.126 161.508 447.821 161.58 447.593 161.601C447.362 161.624 447.202 161.775 447.236 161.94C447.271 162.106 444.679 162.836 441.472 163.562C438.265 164.29 434.444 165.262 432.978 165.72C431.512 166.18 430.071 166.629 429.779 166.719C429.484 166.811 428.785 166.823 428.223 166.747C427.55 166.66 427.233 166.77 427.295 167.068C427.36 167.377 427.144 167.443 426.63 167.278C426.208 167.142 423.815 167.532 421.272 168.149C418.745 168.764 413.024 170.121 408.558 171.165C390.385 175.42 390.142 175.483 390.403 175.952C390.54 176.201 390.375 176.344 390.034 176.271C389.693 176.198 389.52 175.942 389.651 175.705C390.038 175.002 389.157 175.377 388.214 176.319C387.387 177.144 387.348 177.152 387.549 176.458C387.729 175.833 387.378 175.796 385.25 176.216C381.236 177.006 378.414 177.61 377.988 177.77C377.772 177.853 376.288 178.164 374.692 178.463C373.035 178.772 371.483 179.29 371.068 179.67C370.481 180.212 370.231 180.252 369.734 179.878C369.271 179.533 369.146 179.546 369.219 179.936C369.275 180.218 369.053 180.392 368.727 180.322C368.136 180.194 363.301 180.77 361.242 181.214C357.755 181.963 348.109 184.369 347.287 184.692C346.752 184.903 344.724 185.189 342.781 185.33C339.833 185.54 339.315 185.661 339.645 186.058C339.881 186.34 339.679 186.608 339.149 186.719C338.659 186.822 338.086 186.697 337.873 186.441C337.582 186.096 335.057 186.373 335.135 186.742C335.143 186.78 334.365 187.036 333.402 187.313C332.442 187.589 331.742 187.662 331.845 187.475C331.948 187.286 330.643 187.456 328.946 187.854C327.252 188.25 325.577 188.484 325.222 188.372C324.869 188.257 324.02 188.521 323.329 188.959C322.639 189.397 321.585 189.783 320.982 189.819C320.382 189.857 318.893 190.049 317.675 190.248C316.454 190.447 315.133 190.539 314.734 190.455C314.323 190.365 314.054 190.496 314.109 190.762C314.182 191.107 313.971 191.143 313.288 190.906C312.77 190.727 312.405 190.762 312.452 190.983C312.535 191.383 302.303 193.418 295.002 194.457C293.031 194.737 289.882 195.267 288.008 195.634C286.13 196 284.578 196.212 284.555 196.106C284.533 195.997 282.731 196.238 280.549 196.638C270.998 198.4 264.741 199.311 263.72 199.089C263.322 199.005 263.025 199.075 263.062 199.25C263.098 199.425 261.317 199.947 259.099 200.411C256.885 200.875 255.14 201.129 255.225 200.975C255.309 200.823 253.357 201.085 250.888 201.558C243.375 202.997 242.295 203.157 242.227 202.835C242.192 202.664 241.781 202.606 241.313 202.704C240.837 202.804 240.667 203.034 240.927 203.235C241.215 203.456 240.867 203.504 239.997 203.363C238.798 203.165 235.206 203.733 222.332 206.152C221.503 206.307 220.804 206.313 220.772 206.162C220.741 206.014 219.622 206.171 218.288 206.509C216.952 206.849 215.826 206.957 215.782 206.748C215.738 206.539 215.162 206.536 214.501 206.74C213.843 206.945 212.936 207.032 212.491 206.934C211.982 206.823 211.547 206.994 211.32 207.396C211.021 207.926 210.933 207.936 210.817 207.453C210.713 207.013 210.594 207.013 210.35 207.446C210.091 207.902 209.32 208.039 206.685 208.094C204.849 208.132 201.853 208.407 200.028 208.706C198.203 209.004 196.107 209.273 195.369 209.302C194.631 209.333 191.895 209.7 189.291 210.122C183.377 211.075 180.411 211.394 179.23 211.201C178.724 211.118 177.982 211.27 177.576 211.537C177.172 211.804 175.651 212.135 174.197 212.274C172.406 212.446 171.577 212.667 171.632 212.958C171.684 213.234 171.531 213.25 171.2 213.006C170.921 212.795 169.587 212.814 168.237 213.048C166.887 213.281 165.514 213.405 165.186 213.325C164.855 213.243 163.299 213.422 161.727 213.724C160.156 214.024 158.355 214.187 157.731 214.085C156.9 213.948 156.548 214.045 156.422 214.443C156.313 214.795 156.191 214.77 156.079 214.376C155.952 213.935 155.339 213.881 153.864 214.186C151.386 214.697 150.276 214.732 149.641 214.324C149.346 214.136 149.197 214.218 149.257 214.532C149.313 214.814 149.137 215 148.869 214.943C147.982 214.749 145.11 214.946 143.028 215.34C141.901 215.555 140.951 215.586 140.914 215.409C140.877 215.234 140.427 215.22 139.913 215.378C138.888 215.691 136.442 215.817 134.072 215.676C133.233 215.628 131.512 215.755 130.243 215.962C128.972 216.168 127.695 216.152 127.403 215.928C126.983 215.603 126.847 215.632 126.75 216.057C126.654 216.462 126.405 216.494 125.706 216.185C125.203 215.959 124.421 215.836 123.97 215.907C117.505 216.946 115.134 217.082 114.995 216.417C114.954 216.225 114.743 216.135 114.528 216.217C114.31 216.299 113.467 216.371 112.651 216.376C111.834 216.379 110.256 216.536 109.14 216.723C108.027 216.908 106.868 216.872 106.564 216.64C106.262 216.407 105.062 216.401 103.896 216.624C102.731 216.849 101.618 216.923 101.421 216.79C101.227 216.655 100.023 216.71 98.7508 216.911C97.4756 217.113 96.4002 217.116 96.3558 216.918C96.3146 216.721 96.1504 216.701 95.9923 216.877C95.8311 217.051 94.9742 217.083 94.0851 216.949C93.1961 216.814 91.9873 216.875 91.4003 217.085C90.7105 217.333 90.1941 217.242 89.936 216.828C89.6769 216.411 89.0946 216.31 88.259 216.542C87.5555 216.738 86.5022 216.721 85.9223 216.507C85.3419 216.291 84.3872 216.315 83.801 216.557C83.2176 216.799 82.8415 216.808 82.9679 216.579C83.0966 216.346 82.7536 216.236 82.2093 216.331C79.202 216.858 76.1039 216.66 75.5837 215.911C75.4491 215.713 74.5665 215.734 73.6239 215.954C72.532 216.212 71.9656 216.174 72.0583 215.853C72.2236 215.281 68.2441 214.651 67.5644 215.141C67.3218 215.316 66.5387 215.201 65.8264 214.883C65.1113 214.565 64.3685 214.421 64.1738 214.56C63.9818 214.699 63.0384 214.735 62.0816 214.638C61.1247 214.54 60.6797 214.373 61.0943 214.27C62.1572 213.999 59.1951 212.867 56.9244 212.675C55.9242 212.593 55.08 212.395 55.0472 212.238C55.0144 212.082 53.9403 211.841 52.6635 211.702C51.3839 211.563 50.314 211.342 50.2863 211.21C50.2585 211.077 49.1666 210.738 47.8571 210.456C46.5473 210.173 45.3915 209.681 45.2895 209.361C44.9322 208.266 45.0857 207.554 45.7834 207.081C46.7363 206.437 46.4688 205.382 45.4818 205.891C44.133 206.588 44.5177 205.675 46.4292 203.638C47.4522 202.551 48.2358 201.418 48.174 201.123C48.1122 200.828 48.3343 200.528 48.6658 200.458C48.9946 200.389 49.07 200.097 48.8296 199.81C48.5919 199.522 48.6617 199.231 48.9877 199.162C49.3973 199.077 49.3472 198.907 48.8275 198.619C48.3659 198.36 48.2578 198.066 48.5512 197.855C48.8112 197.667 49.1866 197.71 49.3855 197.951C49.6204 198.239 50.0233 197.983 50.5554 197.205C51.2191 196.236 54.4684 192.628 57.7221 189.251C58.0618 188.901 58.8385 188.055 59.4546 187.372C60.0703 186.688 61.2519 185.761 62.0799 185.313C63.5346 184.524 66.1289 182.066 65.3491 182.217C64.4152 182.396 68.4749 179.743 69.5475 179.476C70.2023 179.312 71.7972 178.317 73.0895 177.267C75.5297 175.282 77.1625 174.246 77.9136 174.208C78.1552 174.195 78.4371 173.889 78.5417 173.527C78.6463 173.166 79.0668 172.799 79.4735 172.714C80.3651 172.527 84.4054 170.031 84.7732 169.44C84.9171 169.211 85.1852 168.991 85.3687 168.951C86.374 168.738 87.8073 167.958 87.7446 167.659C87.7046 167.468 88.0368 167.235 88.4854 167.141C89.597 166.908 93.3854 164.765 93.311 164.409C93.2778 164.25 93.5925 164.143 94.0081 164.169C94.4268 164.196 95.3075 163.666 95.9688 162.991C96.963 161.975 100.653 159.693 101.654 159.473C101.801 159.44 102.413 159.31 103.009 159.185C103.608 159.059 104.045 158.698 103.978 158.378C103.889 157.953 104.276 157.773 105.447 157.7C106.5 157.632 107.285 157.327 107.773 156.793C108.177 156.35 108.77 155.932 109.091 155.865C109.411 155.798 109.642 155.595 109.604 155.414C109.476 154.805 112.287 153.393 114.229 153.087C115.761 152.848 115.969 152.731 115.247 152.515C114.527 152.299 114.669 152.227 115.929 152.165C116.899 152.115 117.364 151.963 117.118 151.773C116.525 151.316 118.607 150.48 119.806 150.694C120.997 150.906 123.681 149.422 123.531 148.633C123.471 148.319 123.682 148.314 124.139 148.619C124.669 148.972 124.88 148.953 125.014 148.535C125.107 148.232 125.433 148.038 125.735 148.103C126.036 148.167 126.917 147.708 127.69 147.081C129.264 145.808 129.958 145.522 129.511 146.335C129.31 146.704 129.501 146.729 130.11 146.415C130.603 146.161 131.168 145.914 131.369 145.87C131.566 145.825 131.415 145.716 131.03 145.629C130.56 145.522 130.734 145.23 131.555 144.745C132.23 144.346 132.678 144.208 132.552 144.438C132.181 145.113 133.331 144.702 134.067 143.898C134.436 143.494 134.926 143.247 135.159 143.349C135.391 143.454 135.754 143.231 135.966 142.855C136.227 142.392 136.388 142.328 136.463 142.659C136.6 143.27 137.194 143.151 139.027 142.153C139.815 141.724 141.065 141.207 141.805 141.001C142.542 140.799 143.139 140.598 143.131 140.56C143.123 140.52 143.472 140.352 143.906 140.188C144.339 140.022 145.407 139.62 146.274 139.292C148.468 138.463 149.406 138.08 149.545 137.955C149.724 137.794 150.617 137.449 151.478 137.212C151.901 137.094 152.579 136.636 152.985 136.19C153.459 135.672 154.212 135.365 155.082 135.342C155.825 135.321 157.081 134.974 157.869 134.57C158.66 134.165 160.269 133.531 161.447 133.158C162.629 132.787 163.738 132.196 163.915 131.847C164.125 131.432 164.81 131.162 165.883 131.076C166.815 131.002 167.494 130.772 167.447 130.547C167.401 130.328 167.813 130.056 168.361 129.941C168.91 129.826 169.503 129.572 169.68 129.379C170.194 128.817 171.738 128.426 172.462 128.677C173.309 128.97 175.453 128.099 175.341 127.508C175.292 127.248 175.501 127.246 175.843 127.504C176.26 127.817 176.954 127.755 178.207 127.294C179.182 126.935 180.528 126.519 181.197 126.366C181.869 126.215 182.395 125.977 182.366 125.838C182.337 125.699 182.862 125.455 183.53 125.299C184.919 124.972 189.349 123.631 192.484 122.587C193.648 122.201 194.571 121.735 194.533 121.554C194.495 121.371 194.847 121.247 195.315 121.277C195.784 121.307 197.481 120.731 199.086 119.995C201.388 118.943 202.241 118.711 203.122 118.904C204.509 119.211 205.368 119.05 205.254 118.504C205.206 118.275 204.96 118.239 204.707 118.421C204.455 118.604 204.074 118.619 203.862 118.454C203.408 118.106 204.517 117.941 205.639 118.189C206.077 118.283 206.709 118.08 207.101 117.717C207.485 117.366 207.824 117.209 207.858 117.37C207.891 117.53 208.189 117.422 208.517 117.129C208.846 116.838 210.779 116.305 212.815 115.946C215.294 115.508 216.481 115.149 216.419 114.851C216.353 114.538 216.544 114.506 217.076 114.743C218.08 115.187 218.725 115.018 218.584 114.348C218.497 113.932 218.913 113.78 220.31 113.716C221.322 113.672 222.618 113.457 223.192 113.242C223.766 113.025 225.272 112.618 226.541 112.333C227.811 112.051 228.81 111.626 228.766 111.389C228.723 111.153 228.983 111.174 229.343 111.436C229.761 111.739 230.121 111.737 230.328 111.431C230.612 111.011 232.27 110.538 240.378 108.566C241.272 108.349 242.117 107.998 242.259 107.786C242.4 107.572 243.232 107.266 244.106 107.106C246.813 106.606 248.258 106.31 253.287 105.215C257.531 104.29 258.298 104.008 259.264 103.011C260.015 102.235 260.352 102.068 260.313 102.494C260.277 102.878 260.559 103 261.042 102.806C261.474 102.634 262.928 102.26 264.276 101.976C265.622 101.692 267.092 101.227 267.541 100.942C268.1 100.586 268.814 100.592 269.803 100.955L271.25 101.486L271.584 100.571C271.767 100.068 272.307 99.5793 272.788 99.485C273.503 99.3457 273.491 99.4571 272.724 100.113C271.808 100.891 271.814 100.905 272.979 100.661C273.75 100.499 274.123 100.168 274.036 99.7226C273.96 99.3338 274.111 99.168 274.384 99.3436C274.955 99.7104 282.785 98.1442 282.688 97.6842C282.651 97.5075 282.947 97.435 283.343 97.5198C284.029 97.6698 286.089 97.232 288.395 96.4495C288.978 96.2497 289.9 96.1551 290.447 96.2377C291.057 96.3301 291.539 96.2019 291.704 95.9054C291.849 95.6401 292.436 95.4312 293.012 95.4428C293.586 95.4524 294.153 95.2834 294.274 95.0674C294.475 94.696 296.194 94.3487 298.679 94.1743C299.278 94.1327 299.908 94.2836 300.075 94.5107C300.245 94.7373 300.6 94.8768 300.864 94.8214C301.129 94.766 301.16 94.4974 300.931 94.2225C300.628 93.8603 300.831 93.7192 301.686 93.7018C302.329 93.6888 302.767 93.838 302.662 94.0299C302.554 94.2244 303.739 94.0749 305.294 93.6988C306.853 93.3221 308.478 93.1264 308.911 93.2622C309.443 93.4296 309.857 93.3346 310.195 92.964C310.784 92.3186 312.247 92.335 313.357 92.9978C314.069 93.4253 314.136 93.4092 314.032 92.8293C313.89 92.0539 315.327 91.3903 316.902 91.4965C317.965 91.5696 317.958 91.5961 316.797 91.8666C316.109 92.0254 315.722 92.2908 315.934 92.4561C316.391 92.8069 319.175 91.92 319.314 91.3771C319.368 91.1751 320.098 90.995 320.936 90.981C321.776 90.9665 325.551 90.2997 329.326 89.4965C335.176 88.2526 336.174 88.1316 336.084 88.6745C335.999 89.1957 336.072 89.1719 336.498 88.5503C336.969 87.8562 337.204 87.8132 339.122 88.0699C340.28 88.2257 341.269 88.1989 341.321 88.0141C341.369 87.8299 342.003 87.6363 342.729 87.5871C343.454 87.5359 344.466 87.2317 344.981 86.9101C346.045 86.2448 349.551 86.0578 349.677 86.6583C349.721 86.8672 350.002 86.9886 350.303 86.9256C350.601 86.8632 350.793 86.5548 350.727 86.2434C350.624 85.7514 350.889 85.6979 352.696 85.8542C354.817 86.037 356.074 85.5829 354.472 85.2118C353.873 85.0731 354.215 84.9554 355.546 84.8402C358.459 84.5865 359.021 84.6429 358.738 85.1549C358.598 85.413 358.727 85.5705 359.027 85.5075C359.326 85.445 359.662 85.23 359.771 85.0289C359.883 84.8273 360.889 84.4237 362.011 84.13C363.131 83.8389 363.888 83.7747 363.694 83.9872C363.5 84.1998 364.688 84.3305 366.331 84.2777C370.921 84.1279 372.396 83.9365 372.305 83.5026C372.176 82.886 375.684 82.705 376.374 83.2922C376.71 83.5783 377.198 83.6585 377.455 83.4724C377.716 83.2838 377.709 82.9603 377.444 82.7495C377.077 82.4573 377.171 82.4354 377.843 82.6554C378.327 82.8141 379.606 82.7579 380.684 82.5301C381.765 82.3037 384.137 82.0355 385.958 81.9373C387.778 81.8371 390.135 81.637 391.198 81.4939C394.626 81.0278 396.446 80.8166 396.744 80.8526C397.206 80.9068 399.167 80.7708 400.522 80.5898C401.206 80.4968 401.795 80.558 401.83 80.7267C401.865 80.8934 402.386 80.8682 402.988 80.673C403.592 80.4751 406.14 80.1303 408.65 79.9066C411.162 79.6825 413.529 79.4593 413.909 79.4133C414.29 79.3672 414.628 79.4557 414.66 79.6083C414.716 79.8755 417.869 80.2656 419.034 80.1495C419.339 80.1192 420.976 79.9924 422.666 79.8691C424.358 79.7432 426.719 79.4647 427.916 79.2477C429.109 79.0313 430.274 78.997 430.503 79.1734C430.729 79.3484 431.65 79.426 432.543 79.3458C433.439 79.2651 434.808 79.1922 435.589 79.1819C436.366 79.1742 437.256 79.1431 437.56 79.1128C437.868 79.0819 438.506 79.0847 438.981 79.1173C439.458 79.1494 441.234 79.0858 442.929 78.9739C447.021 78.7084 453.781 78.7728 454.752 79.0875C455.179 79.2265 455.654 79.2005 455.81 79.0315C455.964 78.863 456.601 78.8072 457.227 78.9088C458.293 79.0838 459.72 79.0932 461.665 78.9375C463.842 78.7647 465.981 78.757 466.94 78.919C467.518 79.0158 468.186 78.9556 468.424 78.7843C468.661 78.613 468.973 78.6315 469.118 78.8234C469.263 79.0153 470.216 79.0652 471.232 78.9341C472.252 78.8044 473.281 78.8407 473.523 79.0142C473.764 79.1902 474.33 79.2667 474.781 79.1848C475.232 79.105 476.377 79.0708 477.322 79.1139C478.267 79.155 479.728 79.1447 480.569 79.0903C482.422 78.9705 484.631 79.965 484.386 80.8068C484.246 81.291 484.467 81.2889 485.42 80.7999C487.411 79.7792 488.348 80.5913 487.005 82.1747C486.088 83.2555 486.305 84.3611 487.232 83.3431C487.402 83.1565 487.952 82.8652 488.455 82.695C491.52 81.6547 492.819 81.3429 492.628 81.6953C492.505 81.9159 492.879 82.1857 493.455 82.2978C494.452 82.4895 494.454 82.5122 493.515 82.7214C492.864 82.864 492.639 83.1628 492.858 83.5864C493.083 84.0195 493.635 84.1156 494.524 83.877C499.335 82.5886 500.572 81.5224 500.247 78.9445C500.21 78.6566 500.45 78.4807 500.778 78.5502C501.104 78.6204 501.333 78.4927 501.285 78.2637C501.238 78.0348 501.516 77.7815 501.906 77.6998C502.293 77.6187 503.066 76.7252 503.619 75.7141C504.172 74.703 505.039 73.7856 505.545 73.6734C506.876 73.3779 507.012 72.819 506.037 71.6372C505.288 70.7289 505.309 70.4501 506.174 69.4994C506.723 68.9001 507.096 68.0421 507.003 67.5962C506.909 67.1503 507.027 66.3666 507.264 65.8559C507.61 65.1062 507.425 64.7528 506.318 64.0495C504.856 63.1209 504.118 61.2667 505.127 61.0555C505.459 60.9861 505.538 60.701 505.306 60.4247C505.026 60.0871 505.163 59.9368 505.72 59.9711C506.245 60.0059 506.503 59.7799 506.416 59.3661C506.341 59.0046 506.591 58.3672 506.971 57.9479C508.074 56.7401 506.778 53.3844 505.189 53.3396C504.619 53.3229 504.551 53.4985 504.947 53.9733C505.355 54.4644 505.312 54.5529 504.777 54.3169C504.243 54.083 504.199 53.761 504.602 53.0329C505.297 51.7845 504.078 51.0187 502.991 52.0241C502.44 52.5315 502.332 52.4598 502.377 51.6181C502.459 50.0914 502.37 50.0702 489.346 48.3717C486.972 48.0617 484.194 48.0711 483.242 48.3898C482.879 48.5142 482.535 48.3996 482.48 48.1385C482.425 47.8774 482.248 47.8076 482.09 47.9833C481.929 48.1595 481.279 48.2202 480.646 48.1158C480.014 48.0134 478.843 47.9776 478.048 48.0394C477.249 48.0997 476.313 48.0882 475.963 48.0126C475.612 47.9371 474.635 48.0747 473.791 48.3207C472.949 48.5641 472.363 48.5715 472.491 48.3371C472.62 48.1046 472.427 47.9606 472.064 48.0197C468.831 48.5501 463.589 48.6288 461.694 48.1765C460.31 47.8457 458.58 47.9019 455.55 48.3751C454.641 48.5193 453.633 48.5795 453.305 48.514C452.582 48.3676 449.766 48.4185 448.078 48.6084C447.007 48.73 445.342 48.7369 441.685 48.6327C440.597 48.6026 439.69 48.6585 436.919 48.9263C435.696 49.044 434.303 49.1135 433.827 49.0789C431.849 48.9375 429.41 49.0541 426.721 49.4201C423.619 49.8412 421.653 49.9784 420.931 49.8234C420.2 49.6662 418.613 49.7552 415.338 50.1413C413.984 50.3011 412.618 50.3754 412.302 50.3075C411.988 50.2411 411.205 50.2373 410.564 50.3003C409.923 50.3653 409.018 50.4292 408.552 50.4427C407.391 50.4784 403.049 50.8824 401.03 51.1417C400.118 51.2593 399.363 51.3189 399.354 51.2767C399.344 51.2325 398.593 51.2976 397.679 51.4198C396.768 51.5393 394.399 51.8217 392.415 52.0441C390.432 52.2666 387.4 52.7443 385.678 53.1048C383.959 53.4648 382.53 53.6676 382.506 53.5531C382.482 53.4387 381.098 53.6049 379.431 53.9225C377.764 54.2401 376.051 54.3807 375.628 54.2325C374.32 53.7808 365.975 55.6187 364.502 56.6839C364.174 56.9204 363.886 56.8507 363.817 56.5213C363.751 56.208 363.144 56.0437 362.461 56.1574C361.784 56.2719 359.993 56.5799 358.487 56.845C356.981 57.1101 355.564 57.2075 355.339 57.0618C355.114 56.9161 354.45 57.1075 353.866 57.4876C353.011 58.0399 352.778 58.0657 352.683 57.6158C352.532 56.8907 351.12 56.8026 350.503 57.4791C350.231 57.7772 349.684 57.9274 349.229 57.8276C348.061 57.569 347.077 57.729 346.81 58.2169C346.679 58.4539 346.324 58.5912 346.02 58.527C345.715 58.4608 345.511 58.6378 345.564 58.9221C345.645 59.337 345.559 59.3571 345.118 59.0261C344.605 58.645 339.086 59.2745 335.39 60.1386C334.533 60.339 332.295 60.5393 330.414 60.5831C327.668 60.6487 326.928 60.7827 326.658 61.2565C326.421 61.6793 326.295 61.7162 326.217 61.3845C326.146 61.0744 324.938 61.1659 322.575 61.6607C320.631 62.0679 319.068 62.5483 319.105 62.725C319.142 62.9018 318.155 63.0078 316.912 62.9619C313.647 62.8426 266.187 71.7015 265.385 72.5802ZM284.977 91.2548C284.859 91.4682 283.981 91.7864 283.02 91.9644C281.386 92.269 281.359 92.2536 282.577 91.7238C284.326 90.9655 285.234 90.7879 284.977 91.2548ZM290.785 90.2252C290.894 90.7475 290.752 90.8045 289.999 90.5448C289.495 90.3696 289.067 90.1614 289.05 90.0791C289.033 89.9967 289.386 89.8534 289.835 89.7595C290.284 89.6656 290.711 89.8758 290.785 90.2252ZM297.052 90.3218C297.094 90.5246 296.638 90.792 296.039 90.9174C295.443 91.0423 294.924 91.0064 294.888 90.8357C294.853 90.6669 295.308 90.3976 295.898 90.2406C296.49 90.083 297.009 90.1189 297.052 90.3218ZM167.155 118.304C167.198 118.511 166.786 118.972 166.235 119.329C165.034 120.106 164.892 119.903 165.884 118.817C166.721 117.9 167.043 117.769 167.155 118.304ZM172.074 117.38C172.124 117.619 171.992 117.737 171.777 117.642C171.565 117.548 171.072 117.817 170.684 118.242C170.119 118.861 169.872 118.932 169.438 118.597C169.137 118.369 169.096 118.033 169.341 117.856C170.167 117.26 171.982 116.943 172.074 117.38ZM294.752 92.3401C294.993 92.447 294.112 92.7697 292.791 93.0589C290.945 93.4624 290.496 93.4452 290.845 92.9844C291.296 92.3908 293.888 91.9634 294.752 92.3401ZM248.109 102.347C247.848 103.242 249.002 103.336 251.987 102.661C253.969 102.212 254.666 102.204 254.755 102.628C254.827 102.974 254.535 103.175 254.01 103.143C253.506 103.112 253.19 103.31 253.25 103.623C253.335 104.058 253.246 104.074 252.756 103.707C252.293 103.36 251.342 103.485 248.555 104.268C246.467 104.854 244.49 105.203 243.848 105.099C243.093 104.976 242.767 105.046 242.825 105.323C242.872 105.546 242.481 105.817 241.956 105.923C241.141 106.087 241.11 106.035 241.739 105.566C242.4 105.069 242.017 104.92 240.967 105.268C240.747 105.341 240.53 105.223 240.485 105.008C240.44 104.793 239.793 104.744 239.043 104.901C237.375 105.251 237.375 105.962 239.044 105.794C241.3 105.565 240.873 106.388 238.569 106.707C236.713 106.966 236.428 107.107 236.817 107.575C237.329 108.185 236.411 108.579 235.721 108.046C235.485 107.867 235.09 107.868 234.843 108.048C234.592 108.228 234.475 108.072 234.583 107.699C234.758 107.101 235.698 106.633 236.968 106.516C237.196 106.494 237.301 106.08 237.199 105.594C237.026 104.768 237.259 104.657 240.814 103.858C243.808 103.184 244.636 103.124 244.73 103.572C244.795 103.886 245.074 103.98 245.349 103.78C245.625 103.582 245.69 103.296 245.495 103.144C245.298 102.992 245.55 102.696 246.056 102.487C247.787 101.77 248.286 101.737 248.109 102.347ZM256.576 100.953C256.914 101.622 257.631 101.548 260.693 100.515C261.779 100.149 262.507 99.7216 262.306 99.5686C261.762 99.148 262.763 99.0411 263.629 99.4259C264.213 99.6852 264.356 99.6322 264.269 99.1892C264.176 98.7034 264.257 98.6885 264.816 99.0935C265.357 99.4833 265.54 99.4575 265.835 98.9491C266.128 98.4434 266.275 98.4251 266.632 98.8535C266.908 99.1836 267.47 99.2128 268.146 98.9306C268.76 98.6785 269.265 98.6734 269.317 98.9225C269.367 99.1635 268.795 99.4886 268.049 99.645C266.085 100.056 265.948 100.11 265.28 100.728C264.824 101.148 264.722 101.119 264.869 100.613C265.032 100.057 264.704 100.046 263.024 100.551C259.383 101.646 254.457 102.596 255.613 101.979C257.086 101.194 255.924 100.989 253.563 101.62C250.988 102.306 249.6 102.416 249.501 101.942C249.366 101.295 256.263 100.333 256.576 100.953ZM163.971 120.086C163.465 120.296 163.224 120.601 163.439 120.765C163.65 120.929 163.578 121.113 163.28 121.176C162.567 121.325 161.933 120.825 162.312 120.412C162.472 120.234 163.122 120.002 163.751 119.897C164.687 119.739 164.726 119.775 163.971 120.086ZM259.901 100.066C259.94 100.253 259.341 100.45 258.57 100.502C257.802 100.556 257.157 100.532 257.14 100.449C257.122 100.367 257.721 100.17 258.468 100.014C259.217 99.857 259.862 99.8813 259.901 100.066ZM151.054 123.327C151.14 124.114 151.444 124.109 151.984 123.313C152.588 122.417 152.611 122.416 152.713 123.32C152.771 123.834 152.388 124.53 151.866 124.87C151.187 125.308 150.995 125.338 151.192 124.976C151.606 124.227 150.729 124.526 149.401 125.586C148.76 126.097 148.372 126.271 148.537 125.972C148.701 125.674 148.574 125.484 148.259 125.55C147.942 125.617 147.74 125.946 147.81 126.281C147.881 126.619 147.658 126.833 147.314 126.761C146.973 126.685 146.301 126.837 145.823 127.096C145.345 127.355 144.356 127.758 143.622 127.987C140.902 128.844 139.558 129.316 136.48 130.491C134.743 131.152 133.133 131.701 132.899 131.708C132.668 131.715 132.516 131.908 132.564 132.137C132.612 132.366 132.371 132.492 132.027 132.417C131.686 132.344 131.015 132.501 130.538 132.767C129.395 133.406 128.363 133.782 128.319 133.573C128.239 133.189 131.435 131.203 132.069 131.243C132.449 131.268 132.944 130.827 133.172 130.261C133.397 129.698 133.637 129.415 133.703 129.632C133.855 130.122 138.146 128.959 138.041 128.457C137.999 128.261 138.602 128.082 139.377 128.06C140.247 128.037 140.756 127.855 140.699 127.586C140.649 127.347 140.797 127.134 141.025 127.113C142.212 127.003 142.776 126.627 142.705 125.996C142.629 125.356 142.656 125.348 143.007 125.912C143.327 126.428 143.592 126.412 144.64 125.807C145.569 125.271 145.691 125.033 145.118 124.883C144.641 124.758 145.02 124.637 146.119 124.564C147.091 124.501 147.979 124.28 148.092 124.073C148.311 123.673 151.015 122.992 151.054 123.327ZM161.561 121.425C161.642 121.81 161.188 122.017 160.004 122.126C159.086 122.214 158.368 122.452 158.411 122.657C158.454 122.862 158.099 122.875 157.623 122.684C156.896 122.393 157.027 122.244 158.426 121.769C161.026 120.883 161.438 120.838 161.561 121.425ZM196.516 114.08C196.162 114.267 196.045 114.554 196.256 114.715C196.465 114.877 196.365 115.067 196.031 115.137C195.696 115.207 195.608 115.408 195.836 115.583C196.068 115.761 195.877 115.876 195.4 115.846C194.433 115.786 195.491 113.99 196.59 113.823C196.903 113.776 196.866 113.891 196.516 114.08ZM155.374 123.446C155.623 123.746 155.508 124.032 155.102 124.117C154.712 124.199 154.339 124 154.271 123.677C154.203 123.354 154.326 123.051 154.543 123.006C154.761 122.96 155.134 123.159 155.374 123.446ZM176.868 119.706C177.258 120.608 175.388 121.584 174.871 120.751C174.502 120.157 174.579 120.078 175.291 120.325C176.002 120.571 176.127 120.461 175.974 119.727C175.784 118.82 176.479 118.804 176.868 119.706ZM307.81 91.6855C308.015 91.8439 307.862 92.1401 307.468 92.3441C306.717 92.7319 306.051 92.6052 305.935 92.0529C305.844 91.615 307.336 91.3235 307.81 91.6855ZM210.6 112.355C210.432 112.539 210.617 112.869 211.012 113.088C211.556 113.392 211.532 113.529 210.908 113.659C210.457 113.754 209.887 113.504 209.64 113.105C209.332 112.608 209.459 112.325 210.047 112.202C210.518 112.104 210.765 112.173 210.6 112.355ZM182.893 118.658C182.585 119.217 180.58 120.015 180.495 119.611C180.457 119.43 180.836 119.114 181.339 118.906C182.862 118.275 183.126 118.232 182.893 118.658ZM202.954 114.577C202.752 114.944 202.938 114.972 203.533 114.663C204.059 114.393 204.312 114.395 204.162 114.667C203.86 115.221 202.371 115.583 202.275 115.125C202.204 114.788 202.663 114.157 203.036 114.079C203.153 114.055 203.116 114.279 202.954 114.577ZM174.034 121.31C174.156 121.89 173.851 122.061 172.436 122.204C171.225 122.326 170.836 122.493 171.162 122.746C171.425 122.946 171.378 123.166 171.06 123.233C170.745 123.298 170.413 123.045 170.323 122.67C170.181 122.064 170.102 122.073 169.625 122.728C169.33 123.136 168.649 123.496 168.109 123.528C167.569 123.561 167.166 123.775 167.214 124.004C167.263 124.235 166.735 124.465 166.042 124.516C165.351 124.566 164.597 124.632 164.368 124.663C164.142 124.694 163.915 124.525 163.865 124.286C163.815 124.047 164.13 123.874 164.567 123.903C165.003 123.931 166.274 123.585 167.39 123.135C168.503 122.686 170.073 122.131 170.875 121.902C171.679 121.673 172.479 121.329 172.657 121.135C173.236 120.5 173.881 120.581 174.034 121.31ZM214.45 113.366C213.63 113.8 212.993 113.923 212.567 113.733C212.124 113.537 212.512 113.332 213.802 113.078C215.574 112.733 215.612 112.75 214.45 113.366ZM162.577 125.638C162.548 126.193 162.284 126.597 161.988 126.533C161.693 126.469 161.56 126.222 161.688 125.986C162.115 125.208 161.179 125.694 160.599 126.549C160.077 127.321 160.026 127.317 159.936 126.512C159.883 126.032 160.054 125.684 160.316 125.74C160.575 125.799 160.875 125.55 160.98 125.19C161.288 124.134 162.639 124.514 162.577 125.638ZM158.987 126.616C159.236 126.807 159.228 127.199 158.97 127.481C158.649 127.834 158.247 127.775 157.711 127.301C156.857 126.542 158.055 125.899 158.987 126.616ZM126.759 134.371C126.11 135.229 125.319 135.409 123.986 135.005C123.123 134.743 123.285 134.627 125.14 134.182C126.968 133.745 127.213 133.773 126.759 134.371ZM123.053 136.42C122.921 136.567 122.32 136.576 121.721 136.437C120.75 136.215 120.742 136.189 121.628 136.203C122.194 136.21 122.602 136.005 122.568 135.729C122.527 135.383 122.627 135.375 122.904 135.697C123.122 135.947 123.187 136.273 123.053 136.42ZM152.475 129.573C152.577 130.061 150.347 130.979 148.987 131.01C148.402 131.022 148.715 130.853 149.713 130.617C150.68 130.387 151.432 130.024 151.387 129.809C151.342 129.592 151.55 129.364 151.851 129.301C152.149 129.239 152.431 129.362 152.475 129.573ZM433.258 70.9544C433.867 71.2924 433.824 71.3956 433.041 71.4757C432.506 71.5292 431.929 71.3878 431.76 71.1633C431.334 70.5858 432.346 70.4452 433.258 70.9544ZM119.454 137.346C119.487 137.504 120.046 137.421 120.692 137.162C122.117 136.589 121.947 136.792 119.634 138.426C118.218 139.427 117.836 139.561 117.739 139.099C117.672 138.78 117.812 138.478 118.052 138.428C118.294 138.377 118.315 138.127 118.101 137.872C117.88 137.608 118.078 137.33 118.554 137.23C119.014 137.134 119.42 137.185 119.454 137.346ZM409.279 77.6762C410.393 77.4261 411.451 77.3954 411.629 77.6055C411.952 77.995 409.969 78.3725 406.028 78.6758C404.774 78.7706 404.368 78.6648 404.795 78.3574C405.148 78.1009 405.843 77.9471 406.343 78.0123C406.842 78.0776 408.163 77.9268 409.279 77.6762ZM415.51 76.361C416.042 76.5995 417.204 76.7462 418.094 76.6898C418.981 76.6341 419.76 76.842 419.825 77.1513C419.893 77.4746 419.654 77.6506 419.26 77.5652C418.883 77.4849 417.933 77.5182 417.144 77.6393C413.637 78.1809 413.723 78.1901 414.135 77.2967C414.352 76.832 414.349 76.3714 414.13 76.2745C413.912 76.1776 413.917 76.0613 414.137 76.0152C414.357 75.9691 414.975 76.125 415.51 76.361ZM166.492 128.693C167.152 128.848 166.814 129.024 165.212 129.359C163.607 129.695 163.227 129.67 163.77 129.263C164.175 128.96 164.752 128.661 165.053 128.598C165.351 128.535 165.999 128.578 166.492 128.693ZM533.814 52.222C533.194 52.7481 532.583 53.134 532.458 53.0784C532.041 52.8951 533.404 51.5845 534.181 51.4217C534.641 51.3255 534.495 51.6432 533.814 52.222ZM450.718 70.5331C451.301 70.7213 451.629 70.6085 451.901 70.1281C452.109 69.7596 452.322 69.6541 452.378 69.89C452.432 70.1238 453.065 70.3833 453.784 70.4656C455.011 70.6028 454.99 70.6282 453.447 70.8882C452.543 71.0419 451.24 71.0675 450.552 70.9474C449.866 70.8248 449.193 70.8483 449.058 70.996C448.923 71.1438 448.642 71.1335 448.435 70.9757C447.908 70.5702 449.736 70.2168 450.718 70.5331ZM109.416 142.532C109.917 142.563 110.359 142.743 110.398 142.93C110.438 143.119 109.851 143.233 109.091 143.187C108.334 143.14 107.551 143.262 107.353 143.459C107.156 143.655 107.124 143.557 107.282 143.243C107.605 142.603 108.078 142.447 109.416 142.532ZM477.965 65.9091C479.025 65.9954 479.046 66.0433 478.228 66.483C476.957 67.1643 477.229 67.5874 478.86 67.4744C479.823 67.4069 480.226 67.2031 480.145 66.8195C480.081 66.5142 480.3 66.3217 480.632 66.3927C480.964 66.4657 481.143 66.6965 481.027 66.9054C480.911 67.1162 481.22 67.3136 481.716 67.3461C482.393 67.3887 482.493 67.2379 482.122 66.72C481.681 66.0995 481.773 66.051 483.114 66.2062C483.931 66.3014 484.528 66.6231 484.445 66.9214C484.359 67.2223 484.664 67.3869 485.121 67.2913C485.581 67.195 485.83 67.3421 485.676 67.6216C485.479 67.9838 485.211 68.0398 484.72 67.8218C483.637 67.3401 481.883 67.8561 482.419 68.4986C482.772 68.9215 482.611 69.0392 481.712 69.0221C481.07 69.0119 480.23 69.2926 479.845 69.6499C479.272 70.1787 479.179 70.1752 479.333 69.6355C479.466 69.1863 479.084 68.9854 478.15 69.0112C476.69 69.0527 475.483 67.8335 476.476 67.3258C476.839 67.1408 476.598 66.8769 475.845 66.6318L474.626 66.2394L475.719 66.0273C476.317 65.9105 477.329 65.8577 477.965 65.9091ZM462.847 70.138C464.224 70.0321 464.826 70.147 464.538 70.4632C464.249 70.7794 463.666 70.8847 462.898 70.7583C462.007 70.6137 461.676 70.6978 461.584 71.0943C461.497 71.471 461.133 71.4782 460.337 71.1248C459.715 70.8484 458.88 70.7925 458.479 71.0003C458.046 71.2231 457.861 71.1758 458.024 70.8818C458.173 70.6094 458.838 70.3674 459.502 70.3437C460.166 70.32 461.67 70.2272 462.847 70.138ZM105.486 146.598C105.523 146.775 103.491 147.997 102.332 148.494C102.119 148.585 101.889 148.708 101.823 148.768C101.756 148.826 101.228 149.041 100.646 149.245C99.5939 149.61 99.5935 149.608 100.539 148.817C101.063 148.378 101.824 148.04 102.228 148.067C102.632 148.093 102.932 147.955 102.892 147.762C102.851 147.569 103.228 147.241 103.731 147.033C105.141 146.448 105.44 146.375 105.486 146.598ZM537.139 58.0481C537.994 58.1018 538.55 58.2998 538.378 58.4911C537.909 59.0023 535.431 59.5548 535.021 59.236C534.824 59.0865 534.94 58.907 535.275 58.8369C535.609 58.7669 535.695 58.5645 535.463 58.3887C534.939 57.9827 535.198 57.9304 537.139 58.0481ZM129.961 144.121C129.991 144.266 129.712 144.458 129.341 144.547C128.125 144.839 125.792 145.753 125.151 146.189C124.802 146.426 124.933 146.149 125.438 145.578C126.299 144.605 129.825 143.47 129.961 144.121ZM118.729 147.452C118.747 147.537 118.055 147.832 117.194 148.109C116.331 148.388 115.72 148.445 115.834 148.237C116.038 147.865 118.667 147.155 118.729 147.452ZM96.7755 159.83C96.4552 160.203 95.8695 160.489 95.4716 160.464C94.2812 160.39 94.5449 159.913 95.9979 159.519C97.1259 159.211 97.2588 159.263 96.7755 159.83ZM83.1935 166.924C83.1012 167.247 82.6487 167.489 82.192 167.461C81.735 167.431 80.8679 167.707 80.2639 168.072C79.3247 168.642 79.336 168.585 80.347 167.677C81.676 166.483 83.4588 166.011 83.1935 166.924ZM78.9696 169.155C79.002 169.309 78.4332 169.648 77.7028 169.91C76.7177 170.261 76.4908 170.233 76.8192 169.802C77.2979 169.171 78.8737 168.697 78.9696 169.155ZM527.62 75.8624C526.56 76.4261 527.049 76.9422 528.351 76.6338C529.02 76.4771 529.243 76.3214 528.844 76.2917C528.445 76.26 528.222 76.0445 528.351 75.8121C528.604 75.3524 528.572 75.3548 527.62 75.8624ZM486.865 85.353C486.91 85.57 487.315 85.6697 487.764 85.5758C488.212 85.4818 488.543 85.2281 488.497 85.0111C488.452 84.7962 488.048 84.6965 487.599 84.7904C487.151 84.8844 486.82 85.1381 486.865 85.353ZM547.212 74.2043C547.381 75.928 547.051 76.4353 546.185 75.7863C545.66 75.393 545.576 75.4065 545.665 75.8722C545.726 76.1801 545.609 76.3576 545.41 76.2673C545.208 76.1775 545.011 75.9587 544.973 75.778C544.936 75.5992 544.605 75.2848 544.237 75.081C543.871 74.8746 543.782 74.6604 544.043 74.6015C544.305 74.5447 544.115 74.402 543.623 74.2871C542.843 74.1045 542.841 74.0525 543.614 73.8863C544.101 73.7802 544.713 74.0357 544.972 74.4552C545.531 75.3613 546.565 74.7842 546.337 73.6955C546.249 73.2758 546.378 72.8903 546.623 72.8389C546.868 72.7876 547.131 73.4035 547.212 74.2043ZM550.579 74.9667C550.668 75.3905 549.468 75.5915 548.385 75.3361C547.7 75.1735 547.844 75.07 549.002 74.8924C549.836 74.7639 550.544 74.798 550.579 74.9667ZM567.503 74.4039C568.156 74.7684 568.151 74.8827 567.479 75.0233C567.025 75.1184 566.457 74.9627 566.216 74.6735C565.979 74.3857 565.988 74.1092 566.241 74.0561C566.495 74.003 567.062 74.1587 567.503 74.4039ZM576.391 76.0713C576.7 76.3359 576.639 76.8118 576.251 77.2076C575.688 77.7806 575.453 77.7165 574.75 76.8049C574.2 76.094 573.551 75.8001 572.849 75.9471C572.261 76.0703 571.889 75.9741 572.022 75.7345C572.323 75.1851 575.664 75.4437 576.391 76.0713ZM581.711 77.3536C582.944 77.5336 584.061 77.5618 584.194 77.4166C584.329 77.2709 584.667 77.3281 584.947 77.5439C585.274 77.7964 585.21 77.883 584.772 77.7883C584.364 77.7018 584.136 77.89 584.212 78.2535C584.414 79.2176 583.047 79.246 580.847 78.3249C579.735 77.8597 578.411 77.506 577.903 77.539C577.392 77.5746 576.85 77.6085 576.695 77.6179C576.542 77.6247 576.84 77.2709 577.356 76.8296C578.19 76.1182 578.366 76.0835 578.885 76.5239C579.207 76.7982 580.481 77.171 581.711 77.3536ZM587.735 79.1762C590.327 80.4156 589.275 81.4452 586.623 80.2667C585.731 79.8685 584.736 79.601 584.415 79.6681C584.036 79.7475 584.026 79.5316 584.381 79.0609C585.154 78.0417 585.382 78.0504 587.735 79.1762ZM19.2956 200.556C18.9419 201.2 18.0203 200.743 18.2284 200.029C18.3822 199.5 18.542 199.443 18.9643 199.766C19.2592 199.993 19.4094 200.35 19.2956 200.556ZM592.028 80.8708C591.06 81.4006 591.889 81.8182 592.954 81.3372C593.634 81.0292 593.928 80.9992 593.654 81.264C593.399 81.5146 593.066 81.8987 592.92 82.118C592.771 82.3359 591.886 82.2087 590.956 81.8333C589.568 81.2749 589.368 81.0295 589.844 80.4706C590.338 79.8976 590.586 79.8583 591.429 80.2204C591.979 80.4575 592.25 80.7509 592.028 80.8708ZM20.289 201.897C20.9381 201.761 20.9956 201.911 20.6073 202.751C20.3497 203.312 20.1757 203.856 20.2231 203.957C20.2736 204.06 20.1936 204.261 20.0464 204.405C19.8987 204.547 19.8316 204.241 19.897 203.72C19.9596 203.199 19.7927 202.819 19.5197 202.876C19.2494 202.933 18.9632 202.58 18.8865 202.088C18.807 201.598 18.912 201.391 19.1193 201.631C19.3289 201.868 19.8543 201.988 20.289 201.897ZM597.887 82.8809C599.548 83.6338 600.741 84.466 600.64 84.8057C600.526 85.2049 600.726 85.272 601.241 85.007C601.715 84.7608 602.064 84.8303 602.138 85.1818C602.204 85.4991 602.501 85.7074 602.802 85.6444C603.1 85.582 603.423 85.9022 603.519 86.3582C603.644 86.9567 603.92 87.0666 604.518 86.7568C605.109 86.4528 605.289 86.52 605.152 86.9911C605.047 87.3526 605.198 87.5999 605.488 87.5392C605.777 87.4786 606.058 87.6358 606.111 87.8889C606.163 88.142 606.709 88.6105 607.324 88.9326C607.987 89.2822 608.101 89.4512 607.607 89.3535C606.748 89.1852 606.903 89.6329 608.261 91.2585C608.58 91.6424 607.704 91.1802 606.313 90.2324C603.723 88.4708 601.962 87.4788 600.041 86.707C599.443 86.4652 598.927 86.1226 598.89 85.9459C598.853 85.7691 598.253 85.3496 597.557 85.0111C596.861 84.6725 596.249 84.1948 596.196 83.9457C596.144 83.6967 595.381 83.3994 594.496 83.2849C593.199 83.1163 593.068 83.0073 593.816 82.7166C594.327 82.5194 594.568 82.2237 594.356 82.0585C593.292 81.2414 595.291 81.7074 597.887 82.8809ZM22.7821 205.47C22.9424 206.097 22.8869 206.207 22.623 205.78C22.3981 205.414 21.9123 205.275 21.5347 205.471C21.159 205.663 20.6778 205.615 20.4672 205.359C20.2114 205.054 20.4958 204.829 21.3057 204.697C22.2085 204.55 22.594 204.752 22.7821 205.47ZM49.456 228.855C49.5045 229.128 49.1352 229.433 48.642 229.537C47.8174 229.709 47.8272 229.77 48.7469 230.232C49.6867 230.706 49.8287 230.856 50.031 231.6C50.0762 231.761 50.397 231.473 50.7497 230.963C51.3833 230.044 51.3916 230.043 51.5661 230.792C51.7401 231.54 51.7512 231.538 52.3867 230.614C52.9621 229.779 52.9197 229.66 51.9929 229.498C51.4226 229.399 50.5984 229.102 50.1623 228.839C49.6363 228.521 49.3991 228.527 49.456 228.855ZM53.3056 231.045C53.3536 231.273 52.9573 231.52 52.4251 231.59C50.5215 231.846 50.668 232.004 53.8723 233.167C58.171 234.724 58.532 234.837 58.9444 234.751C59.1394 234.71 60.419 234.96 61.7882 235.304L64.281 235.931L65.3283 234.766C66.2491 233.747 66.165 233.568 64.9439 233.931C64.7741 233.981 64.0588 233.718 63.3559 233.347C62.1487 232.707 62.0574 232.715 61.673 233.504C61.2925 234.284 61.1482 234.289 59.4583 233.58C58.4665 233.163 57.6875 232.985 57.7291 233.183C57.7712 233.384 57.1091 233.208 56.2569 232.791C55.4051 232.376 54.3737 232.02 53.9626 232.001C53.5515 231.983 53.3703 231.784 53.5645 231.559C53.756 231.334 54.2486 231.298 54.6559 231.479C55.9261 232.045 56.4976 231.622 55.2855 231.014C54.0273 230.38 53.1689 230.392 53.3056 231.045ZM59.7368 231.924C59.8045 232.248 59.6009 232.567 59.2833 232.634C58.9685 232.7 58.9041 232.906 59.1462 233.09C59.4475 233.32 59.7984 233.232 60.2561 232.807C61.0287 232.094 60.9648 231.053 60.1596 231.222C59.8587 231.285 59.6687 231.599 59.7368 231.924ZM66.7482 235.561C66.792 235.77 66.4385 235.915 65.9643 235.887C65.4897 235.856 65.1383 236.012 65.1846 236.233C65.3166 236.863 66.6262 236.742 67.2672 236.04C67.9697 235.27 67.9475 234.914 67.212 235.068C66.9139 235.13 66.7045 235.352 66.7482 235.561ZM75.8128 233.546C75.6994 233.754 76.2642 234.118 77.0614 234.356C77.8614 234.593 78.4797 234.629 78.4393 234.436C78.3261 233.896 76.0412 233.123 75.8128 233.546ZM70.0981 235.281C70.1435 235.498 70.4229 235.624 70.7238 235.561C71.0219 235.499 71.3398 235.795 71.4286 236.219C71.5388 236.745 71.3135 236.974 70.7267 236.936C69.2676 236.843 69.9262 237.613 71.4511 237.784C72.3501 237.883 72.9764 237.777 73.1302 237.498C73.2651 237.253 73.1096 237.108 72.7864 237.175C72.4326 237.25 72.4531 236.862 72.837 236.209C73.4442 235.178 73.3948 235.109 71.9921 234.952C70.1817 234.75 69.9937 234.783 70.0981 235.281ZM82.0977 237.171C82.2548 237.532 82.8193 237.798 83.3559 237.763C84.1818 237.708 84.2101 237.593 83.5492 237.006C82.6022 236.164 81.7074 236.265 82.0977 237.171ZM86.8452 239.316C86.9836 239.976 88.7301 240.137 89.2742 239.541C89.4965 239.297 89.0222 239.032 88.2034 238.941C87.0212 238.809 86.7543 238.882 86.8452 239.316ZM579.465 141.816C578.83 142.197 578.478 142.713 578.687 142.962C578.894 143.211 578.816 143.592 578.516 143.81C578.201 144.039 578.084 143.996 578.242 143.708C578.391 143.435 578.087 143.023 577.567 142.79C576.72 142.414 576.776 142.318 578.082 141.892C580.508 141.101 580.672 141.092 579.465 141.816ZM575.013 143.746C574.892 143.879 574.474 144.09 574.079 144.219C573.687 144.347 573.107 144.643 572.786 144.875C572.465 145.108 572.026 145.164 571.814 144.999C571.385 144.67 573.977 143.272 574.749 143.416C575.015 143.465 575.134 143.614 575.013 143.746ZM120.998 239.032C121.391 239.562 122.696 239.624 122.588 239.11C122.544 238.899 122.098 238.701 121.597 238.668C121.034 238.632 120.804 238.773 120.998 239.032ZM123.398 239.272C123.667 239.916 124.13 240.141 124.869 239.987C125.462 239.863 126.407 239.918 126.965 240.11C128.197 240.533 128.195 240.33 126.961 239.201C126.249 238.551 125.892 238.485 125.485 238.929C125.078 239.375 124.714 239.373 123.98 238.923C123.043 238.352 123.022 238.365 123.398 239.272ZM128.442 239.457C128.62 239.694 129.79 239.963 131.044 240.048C132.298 240.135 133.52 240.343 133.758 240.509C133.994 240.678 134.683 240.609 135.288 240.359C135.997 240.065 136.292 240.081 136.114 240.401C135.948 240.703 136.137 240.747 136.591 240.513C137.003 240.299 137.991 240.239 138.788 240.378C140.491 240.676 141.834 240.493 141.248 240.041C141.015 239.864 141.206 239.748 141.684 239.778C142.15 239.808 142.704 240.036 142.91 240.285C143.278 240.725 145.657 240.223 147.741 239.262C148.243 239.031 148.987 238.918 149.401 239.009C150.627 239.281 151.549 239.071 151.44 238.549C151.378 238.255 150.53 238.204 149.325 238.423C148.218 238.624 147.025 238.66 146.672 238.503C146.319 238.346 145.591 238.31 145.05 238.423C144.512 238.536 144.021 238.385 143.959 238.088C143.845 237.541 141.931 237.514 138.056 238.007C136.354 238.225 136.006 238.382 136.346 238.787C136.63 239.128 136.495 239.277 135.936 239.244C135.476 239.214 135.05 238.943 134.987 238.644C134.924 238.342 134.491 238.177 134.023 238.275C133.558 238.373 133.346 238.583 133.554 238.745C133.762 238.904 133.42 239.047 132.794 239.059C132.165 239.071 131.487 238.955 131.285 238.798C131.081 238.644 130.672 238.566 130.372 238.629C130.073 238.691 130.036 238.903 130.289 239.097C130.595 239.333 130.305 239.379 129.434 239.236C128.402 239.069 128.188 239.116 128.442 239.457ZM150.048 237.333C150.139 237.766 151.916 237.908 152.281 237.511C152.427 237.348 152.154 237.128 151.672 237.02C150.555 236.769 149.954 236.885 150.048 237.333ZM239.832 218.518C239.871 218.703 239.272 218.9 238.503 218.952C237.732 219.006 237.088 218.982 237.07 218.899C237.053 218.817 237.652 218.62 238.401 218.464C239.148 218.307 239.793 218.331 239.832 218.518ZM576.511 147.942C576.008 148.151 575.633 148.485 575.675 148.684C575.777 149.172 576.708 148.952 577.033 148.364C577.173 148.106 577.539 147.947 577.843 148.014C578.148 148.078 578.358 147.946 578.31 147.717C578.22 147.287 578.044 147.307 576.511 147.942ZM243.179 218.226C243.218 218.411 242.619 218.608 241.848 218.662C241.08 218.714 240.435 218.692 240.418 218.609C240.4 218.525 240.999 218.33 241.746 218.174C242.496 218.017 243.14 218.039 243.179 218.226ZM248.359 217.198C248.608 217.389 248.047 217.655 246.97 217.858C245.268 218.174 245.236 218.16 246.456 217.597C247.166 217.267 247.793 216.971 247.844 216.937C247.898 216.902 248.13 217.022 248.359 217.198ZM251.398 216.989C250.668 217.518 249.157 217.496 249.45 216.965C249.561 216.762 250.184 216.583 250.833 216.571C251.661 216.555 251.83 216.679 251.398 216.989ZM160.005 236.053C160.044 236.239 159.445 236.434 158.677 236.488C157.875 236.545 157.314 236.769 157.365 237.014C157.485 237.585 160.396 238.264 160.802 237.819C160.977 237.627 160.772 237.393 160.345 237.302C159.721 237.169 159.715 237.057 160.317 236.748C160.728 236.534 161.385 236.502 161.769 236.673C162.289 236.904 162.442 236.844 162.359 236.447C162.282 236.079 162.707 236.095 163.684 236.496C164.476 236.821 165.598 236.999 166.181 236.894C167.203 236.707 167.203 236.719 166.219 237.244C165.259 237.755 165.295 237.8 166.798 237.978C167.681 238.083 168.431 238.318 168.468 238.499C168.506 238.679 168.919 238.748 169.387 238.65C169.852 238.553 170.047 238.327 169.817 238.149C169.586 237.973 169.657 237.774 169.975 237.707C170.29 237.641 170.607 237.852 170.675 238.175C170.743 238.498 171.041 238.713 171.341 238.65C171.64 238.587 171.842 238.331 171.79 238.082C171.73 237.797 172.096 237.779 172.774 238.035C173.45 238.288 175.546 238.186 178.391 237.762C180.887 237.391 183.463 237.051 184.111 237.007C185.117 236.937 185.215 236.795 184.76 236.039C184.351 235.361 184.423 235.166 185.063 235.206C185.52 235.236 185.816 235.539 185.715 235.879C185.472 236.716 187.002 236.358 187.722 235.406C188.153 234.838 188.115 234.577 187.567 234.333C187.019 234.09 186.87 234.144 186.957 234.56C187.047 234.988 186.906 235.036 186.322 234.775C185.254 234.302 183.586 234.739 183.735 235.45C183.847 235.983 183.674 236.021 182.188 235.795C181.23 235.65 180.336 235.732 180.099 235.988C179.858 236.241 178.094 236.382 175.966 236.316C173.919 236.252 171.701 236.337 171.035 236.504C169.678 236.845 169.438 236.587 170.266 235.682C170.569 235.348 170.705 235.084 170.569 235.098C170.432 235.112 169.446 235.224 168.379 235.349C167.312 235.474 166.046 235.54 165.568 235.496C165.091 235.451 164.034 235.53 163.223 235.67C162.409 235.811 161.542 235.836 161.292 235.726C160.673 235.451 159.919 235.643 160.005 236.053ZM566.487 151.153C566.38 151.268 565.817 151.524 565.234 151.724C564.65 151.923 563.766 152.492 563.268 152.988C562.243 154.008 561.835 154.018 562.125 153.016C562.236 152.643 563.189 151.986 564.248 151.559C566.045 150.832 566.939 150.672 566.487 151.153ZM174.586 235.161C174.689 235.649 175.148 235.815 175.968 235.662C176.645 235.535 177.887 235.354 178.725 235.26C179.564 235.167 180.217 234.925 180.175 234.724C180.098 234.359 179.301 234.37 178.053 234.758C177.684 234.87 177.352 234.8 177.31 234.599C177.268 234.4 176.603 234.279 175.832 234.334C174.746 234.408 174.467 234.592 174.586 235.161ZM555.28 155.481C555.52 155.263 555.558 155.293 555.369 155.544C554.753 156.365 552.94 156.751 553.156 156.016C553.291 155.552 553.569 155.433 554.096 155.616C554.509 155.758 555.044 155.698 555.28 155.481ZM548.622 157.833C548.755 158.47 546.704 159.105 546.352 158.537C546.027 158.012 546.211 157.862 547.269 157.79C547.997 157.738 548.606 157.759 548.622 157.833ZM551.249 156.826C551.27 156.927 550.836 157.3 550.289 157.656C549.49 158.174 549.262 158.182 549.161 157.702C549.09 157.36 549.508 157 550.124 156.871C550.72 156.746 551.228 156.726 551.249 156.826ZM480.587 172.726C480.735 173.182 481.165 173.622 481.542 173.705C481.966 173.796 482.046 173.987 481.751 174.2C481.486 174.392 480.751 174.286 480.114 173.966C479.479 173.644 478.655 173.54 478.285 173.731C477.915 173.921 477.577 173.906 477.533 173.697C477.489 173.488 477.927 173.218 478.51 173.096C479.089 172.975 479.679 172.667 479.821 172.413C480.183 171.752 480.29 171.795 480.587 172.726ZM456.657 178.595C456.409 179.84 456.416 179.834 455.314 179.763C454.795 179.731 454.476 179.513 454.605 179.281C454.731 179.049 455.086 178.914 455.394 178.981C455.702 179.047 456.041 178.793 456.149 178.419C456.455 177.367 456.872 177.51 456.657 178.595ZM447.193 180.757C447.162 180.582 447.405 180.495 447.734 180.566C448.109 180.647 448.086 180.969 447.669 181.423C446.719 182.467 446.413 182.422 446.169 181.2C445.998 180.358 446.092 180.225 446.601 180.598C446.958 180.861 447.226 180.933 447.193 180.757ZM188.321 235.446C187.837 236.495 188.37 236.792 189.467 236.089C189.921 235.797 190.731 235.359 191.272 235.111C192.448 234.571 192.261 234.47 190.242 234.541C189.082 234.582 188.619 234.799 188.321 235.446ZM204.87 231.492C204.337 232.075 204.666 232.491 205.515 232.313C205.964 232.219 206.276 231.877 206.209 231.554C206.08 230.941 205.402 230.909 204.87 231.492ZM441.547 182.019C442.356 181.883 442.73 182.082 442.829 182.709C442.954 183.503 443.19 183.533 445.117 183.012C446.3 182.691 447.151 182.561 447.008 182.721C446.092 183.739 442.327 184.227 441.823 183.393C441.537 182.917 440.874 182.594 440.35 182.677C439.235 182.854 439.429 182.807 436.753 183.539C435.595 183.857 434.531 183.958 434.387 183.766C434.16 183.461 436.775 182.824 441.547 182.019ZM487.453 172.57C486.871 173.249 484.944 173.825 484.844 173.349C484.794 173.108 485.451 172.802 487.581 172.071C487.812 171.993 487.754 172.217 487.453 172.57ZM430.145 184.9C430.303 184.613 430.685 184.435 430.995 184.502C431.303 184.569 431.451 184.817 431.321 185.054C431.19 185.291 431.344 185.431 431.662 185.364C431.977 185.298 432.19 184.931 432.131 184.549C432.042 183.959 432.118 183.958 432.628 184.548C433.447 185.485 432.689 186.48 431.328 186.258C430.759 186.165 430.16 186.232 429.999 186.408C429.838 186.585 429.671 186.551 429.625 186.332C429.579 186.113 428.803 186.072 427.902 186.242C427.001 186.411 426.299 186.724 426.344 186.939C426.388 187.152 426.154 187.268 425.822 187.197C424.783 186.972 425.615 186.222 427.289 185.871C428.203 185.68 428.85 185.324 428.796 185.042C428.727 184.681 428.854 184.665 429.282 184.984C429.69 185.293 429.943 185.267 430.145 184.9ZM527.491 165.018C527.213 165.382 527.17 165.764 527.398 165.865C527.623 165.967 527.55 166.104 527.232 166.17C526.915 166.237 526.453 166.046 526.205 165.748C525.944 165.436 526.004 165.262 526.345 165.337C526.671 165.407 527.03 165.148 527.141 164.764C527.252 164.378 527.491 164.129 527.671 164.208C527.85 164.286 527.769 164.651 527.491 165.018ZM532.242 163.708C532.257 163.776 531.516 163.974 530.595 164.147C529.666 164.321 529.18 164.276 529.5 164.043C530.021 163.668 532.178 163.403 532.242 163.708ZM454.692 180.321C455.309 180.506 456.197 180.482 456.669 180.266C457.383 179.936 457.406 179.965 456.816 180.44C456.309 180.851 455.634 180.917 454.414 180.675C452.815 180.36 452.696 180.387 452.327 181.139C451.769 182.279 450.757 182.393 451.281 181.256C451.768 180.204 453.096 179.84 454.692 180.321ZM463.985 178.62C465.847 177.666 467.581 178.138 466.215 179.229C465.645 179.684 464.816 180.034 464.371 180.005C463.841 179.972 463.707 180.127 463.986 180.459C464.25 180.775 464.069 181.035 463.501 181.154C463.002 181.258 462.698 181.154 462.824 180.922C463.124 180.382 462.279 179.361 461.644 179.494C461.379 179.55 461.217 179.871 461.287 180.209C461.358 180.544 461.618 180.674 461.863 180.497C462.11 180.319 462.259 180.542 462.193 180.994C462.101 181.638 461.906 181.746 461.286 181.494C460.851 181.317 460.571 180.914 460.663 180.599C460.759 180.269 460.318 180.036 459.623 180.05C458.963 180.064 458.386 179.906 458.343 179.701C458.3 179.497 458.755 179.338 459.357 179.349C459.955 179.36 460.569 179.151 460.713 178.884C460.888 178.567 461.299 178.541 461.901 178.807C462.549 179.097 463.166 179.041 463.985 178.62ZM470.61 176.927C471.065 176.693 471.375 176.84 471.479 177.34C471.706 178.423 473.516 179.054 473.39 178.007C473.308 177.337 473.34 177.326 473.692 177.894C474.022 178.431 475.161 178.647 475.058 178.153C474.929 177.538 473.983 176.91 473.376 177.038C472.978 177.121 472.479 177.06 472.271 176.898C471.567 176.356 474.422 176.533 476.189 177.14C477.293 177.523 478.303 177.58 478.918 177.296C479.459 177.047 479.936 177.033 479.984 177.264C480.033 177.495 480.805 177.53 481.705 177.342C482.602 177.154 483.304 176.839 483.263 176.644C483.221 176.445 484.086 176.298 485.221 176.312C486.614 176.326 487.345 176.182 487.541 175.853C487.695 175.588 489.06 175.177 490.572 174.94C494.545 174.315 494.62 174.314 494.45 174.903C494.364 175.2 494.551 175.497 494.865 175.565C495.535 175.71 496.02 174.445 495.459 174.015C495.251 173.853 495.337 173.667 495.655 173.601C495.972 173.534 496.268 173.657 496.314 173.874C496.359 174.089 496.886 174.163 497.485 174.037C498.084 173.912 498.613 174.004 498.663 174.243C498.72 174.519 498.204 174.694 497.27 174.72C495.987 174.756 495.845 174.859 496.228 175.479C496.54 175.98 496.404 176.249 495.779 176.374C494.843 176.559 493.173 177.179 491.382 178.003C490.674 178.329 490.417 178.321 490.604 177.979C490.76 177.697 490.627 177.52 490.309 177.586C489.992 177.653 489.776 177.914 489.828 178.165C489.881 178.418 489.796 178.566 489.636 178.495C488.851 178.147 489.642 176.495 490.46 176.779C491.112 177.003 491.276 176.937 491.182 176.491C491.088 176.041 490.326 176.071 487.801 176.621C486.009 177.009 484.57 177.467 484.605 177.638C484.641 177.809 484.058 178.078 483.311 178.234C482.562 178.391 481.988 178.695 482.033 178.91C482.078 179.125 481.72 179.385 481.235 179.486C480.622 179.615 480.391 179.414 480.475 178.828C480.54 178.363 480.374 178.029 480.101 178.086C479.831 178.143 479.659 178.502 479.719 178.884C479.804 179.415 479.669 179.395 479.151 178.797C478.473 178.017 477.278 177.91 477.432 178.645C477.478 178.862 477.759 178.986 478.058 178.923C478.358 178.86 478.641 178.986 478.686 179.203C478.731 179.417 478.452 179.614 478.068 179.638C477.68 179.663 477.472 179.891 477.604 180.146C477.736 180.4 477.573 180.664 477.241 180.734C476.91 180.803 476.723 180.565 476.828 180.206C477.06 179.409 476.409 179.495 475.551 180.371C475.048 180.885 474.979 180.899 475.203 180.443C475.583 179.674 475.107 179.816 474.283 180.718C473.697 181.363 473.329 181.412 471.367 181.125C468.652 180.727 468.787 180.703 468.904 181.557C468.958 181.94 468.681 181.784 468.287 181.208C467.713 180.366 467.753 179.989 468.499 179.273C469.596 178.221 469.617 177.642 468.544 178.196C467.909 178.524 467.865 178.439 468.281 177.691C468.574 177.16 469.01 176.895 469.34 177.042C469.651 177.18 470.222 177.128 470.61 176.927ZM524.79 165.422C525.019 165.391 525.269 165.766 525.348 166.257C525.425 166.748 525.324 166.962 525.125 166.733C524.881 166.455 524.384 166.511 523.615 166.907C522.926 167.259 522.032 167.417 521.379 167.3C520.512 167.144 520.122 167.339 519.445 168.258L518.599 169.41L519.17 168.014C519.637 166.87 519.999 166.599 521.163 166.519C521.946 166.464 522.547 166.237 522.5 166.017C522.454 165.794 522.857 165.581 523.396 165.544C523.935 165.506 524.563 165.45 524.79 165.422ZM199.34 234.015C199.385 234.23 199.912 234.304 200.509 234.179C201.108 234.054 201.561 233.774 201.516 233.559C201.471 233.344 200.943 233.27 200.344 233.396C199.748 233.521 199.295 233.8 199.34 234.015ZM212.4 231.286C212.444 231.499 212.66 231.614 212.88 231.54C214.077 231.145 215.88 231.004 215.582 231.331C215.111 231.845 210.997 232.727 210.914 232.331C210.803 231.803 209.344 232.291 209.164 232.916C208.92 233.751 209.672 234.135 211.1 233.9C211.921 233.766 212.294 233.476 212.207 233.035C212.134 232.657 212.285 232.503 212.558 232.681C213.081 233.014 214.059 233.031 215.917 232.737C216.567 232.632 216.996 232.737 216.87 232.967C216.744 233.199 217.146 233.177 217.767 232.92C218.388 232.664 218.799 232.628 218.681 232.839C218.334 233.474 220.793 233.261 225.941 232.208C226.839 232.024 227.802 232.036 228.079 232.236C228.443 232.502 228.681 232.429 228.945 231.969C229.19 231.544 229.456 231.451 229.758 231.683C230.045 231.902 232.118 231.581 235.467 230.796C238.358 230.117 241.062 229.67 241.476 229.802C242.485 230.119 242.919 228.692 241.947 228.258C241.492 228.056 241.269 228.09 241.324 228.351C241.381 228.622 240.518 228.835 238.756 228.979C237.299 229.1 234.982 229.327 233.607 229.483C232.235 229.64 230.239 229.87 229.171 229.993C228.103 230.114 226.307 230.397 225.184 230.62C223.858 230.885 223.099 230.843 223.028 230.505C222.922 229.999 221.295 229.629 220.494 229.929C220.278 230.01 220.07 229.944 220.033 229.784C219.996 229.622 218.247 229.808 216.143 230.194C213.909 230.606 212.352 231.06 212.4 231.286ZM440.195 184.131C440.07 184.562 439.112 184.819 435.265 185.459C433.938 185.678 434.442 184.834 435.895 184.402C438.203 183.715 440.353 183.58 440.195 184.131ZM449.147 181.908C449.214 182.231 449.025 182.548 448.726 182.61C448.426 182.673 448.128 182.459 448.06 182.136C447.992 181.81 448.179 181.496 448.48 181.433C448.778 181.371 449.078 181.583 449.147 181.908ZM204.316 233.279C204.457 233.799 206.111 234.645 206.73 234.516C207.07 234.445 207.121 234.134 206.849 233.807C206.523 233.419 206.593 233.278 207.062 233.379C207.445 233.46 207.812 233.794 207.88 234.118C207.947 234.441 208.208 234.559 208.453 234.382C209.286 233.779 208.355 232.762 206.978 232.772C205.047 232.786 204.225 232.944 204.316 233.279ZM512.618 169.306C512.481 169.555 511.739 169.775 510.97 169.796C509.975 169.824 509.715 169.943 510.069 170.215C510.422 170.485 510.132 170.628 509.083 170.701C508.266 170.759 507.637 170.976 507.68 171.185C507.725 171.396 507.014 171.643 506.104 171.738C505.195 171.829 504.407 172.036 504.357 172.2C504.066 173.106 499.861 173.844 499.986 172.966C500.055 172.476 500.259 172.27 500.434 172.508C500.875 173.099 502.923 172.62 504.149 171.642C504.7 171.201 506.427 170.477 507.986 170.035C509.545 169.591 510.921 169.121 511.04 168.991C511.435 168.558 512.87 168.845 512.618 169.306ZM514.596 168.242C515.045 168.442 514.77 169.598 514.246 169.707C514.043 169.75 513.804 169.431 513.714 169.001C513.55 168.218 513.888 167.927 514.596 168.242ZM470.035 178.58C470.128 179.026 470.426 179.228 470.696 179.033C470.969 178.835 471.138 178.42 471.073 178.111C471.008 177.8 470.71 177.596 470.409 177.659C470.111 177.721 469.942 178.136 470.035 178.58ZM537.506 164.428C537.101 164.731 536.895 164.969 537.05 164.957C537.201 164.944 537.894 164.894 538.587 164.843C539.278 164.793 539.806 164.567 539.758 164.338C539.711 164.111 539.922 163.979 540.226 164.045C540.531 164.111 540.896 163.953 541.037 163.695C541.37 163.09 538.493 163.686 537.506 164.428ZM238.14 227.963C238.628 228.339 240.506 227.971 240.796 227.443C240.914 227.227 240.278 227.189 239.38 227.358C238.484 227.526 237.925 227.799 238.14 227.963ZM253.161 225.216C253.273 225.75 254.128 225.789 254.815 225.293C255.28 224.959 255.13 224.842 254.273 224.86C253.624 224.872 253.123 225.033 253.161 225.216ZM467.076 181.407C467.256 182.269 467.18 182.323 466.314 181.938C465.471 181.565 465.732 180.794 466.809 180.467C466.844 180.456 466.965 180.879 467.076 181.407ZM258.205 224.889C258.306 225.369 259.972 225.49 260.565 225.062C260.813 224.882 261.051 224.91 261.096 225.123C261.228 225.755 259.506 226.2 256.648 226.27C255.172 226.307 253.994 226.47 254.028 226.632C254.062 226.795 253.16 227.07 252.024 227.243C250.888 227.416 249.956 227.533 249.949 227.501C249.943 227.471 248.755 227.604 247.312 227.797C245.748 228.008 244.721 228.309 244.77 228.544C244.853 228.941 246.69 228.796 253.007 227.894C254.901 227.623 256.774 227.416 257.17 227.431C259.808 227.543 268.154 226.274 268.05 225.778C268.018 225.627 267.31 225.427 266.48 225.335C265.533 225.229 265.037 224.931 265.152 224.535C265.392 223.711 265.083 223.678 261.312 224.13C259.369 224.363 258.157 224.658 258.205 224.889ZM265.769 223.981C265.668 224.333 265.808 224.671 266.085 224.73C266.36 224.79 266.64 224.461 266.706 223.998C266.844 223.032 266.05 223.018 265.769 223.981ZM340.939 208.235C341.125 208.318 341.057 208.455 340.79 208.541C338.657 209.216 337.963 209.454 336.462 210.024C335.043 210.564 334.727 210.557 334.608 209.99C334.509 209.514 334.787 209.301 335.534 209.287C336.122 209.275 336.906 209.046 337.274 208.778C337.941 208.293 340.288 207.946 340.939 208.235ZM344.773 206.992C344.843 207.325 342.112 208.077 341.773 207.819C341.575 207.666 342.162 207.381 343.075 207.19C343.992 206.998 344.756 206.909 344.773 206.992ZM360.328 203.984C360.587 204.181 359.881 204.491 358.51 204.778C357.276 205.036 356.358 205.084 356.468 204.884C356.771 204.332 359.849 203.615 360.328 203.984ZM269.818 223.376C269.866 223.603 269.637 223.732 269.308 223.663C268.982 223.591 268.753 223.72 268.801 223.949C268.908 224.462 269.827 224.305 270.149 223.722C270.28 223.483 271.071 223.29 271.937 223.284C272.791 223.28 273.81 223.121 274.206 222.931C274.6 222.741 274.809 222.792 274.67 223.045C274.389 223.553 278.454 222.727 278.96 222.172C279.125 221.989 279.685 221.844 280.204 221.849C281 221.858 281.008 221.827 280.249 221.649C278.922 221.337 269.71 222.862 269.818 223.376ZM377.327 202.112C377.747 202.051 377.142 202.341 375.98 202.761C373.422 203.684 373.211 203.636 374.292 202.383C374.985 201.579 375.252 201.481 375.846 201.818C376.239 202.042 376.907 202.175 377.327 202.112ZM460.934 183.954C461.022 184.369 457.825 185.508 457.43 185.203C457.156 184.992 457.247 184.91 457.658 185C458.035 185.081 458.312 184.983 458.27 184.782C458.227 184.579 458.806 184.286 459.552 184.13C460.302 183.973 460.922 183.895 460.934 183.954ZM353.967 207.719C354.028 208.134 353.923 208.214 353.681 207.936C353.474 207.696 353.1 207.649 352.852 207.826C352.602 208.007 352.344 207.882 352.275 207.553C352.197 207.182 352.477 206.976 353.013 207.009C353.487 207.039 353.918 207.358 353.967 207.719ZM457.775 186.433C457.634 186.689 457.036 186.946 456.449 187.002C454.684 187.174 454.661 186.867 456.401 186.402C457.385 186.139 457.931 186.151 457.775 186.433ZM357.261 207.754C357.1 207.931 357.246 208.323 357.589 208.625C358.071 209.054 357.954 209.245 357.045 209.485C356.097 209.738 356.017 209.69 356.608 209.222C357.155 208.789 357.154 208.634 356.61 208.591C355.56 208.509 355.585 207.847 356.643 207.626C357.142 207.521 357.419 207.579 357.261 207.754ZM383.039 202.57C383.17 203.197 385.248 203.095 388.664 202.298C393.048 201.273 392.936 201.321 391.568 201.056C390.266 200.807 382.941 202.106 383.039 202.57ZM449.665 188.494C449.499 188.675 449.143 188.893 448.876 188.976C447.694 189.347 447.675 189.462 448.77 189.597C449.669 189.709 449.502 189.784 448.028 189.925C444.812 190.234 444.808 189.245 448.023 188.571C449.09 188.348 449.83 188.313 449.665 188.494ZM307.554 219.134C307.599 219.349 307.99 219.452 308.419 219.362C308.851 219.271 309.318 218.989 309.46 218.735C309.598 218.48 309.208 218.379 308.592 218.508C307.977 218.637 307.509 218.917 307.554 219.134ZM314.74 217.508C313.42 218.174 314.302 218.457 316.262 217.996C317.379 217.735 319.452 217.414 320.867 217.283C322.784 217.104 323.573 216.87 323.955 216.364C324.375 215.813 324.192 215.746 322.962 216.008C322.13 216.187 320.086 216.524 318.416 216.759C316.747 216.993 315.093 217.331 314.74 217.508ZM325.067 215.964C325.102 216.132 325.622 216.17 326.221 216.045C326.817 215.92 327.278 215.677 327.243 215.508C327.207 215.339 326.688 215.303 326.092 215.428C325.493 215.554 325.032 215.795 325.067 215.964ZM360.964 208.358C361.01 208.575 360.693 208.826 360.261 208.916C359.829 209.007 359.288 208.936 359.059 208.757C358.83 208.581 359.144 208.331 359.76 208.202C360.378 208.072 360.919 208.143 360.964 208.358ZM385.593 203.907C385.715 204.49 387.718 204.599 389.902 204.141C391.098 203.891 392.299 203.824 392.567 203.992C392.878 204.187 393.195 204.062 393.432 203.65C393.647 203.275 394.22 203.025 394.777 203.062C395.393 203.1 395.633 202.968 395.432 202.7C395.225 202.423 393.841 202.562 391.376 203.109C389.317 203.566 387.16 203.862 386.579 203.768C386 203.673 385.557 203.737 385.593 203.907ZM406.294 199.686C406.339 199.9 406.863 199.975 407.462 199.85C408.061 199.724 408.515 199.445 408.47 199.23C408.424 199.013 407.897 198.941 407.298 199.066C406.699 199.192 406.248 199.469 406.294 199.686ZM419.302 196.712C419.32 196.796 420.207 196.757 421.273 196.626C422.339 196.495 423.18 196.246 423.144 196.075C423.108 195.902 422.223 195.941 421.176 196.16C420.128 196.38 419.284 196.628 419.302 196.712ZM434.036 193.828C434.12 194.227 436.367 194.138 437.295 193.699C438.592 193.085 437.7 192.7 435.867 193.084C434.819 193.303 433.996 193.637 434.036 193.828Z" fill="#FAB5B8"/>
<path fill-rule="evenodd" clip-rule="evenodd" d="M170.075 117.596C170.277 117.685 170.212 118.058 169.937 118.423C169.537 118.947 169.609 118.997 170.273 118.653C170.735 118.416 171.08 118.052 171.037 117.845C170.994 117.64 171.289 117.536 171.698 117.612C172.104 117.689 172.213 117.641 171.943 117.504C171.67 117.369 171.056 117.298 170.578 117.346C170.099 117.396 169.873 117.508 170.075 117.596ZM157.672 127.265C158.575 128.067 159.079 128.056 158.407 127.247C158.054 126.826 158.138 126.714 158.71 126.838C159.235 126.952 159.337 126.885 159.015 126.638C158.099 125.932 156.836 126.524 157.672 127.265ZM533.404 51.9472C532.782 52.3228 532.303 52.7837 532.342 52.9705C532.381 53.1593 532.966 52.8944 533.638 52.3845C535.436 51.0248 535.316 50.7984 533.404 51.9472ZM475.794 66.3742C475.649 66.6374 475.882 66.6556 476.344 66.4183C476.948 66.1074 477.102 66.2031 476.969 66.8033C476.829 67.4406 476.88 67.4634 477.234 66.9156C477.694 66.1965 477.34 65.6458 476.527 65.8162C476.262 65.8716 475.934 66.1228 475.794 66.3742ZM530.759 68.3535C530.628 68.5905 530.807 68.8466 531.157 68.9201C531.596 69.0168 531.631 69.2674 531.268 69.7438C530.892 70.2397 530.919 70.3956 531.356 70.304C531.693 70.2334 531.93 69.9888 531.882 69.7599C531.834 69.5309 532.06 69.4018 532.383 69.4725C532.718 69.5449 532.777 69.369 532.518 69.0586C532.269 68.7605 531.833 68.5667 531.549 68.6262C531.265 68.6857 531.147 68.5259 531.286 68.2725C531.424 68.0171 531.418 67.8339 531.267 67.8654C531.117 67.8969 530.889 68.1164 530.759 68.3535ZM531.79 72.0434C531.936 72.7383 532.208 72.9014 532.754 72.6194C533.329 72.3229 533.341 72.075 532.802 71.5987C531.848 70.7502 531.547 70.8825 531.79 72.0434ZM527.066 75.3159C526.931 75.5581 527.203 75.6792 527.671 75.5812C528.421 75.4242 528.838 75.7918 528.858 76.6241C528.863 76.77 529.194 76.9102 529.592 76.9358C530.011 76.9635 530.287 76.6562 530.242 76.217C530.2 75.7939 529.955 75.5998 529.7 75.7853C529.445 75.9687 529.182 75.8645 529.116 75.5511C528.973 74.8682 527.409 74.6885 527.066 75.3159ZM535.081 74.1889C535.223 74.8698 535.28 74.8767 537.597 74.4944C539.559 74.1715 539.928 73.5889 538.139 73.6387C537.392 73.6587 536.37 73.6486 535.866 73.6178C535.261 73.5787 534.994 73.7731 535.081 74.1889ZM546.283 75.4366C546.324 75.841 546.629 76.1148 546.96 76.0454C547.289 75.9765 547.376 75.8367 547.148 75.7355C546.921 75.6363 546.931 75.2966 547.17 74.9803C547.465 74.5937 547.381 74.4562 546.907 74.5553C546.522 74.6359 546.242 75.0322 546.283 75.4366ZM451.293 181.356C450.94 182.224 450.964 182.253 451.472 181.57C451.797 181.135 452.529 180.588 453.096 180.356C454.035 179.975 454.016 179.955 452.915 180.142C452.157 180.271 451.546 180.728 451.293 181.356Z" fill="#042CD4"/>
</svg>
